NotoSans-CondensedExtraBoldItalic.ufo
<glyph name="percent" format="2">
  <advance width="1620"/>
  <unicode hex="0025"/>
  <outline>
    <contour>
      <point x="305" y="0" type="line"/>
      <point x="559" y="0" type="line"/>
      <point x="1382" y="1462" type="line"/>
      <point x="1128" y="1462" type="line"/>
    </contour>
    <contour>
      <point x="360" y="565" type="curve" smooth="yes"/>
      <point x="655" y="565"/>
      <point x="768" y="967"/>
      <point x="768" y="1174" type="curve" smooth="yes"/>
      <point x="768" y="1391"/>
      <point x="670" y="1483"/>
      <point x="520" y="1483" type="curve" smooth="yes"/>
      <point x="233" y="1483"/>
      <point x="113" y="1094"/>
      <point x="113" y="868" type="curve" smooth="yes"/>
      <point x="113" y="664"/>
      <point x="199" y="565"/>
    </contour>
    <contour>
      <point x="391" y="791" type="curve" smooth="yes"/>
      <point x="369" y="791"/>
      <point x="354" y="813"/>
      <point x="354" y="864" type="curve" smooth="yes"/>
      <point x="354" y="979"/>
      <point x="414" y="1253"/>
      <point x="489" y="1253" type="curve" smooth="yes"/>
      <point x="514" y="1253"/>
      <point x="524" y="1231"/>
      <point x="524" y="1182" type="curve" smooth="yes"/>
      <point x="524" y="1067"/>
      <point x="467" y="791"/>
    </contour>
    <contour>
      <point x="1174" y="-16" type="curve" smooth="yes"/>
      <point x="1462" y="-16"/>
      <point x="1579" y="375"/>
      <point x="1579" y="592" type="curve" smooth="yes"/>
      <point x="1579" y="811"/>
      <point x="1481" y="901"/>
      <point x="1331" y="901" type="curve" smooth="yes"/>
      <point x="1079" y="901"/>
      <point x="926" y="584"/>
      <point x="926" y="287" type="curve" smooth="yes"/>
      <point x="926" y="82"/>
      <point x="1010" y="-16"/>
    </contour>
    <contour>
      <point x="1204" y="211" type="curve" smooth="yes"/>
      <point x="1180" y="211"/>
      <point x="1167" y="233"/>
      <point x="1167" y="283" type="curve" smooth="yes"/>
      <point x="1167" y="356"/>
      <point x="1212" y="672"/>
      <point x="1300" y="672" type="curve" smooth="yes"/>
      <point x="1325" y="672"/>
      <point x="1337" y="649"/>
      <point x="1337" y="600" type="curve" smooth="yes"/>
      <point x="1337" y="477"/>
      <point x="1280" y="211"/>
    </contour>
  </outline>
</glyph>
<glyph name="ampersand" format="2">
  <advance width="1225"/>
  <unicode hex="0026"/>
  <outline>
    <contour>
      <point x="340" y="-20" type="curve" smooth="yes"/>
      <point x="471" y="-20"/>
      <point x="553" y="6"/>
      <point x="672" y="76" type="curve"/>
      <point x="705" y="0" type="line"/>
      <point x="1116" y="0" type="line"/>
      <point x="958" y="309" type="line"/>
      <point x="1061" y="442"/>
      <point x="1171" y="647"/>
      <point x="1235" y="821" type="curve"/>
      <point x="893" y="821" type="line"/>
      <point x="864" y="735"/>
      <point x="834" y="668"/>
      <point x="807" y="616" type="curve"/>
      <point x="729" y="768" type="line"/>
      <point x="905" y="895"/>
      <point x="1022" y="1040"/>
      <point x="1022" y="1208" type="curve" smooth="yes"/>
      <point x="1022" y="1399"/>
      <point x="864" y="1481"/>
      <point x="705" y="1481" type="curve" smooth="yes"/>
      <point x="449" y="1481"/>
      <point x="272" y="1290"/>
      <point x="272" y="1057" type="curve" smooth="yes"/>
      <point x="272" y="952"/>
      <point x="293" y="877"/>
      <point x="328" y="807" type="curve"/>
      <point x="131" y="694"/>
      <point x="4" y="514"/>
      <point x="4" y="311" type="curve" smooth="yes"/>
      <point x="4" y="102"/>
      <point x="135" y="-20"/>
    </contour>
    <contour>
      <point x="430" y="272" type="curve" smooth="yes"/>
      <point x="381" y="272"/>
      <point x="352" y="307"/>
      <point x="352" y="369" type="curve" smooth="yes"/>
      <point x="352" y="459"/>
      <point x="383" y="539"/>
      <point x="434" y="588" type="curve"/>
      <point x="557" y="322" type="line"/>
      <point x="510" y="289"/>
      <point x="473" y="272"/>
    </contour>
    <contour>
      <point x="614" y="981" type="curve"/>
      <point x="598" y="1020"/>
      <point x="590" y="1059"/>
      <point x="590" y="1110" type="curve" smooth="yes"/>
      <point x="590" y="1157"/>
      <point x="610" y="1239"/>
      <point x="662" y="1239" type="curve" smooth="yes"/>
      <point x="707" y="1239"/>
      <point x="713" y="1196"/>
      <point x="713" y="1163" type="curve" smooth="yes"/>
      <point x="713" y="1100"/>
      <point x="668" y="1026"/>
    </contour>
  </outline>
</glyph>
<glyph name="quotesingle" format="2">
  <advance width="494"/>
  <unicode hex="0027"/>
  <outline>
    <contour>
      <point x="188" y="934" type="line"/>
      <point x="463" y="934" type="line"/>
      <point x="610" y="1462" type="line"/>
      <point x="264" y="1462" type="line"/>
    </contour>
  </outline>
</glyph>
<glyph name="parenleft" format="2">
  <advance width="578"/>
  <unicode hex="0028"/>
  <outline>
    <contour>
      <point x="86" y="-324" type="curve"/>
      <point x="365" y="-324" type="line"/>
      <point x="328" y="-174"/>
      <point x="319" y="-25"/>
      <point x="319" y="152" type="curve" smooth="yes"/>
      <point x="319" y="616"/>
      <point x="528" y="1186"/>
      <point x="754" y="1503" type="curve"/>
      <point x="477" y="1503" type="line"/>
      <point x="211" y="1206"/>
      <point x="23" y="573"/>
      <point x="23" y="139" type="curve" smooth="yes"/>
      <point x="23" y="-10"/>
      <point x="41" y="-219"/>
    </contour>
  </outline>
</glyph>
<glyph name="zero" format="2">
  <advance width="971"/>
  <unicode hex="0030"/>
  <outline>
    <contour>
      <point x="385" y="-20" type="curve" smooth="yes"/>
      <point x="786" y="-20"/>
      <point x="975" y="645"/>
      <point x="975" y="1055" type="curve" smooth="yes"/>
      <point x="975" y="1354"/>
      <point x="872" y="1483"/>
      <point x="651" y="1483" type="curve" smooth="yes"/>
      <point x="213" y="1483"/>
      <point x="66" y="719"/>
      <point x="66" y="393" type="curve" smooth="yes"/>
      <point x="66" y="109"/>
      <point x="166" y="-20"/>
    </contour>
    <contour>
      <point x="426" y="281" type="curve" smooth="yes"/>
      <point x="393" y="281"/>
      <point x="381" y="313"/>
      <point x="381" y="379" type="curve" smooth="yes"/>
      <point x="381" y="530"/>
      <point x="504" y="1182"/>
      <point x="616" y="1182" type="curve" smooth="yes"/>
      <point x="649" y="1182"/>
      <point x="659" y="1149"/>
      <point x="659" y="1079" type="curve" smooth="yes"/>
      <point x="659" y="889"/>
      <point x="532" y="281"/>
    </contour>
  </outline>
</glyph>
<glyph name="six" format="2">
  <advance width="971"/>
  <unicode hex="0036"/>
  <outline>
    <contour>
      <point x="428" y="-20" type="curve" smooth="yes"/>
      <point x="774" y="-20"/>
      <point x="920" y="360"/>
      <point x="920" y="627" type="curve" smooth="yes"/>
      <point x="920" y="827"/>
      <point x="858" y="975"/>
      <point x="688" y="975" type="curve" smooth="yes"/>
      <point x="600" y="975"/>
      <point x="522" y="928"/>
      <point x="467" y="850" type="curve"/>
      <point x="463" y="850" type="line"/>
      <point x="528" y="1069"/>
      <point x="641" y="1196"/>
      <point x="809" y="1196" type="curve" smooth="yes"/>
      <point x="862" y="1196"/>
      <point x="918" y="1188"/>
      <point x="977" y="1171" type="curve"/>
      <point x="1038" y="1464" type="line"/>
      <point x="973" y="1477"/>
      <point x="905" y="1483"/>
      <point x="807" y="1483" type="curve" smooth="yes"/>
      <point x="641" y="1483"/>
      <point x="502" y="1411"/>
      <point x="391" y="1300" type="curve" smooth="yes"/>
      <point x="174" y="1083"/>
      <point x="66" y="709"/>
      <point x="66" y="426" type="curve" smooth="yes"/>
      <point x="66" y="152"/>
      <point x="166" y="-20"/>
    </contour>
    <contour>
      <point x="442" y="274" type="curve" smooth="yes"/>
      <point x="414" y="274"/>
      <point x="397" y="313"/>
      <point x="397" y="389" type="curve" smooth="yes"/>
      <point x="397" y="465"/>
      <point x="422" y="596"/>
      <point x="469" y="651" type="curve" smooth="yes"/>
      <point x="485" y="674"/>
      <point x="508" y="688"/>
      <point x="530" y="688" type="curve" smooth="yes"/>
      <point x="561" y="688"/>
      <point x="575" y="657"/>
      <point x="575" y="598" type="curve" smooth="yes"/>
      <point x="575" y="512"/>
      <point x="543" y="274"/>
    </contour>
  </outline>
</glyph>
<glyph name="semicolon" format="2">
  <advance width="547"/>
  <unicode hex="003B"/>
  <outline>
    <contour>
      <point x="-121" y="-285" type="curve"/>
      <point x="150" y="-285" type="line"/>
      <point x="238" y="-131"/>
      <point x="317" y="57"/>
      <point x="393" y="279" type="curve"/>
      <point x="387" y="299" type="line"/>
      <point x="68" y="299" type="line"/>
      <point x="12" y="92"/>
      <point x="-51" y="-98"/>
    </contour>
    <contour>
      <point x="328" y="766" type="curve" smooth="yes"/>
      <point x="442" y="766"/>
      <point x="547" y="862"/>
      <point x="547" y="1012" type="curve" smooth="yes"/>
      <point x="547" y="1098"/>
      <point x="492" y="1149"/>
      <point x="401" y="1149" type="curve" smooth="yes"/>
      <point x="248" y="1149"/>
      <point x="168" y="1030"/>
      <point x="168" y="905" type="curve" smooth="yes"/>
      <point x="168" y="811"/>
      <point x="223" y="766"/>
    </contour>
  </outline>
</glyph>
<glyph name="less" format="2">
  <advance width="1024"/>
  <unicode hex="003C"/>
  <outline>
    <contour>
      <point x="975" y="229" type="line"/>
      <point x="975" y="524" type="line"/>
      <point x="471" y="739" type="line"/>
      <point x="975" y="950" type="line"/>
      <point x="975" y="1247" type="line"/>
      <point x="80" y="825" type="line"/>
      <point x="80" y="653" type="line"/>
    </contour>
  </outline>
</glyph>
<glyph name="question" format="2">
  <advance width="770"/>
  <unicode hex="003F"/>
  <outline>
    <contour>
      <point x="186" y="516" type="curve"/>
      <point x="471" y="516" type="line"/>
      <point x="498" y="639"/>
      <point x="520" y="666"/>
      <point x="608" y="741" type="curve" smooth="yes"/>
      <point x="739" y="854"/>
      <point x="866" y="999"/>
      <point x="866" y="1200" type="curve" smooth="yes"/>
      <point x="866" y="1376"/>
      <point x="758" y="1483"/>
      <point x="551" y="1483" type="curve" smooth="yes"/>
      <point x="428" y="1483"/>
      <point x="297" y="1436"/>
      <point x="168" y="1337" type="curve"/>
      <point x="207" y="1081" type="line"/>
      <point x="285" y="1135"/>
      <point x="373" y="1188"/>
      <point x="459" y="1188" type="curve" smooth="yes"/>
      <point x="508" y="1188"/>
      <point x="541" y="1155"/>
      <point x="541" y="1108" type="curve" smooth="yes"/>
      <point x="541" y="1034"/>
      <point x="512" y="1006"/>
      <point x="356" y="862" type="curve" smooth="yes"/>
      <point x="258" y="772"/>
      <point x="215" y="698"/>
    </contour>
    <contour>
      <point x="223" y="-25" type="curve" smooth="yes"/>
      <point x="338" y="-25"/>
      <point x="442" y="72"/>
      <point x="442" y="221" type="curve" smooth="yes"/>
      <point x="442" y="307"/>
      <point x="387" y="358"/>
      <point x="297" y="358" type="curve" smooth="yes"/>
      <point x="143" y="358"/>
      <point x="61" y="242"/>
      <point x="61" y="115" type="curve" smooth="yes"/>
      <point x="61" y="23"/>
      <point x="117" y="-25"/>
    </contour>
  </outline>
</glyph>
<glyph name="D" format="2">
  <advance width="1112"/>
  <unicode hex="0044"/>
  <anchor x="442" y="0" name="bottom"/>
  <anchor x="633" y="731" name="center"/>
  <anchor x="752" y="1462" name="top"/>
  <anchor x="1266" y="1462" name="topright"/>
  <outline>
    <contour>
      <point x="-10" y="0" type="line"/>
      <point x="365" y="0" type="line" smooth="yes"/>
      <point x="889" y="0"/>
      <point x="1114" y="541"/>
      <point x="1114" y="997" type="curve" smooth="yes"/>
      <point x="1114" y="1286"/>
      <point x="948" y="1462"/>
      <point x="635" y="1462" type="curve" smooth="yes"/>
      <point x="299" y="1462" type="line"/>
    </contour>
    <contour>
      <point x="395" y="303" type="line"/>
      <point x="578" y="1161" type="line"/>
      <point x="606" y="1161" type="line" smooth="yes"/>
      <point x="705" y="1161"/>
      <point x="754" y="1098"/>
      <point x="754" y="961" type="curve" smooth="yes"/>
      <point x="754" y="758"/>
      <point x="664" y="303"/>
      <point x="416" y="303" type="curve" smooth="yes"/>
    </contour>
  </outline>
</glyph>
<glyph name="H" format="2">
  <advance width="1153"/>
  <unicode hex="0048"/>
  <anchor x="463" y="0" name="bottom"/>
  <anchor x="653" y="731" name="center"/>
  <anchor x="772" y="1462" name="top"/>
  <anchor x="1307" y="1462" name="topright"/>
  <outline>
    <contour>
      <point x="-10" y="0" type="line"/>
      <point x="332" y="0" type="line"/>
      <point x="461" y="610" type="line"/>
      <point x="713" y="610" type="line"/>
      <point x="584" y="0" type="line"/>
      <point x="926" y="0" type="line"/>
      <point x="1237" y="1462" type="line"/>
      <point x="895" y="1462" type="line"/>
      <point x="776" y="909" type="line"/>
      <point x="524" y="909" type="line"/>
      <point x="641" y="1462" type="line"/>
      <point x="299" y="1462" type="line"/>
    </contour>
  </outline>
</glyph>
<glyph name="J" format="2">
  <advance width="563"/>
  <unicode hex="004A"/>
  <anchor x="-131" y="-459" name="bottom"/>
  <anchor x="477" y="1462" name="top"/>
  <anchor x="717" y="1462" name="topright"/>
  <outline>
    <contour>
      <point x="-131" y="-459" type="curve" smooth="yes"/>
      <point x="100" y="-459"/>
      <point x="270" y="-317"/>
      <point x="348" y="47" type="curve" smooth="yes"/>
      <point x="647" y="1462" type="line"/>
      <point x="305" y="1462" type="line"/>
      <point x="14" y="96" type="line" smooth="yes"/>
      <point x="-6" y="-4"/>
      <point x="-41" y="-164"/>
      <point x="-152" y="-164" type="curve" smooth="yes"/>
      <point x="-186" y="-164"/>
      <point x="-221" y="-154"/>
      <point x="-260" y="-135" type="curve"/>
      <point x="-324" y="-434" type="line"/>
      <point x="-272" y="-451"/>
      <point x="-217" y="-459"/>
    </contour>
  </outline>
</glyph>
<glyph name="O" format="2">
  <advance width="1176"/>
  <unicode hex="004F"/>
  <anchor x="473" y="0" name="bottom"/>
  <anchor x="664" y="731" name="center"/>
  <anchor x="782" y="1462" name="top"/>
  <anchor x="1329" y="1462" name="topright"/>
  <outline>
    <contour>
      <point x="498" y="-20" type="curve" smooth="yes"/>
      <point x="983" y="-20"/>
      <point x="1176" y="598"/>
      <point x="1176" y="991" type="curve" smooth="yes"/>
      <point x="1176" y="1315"/>
      <point x="1051" y="1485"/>
      <point x="756" y="1485" type="curve" smooth="yes"/>
      <point x="315" y="1485"/>
      <point x="72" y="936"/>
      <point x="72" y="475" type="curve" smooth="yes"/>
      <point x="72" y="133"/>
      <point x="207" y="-20"/>
    </contour>
    <contour>
      <point x="522" y="285" type="curve" smooth="yes"/>
      <point x="463" y="285"/>
      <point x="430" y="319"/>
      <point x="430" y="473" type="curve" smooth="yes"/>
      <point x="430" y="711"/>
      <point x="539" y="1186"/>
      <point x="727" y="1186" type="curve" smooth="yes"/>
      <point x="786" y="1186"/>
      <point x="819" y="1126"/>
      <point x="819" y="1001" type="curve" smooth="yes"/>
      <point x="819" y="764"/>
      <point x="711" y="285"/>
    </contour>
  </outline>
</glyph>
<glyph name="U" format="2">
  <advance width="1114"/>
  <unicode hex="0055"/>
  <anchor x="442" y="0" name="bottom"/>
  <anchor x="752" y="1462" name="top"/>
  <anchor x="1268" y="1462" name="topright"/>
  <outline>
    <contour>
      <point x="451" y="-20" type="curve" smooth="yes"/>
      <point x="764" y="-20"/>
      <point x="924" y="143"/>
      <point x="989" y="453" type="curve" smooth="yes"/>
      <point x="1204" y="1462" type="line"/>
      <point x="862" y="1462" type="line"/>
      <point x="657" y="506" type="line" smooth="yes"/>
      <point x="623" y="342"/>
      <point x="578" y="285"/>
      <point x="498" y="285" type="curve" smooth="yes"/>
      <point x="446" y="285"/>
      <point x="420" y="317"/>
      <point x="420" y="395" type="curve" smooth="yes"/>
      <point x="420" y="424"/>
      <point x="424" y="463"/>
      <point x="434" y="504" type="curve" smooth="yes"/>
      <point x="637" y="1462" type="line"/>
      <point x="295" y="1462" type="line"/>
      <point x="92" y="510" type="line" smooth="yes"/>
      <point x="80" y="449"/>
      <point x="72" y="383"/>
      <point x="72" y="336" type="curve" smooth="yes"/>
      <point x="72" y="113"/>
      <point x="215" y="-20"/>
    </contour>
  </outline>
</glyph>
<glyph name="W" format="2">
  <advance width="1524"/>
  <unicode hex="0057"/>
  <anchor x="647" y="0" name="bottom"/>
  <anchor x="956" y="1462" name="top"/>
  <anchor x="1677" y="1462" name="topright"/>
  <outline>
    <contour>
      <point x="135" y="0" type="line"/>
      <point x="518" y="0" type="line"/>
      <point x="723" y="537" type="line" smooth="yes"/>
      <point x="748" y="596"/>
      <point x="768" y="657"/>
      <point x="788" y="719" type="curve"/>
      <point x="793" y="719" type="line"/>
      <point x="784" y="647"/>
      <point x="778" y="573"/>
      <point x="778" y="516" type="curve" smooth="yes"/>
      <point x="768" y="0" type="line"/>
      <point x="1157" y="0" type="line"/>
      <point x="1714" y="1462" type="line"/>
      <point x="1370" y="1462" type="line"/>
      <point x="1145" y="854" type="line"/>
      <point x="1106" y="748"/>
      <point x="1077" y="674"/>
      <point x="1057" y="604" type="curve"/>
      <point x="1053" y="604" type="line"/>
      <point x="1059" y="692"/>
      <point x="1063" y="750"/>
      <point x="1067" y="852" type="curve" smooth="yes"/>
      <point x="1090" y="1462" type="line"/>
      <point x="811" y="1462" type="line"/>
      <point x="563" y="852" type="line" smooth="yes"/>
      <point x="528" y="764"/>
      <point x="498" y="684"/>
      <point x="467" y="602" type="curve"/>
      <point x="465" y="602" type="line"/>
      <point x="473" y="664"/>
      <point x="481" y="748"/>
      <point x="487" y="856" type="curve" smooth="yes"/>
      <point x="520" y="1462" type="line"/>
      <point x="190" y="1462" type="line"/>
    </contour>
  </outline>
</glyph>
<glyph name="bracketright" format="2">
  <advance width="588"/>
  <unicode hex="005D"/>
  <outline>
    <contour>
      <point x="-160" y="-344" type="line"/>
      <point x="305" y="-344" type="line"/>
      <point x="698" y="1503" type="line"/>
      <point x="231" y="1503" type="line"/>
      <point x="178" y="1249" type="line"/>
      <point x="350" y="1249" type="line"/>
      <point x="63" y="-90" type="line"/>
      <point x="-106" y="-90" type="line"/>
    </contour>
  </outline>
</glyph>
<glyph name="s" format="2">
  <advance width="793"/>
  <unicode hex="0073"/>
  <anchor x="276" y="0" name="bottom"/>
  <anchor x="518" y="1133" name="top"/>
  <anchor x="872" y="1133" name="topright"/>
  <outline>
    <contour>
      <point x="295" y="-20" type="curve" smooth="yes"/>
      <point x="553" y="-20"/>
      <point x="702" y="164"/>
      <point x="702" y="375" type="curve" smooth="yes"/>
      <point x="702" y="537"/>
      <point x="647" y="610"/>
      <point x="549" y="690" type="curve" smooth="yes"/>
      <point x="455" y="764"/>
      <point x="449" y="786"/>
      <point x="449" y="825" type="curve" smooth="yes"/>
      <point x="449" y="866"/>
      <point x="471" y="889"/>
      <point x="510" y="889" type="curve" smooth="yes"/>
      <point x="549" y="889"/>
      <point x="633" y="866"/>
      <point x="700" y="807" type="curve"/>
      <point x="825" y="1055" type="line"/>
      <point x="745" y="1112"/>
      <point x="618" y="1153"/>
      <point x="489" y="1153" type="curve" smooth="yes"/>
      <point x="238" y="1153"/>
      <point x="111" y="985"/>
      <point x="111" y="776" type="curve" smooth="yes"/>
      <point x="111" y="682"/>
      <point x="129" y="592"/>
      <point x="252" y="492" type="curve" smooth="yes"/>
      <point x="342" y="418"/>
      <point x="354" y="375"/>
      <point x="354" y="340" type="curve" smooth="yes"/>
      <point x="354" y="289"/>
      <point x="307" y="264"/>
      <point x="252" y="264" type="curve" smooth="yes"/>
      <point x="180" y="264"/>
      <point x="78" y="295"/>
      <point x="-4" y="350" type="curve"/>
      <point x="-4" y="47" type="line"/>
      <point x="78" y="0"/>
      <point x="150" y="-20"/>
    </contour>
  </outline>
</glyph>
<glyph name="y" format="2">
  <advance width="936"/>
  <unicode hex="0079"/>
  <anchor x="250" y="-492" name="bottom"/>
  <anchor x="584" y="1085" name="top"/>
  <anchor x="1010" y="1085" name="topright"/>
  <outline>
    <contour>
      <point x="33" y="-492" type="curve" smooth="yes"/>
      <point x="260" y="-492"/>
      <point x="362" y="-334"/>
      <point x="461" y="-127" type="curve" smooth="yes"/>
      <point x="1051" y="1133" type="line"/>
      <point x="707" y="1133" type="line"/>
      <point x="522" y="694" type="line" smooth="yes"/>
      <point x="508" y="655"/>
      <point x="479" y="569"/>
      <point x="463" y="502" type="curve"/>
      <point x="457" y="502" type="line"/>
      <point x="459" y="563"/>
      <point x="461" y="627"/>
      <point x="461" y="688" type="curve" smooth="yes"/>
      <point x="459" y="1133" type="line"/>
      <point x="127" y="1133" type="line"/>
      <point x="197" y="20" type="line"/>
      <point x="135" y="-106" type="line" smooth="yes"/>
      <point x="106" y="-166"/>
      <point x="80" y="-197"/>
      <point x="23" y="-197" type="curve" smooth="yes"/>
      <point x="0" y="-197"/>
      <point x="-29" y="-190"/>
      <point x="-63" y="-178" type="curve"/>
      <point x="-123" y="-471" type="line"/>
      <point x="-82" y="-485"/>
      <point x="-35" y="-492"/>
    </contour>
  </outline>
</glyph>
<glyph name="braceleft" format="2">
  <advance width="707"/>
  <unicode hex="007B"/>
  <outline>
    <contour>
      <point x="504" y="-324" type="curve" smooth="yes"/>
      <point x="524" y="-324" type="line"/>
      <point x="524" y="-43" type="line"/>
      <point x="449" y="-43"/>
      <point x="432" y="-14"/>
      <point x="432" y="45" type="curve" smooth="yes"/>
      <point x="432" y="57"/>
      <point x="434" y="76"/>
      <point x="438" y="94" type="curve" smooth="yes"/>
      <point x="467" y="238" type="line" smooth="yes"/>
      <point x="475" y="281"/>
      <point x="481" y="322"/>
      <point x="481" y="356" type="curve" smooth="yes"/>
      <point x="481" y="446"/>
      <point x="428" y="524"/>
      <point x="301" y="565" type="curve"/>
      <point x="303" y="573" type="line"/>
      <point x="481" y="594"/>
      <point x="569" y="688"/>
      <point x="596" y="815" type="curve" smooth="yes"/>
      <point x="645" y="1053" type="line" smooth="yes"/>
      <point x="664" y="1157"/>
      <point x="702" y="1182"/>
      <point x="801" y="1182" type="curve"/>
      <point x="862" y="1462" type="line"/>
      <point x="858" y="1462" type="line" smooth="yes"/>
      <point x="561" y="1462"/>
      <point x="395" y="1432"/>
      <point x="332" y="1139" type="curve" smooth="yes"/>
      <point x="281" y="893" type="line" smooth="yes"/>
      <point x="256" y="774"/>
      <point x="186" y="723"/>
      <point x="68" y="721" type="curve"/>
      <point x="8" y="434" type="line"/>
      <point x="131" y="434"/>
      <point x="154" y="397"/>
      <point x="154" y="317" type="curve" smooth="yes"/>
      <point x="154" y="293"/>
      <point x="147" y="270"/>
      <point x="145" y="254" type="curve" smooth="yes"/>
      <point x="111" y="92" type="line" smooth="yes"/>
      <point x="102" y="51"/>
      <point x="96" y="6"/>
      <point x="96" y="-35" type="curve" smooth="yes"/>
      <point x="96" y="-221"/>
      <point x="211" y="-324"/>
    </contour>
  </outline>
</glyph>
<glyph name="overscore" format="2">
  <advance width="942"/>
  <unicode hex="00AF"/>
  <outline>
    <contour>
      <point x="207" y="1556" type="line"/>
      <point x="1159" y="1556" type="line"/>
      <point x="1210" y="1802" type="line"/>
      <point x="260" y="1802" type="line"/>
    </contour>
  </outline>
</glyph>
<glyph name="twosuperior" format="2">
  <advance width="670"/>
  <unicode hex="00B2"/>
  <outline>
    <contour>
      <point x="129" y="852" type="line"/>
      <point x="659" y="852" type="line"/>
      <point x="705" y="1067" type="line"/>
      <point x="428" y="1067" type="line"/>
      <point x="573" y="1200" type="line" smooth="yes"/>
      <point x="680" y="1296"/>
      <point x="793" y="1409"/>
      <point x="793" y="1548" type="curve" smooth="yes"/>
      <point x="793" y="1671"/>
      <point x="717" y="1751"/>
      <point x="567" y="1751" type="curve" smooth="yes"/>
      <point x="463" y="1751"/>
      <point x="346" y="1702"/>
      <point x="272" y="1614" type="curve"/>
      <point x="348" y="1454" type="line"/>
      <point x="385" y="1493"/>
      <point x="444" y="1548"/>
      <point x="489" y="1548" type="curve" smooth="yes"/>
      <point x="520" y="1548"/>
      <point x="532" y="1528"/>
      <point x="532" y="1499" type="curve" smooth="yes"/>
      <point x="532" y="1432"/>
      <point x="475" y="1376"/>
      <point x="377" y="1272" type="curve" smooth="yes"/>
      <point x="172" y="1055" type="line"/>
    </contour>
  </outline>
</glyph>
<glyph name="threesuperior" format="2">
  <advance width="670"/>
  <unicode hex="00B3"/>
  <outline>
    <contour>
      <point x="375" y="836" type="curve" smooth="yes"/>
      <point x="580" y="836"/>
      <point x="719" y="934"/>
      <point x="719" y="1130" type="curve" smooth="yes"/>
      <point x="719" y="1229"/>
      <point x="672" y="1280"/>
      <point x="608" y="1305" type="curve"/>
      <point x="610" y="1313" type="line"/>
      <point x="739" y="1362"/>
      <point x="791" y="1444"/>
      <point x="791" y="1544" type="curve" smooth="yes"/>
      <point x="791" y="1663"/>
      <point x="723" y="1747"/>
      <point x="549" y="1747" type="curve" smooth="yes"/>
      <point x="463" y="1747"/>
      <point x="354" y="1722"/>
      <point x="264" y="1638" type="curve"/>
      <point x="348" y="1479" type="line"/>
      <point x="406" y="1526"/>
      <point x="446" y="1546"/>
      <point x="489" y="1546" type="curve" smooth="yes"/>
      <point x="520" y="1546"/>
      <point x="545" y="1530"/>
      <point x="545" y="1491" type="curve" smooth="yes"/>
      <point x="545" y="1425"/>
      <point x="504" y="1384"/>
      <point x="430" y="1384" type="curve" smooth="yes"/>
      <point x="352" y="1384" type="line"/>
      <point x="313" y="1202" type="line"/>
      <point x="410" y="1202" type="line" smooth="yes"/>
      <point x="459" y="1202"/>
      <point x="485" y="1176"/>
      <point x="485" y="1141" type="curve" smooth="yes"/>
      <point x="485" y="1077"/>
      <point x="442" y="1047"/>
      <point x="381" y="1047" type="curve" smooth="yes"/>
      <point x="293" y="1047"/>
      <point x="209" y="1079"/>
      <point x="160" y="1135" type="curve"/>
      <point x="160" y="907" type="line"/>
      <point x="211" y="862"/>
      <point x="283" y="836"/>
    </contour>
  </outline>
</glyph>
<glyph name="micro" format="2">
  <advance width="1006"/>
  <unicode hex="00B5"/>
  <outline>
    <contour>
      <point x="-133" y="-492" type="line"/>
      <point x="195" y="-492" type="line"/>
      <point x="262" y="-174" type="line" smooth="yes"/>
      <point x="276" y="-102"/>
      <point x="281" y="-33"/>
      <point x="281" y="27" type="curve"/>
      <point x="287" y="27" type="line"/>
      <point x="307" y="-4"/>
      <point x="334" y="-20"/>
      <point x="367" y="-20" type="curve" smooth="yes"/>
      <point x="420" y="-20"/>
      <point x="475" y="6"/>
      <point x="528" y="113" type="curve"/>
      <point x="535" y="113" type="line"/>
      <point x="537" y="0" type="line"/>
      <point x="795" y="0" type="line"/>
      <point x="1034" y="1133" type="line"/>
      <point x="707" y="1133" type="line"/>
      <point x="578" y="524" type="line" smooth="yes"/>
      <point x="530" y="309"/>
      <point x="483" y="274"/>
      <point x="434" y="274" type="curve" smooth="yes"/>
      <point x="397" y="274"/>
      <point x="385" y="303"/>
      <point x="385" y="358" type="curve" smooth="yes"/>
      <point x="385" y="395"/>
      <point x="393" y="442"/>
      <point x="406" y="504" type="curve" smooth="yes"/>
      <point x="539" y="1133" type="line"/>
      <point x="211" y="1133" type="line"/>
    </contour>
  </outline>
</glyph>
<glyph name="idotless" format="2">
  <advance width="516"/>
  <unicode hex="0131"/>
  <anchor x="137" y="0" name="bottom"/>
  <anchor x="379" y="1133" name="top"/>
  <outline>
    <contour>
      <point x="-25" y="0" type="line"/>
      <point x="303" y="0" type="line"/>
      <point x="543" y="1133" type="line"/>
      <point x="217" y="1133" type="line"/>
    </contour>
  </outline>
</glyph>
<glyph name="lslash" format="2">
  <advance width="623"/>
  <unicode hex="0142"/>
  <anchor x="197" y="0" name="bottom"/>
  <anchor x="526" y="1556" name="top"/>
  <outline>
    <contour>
      <point x="29" y="0" type="line"/>
      <point x="356" y="0" type="line"/>
      <point x="510" y="723" type="line"/>
      <point x="739" y="815" type="line"/>
      <point x="649" y="1030" type="line"/>
      <point x="567" y="999" type="line"/>
      <point x="686" y="1556" type="line"/>
      <point x="358" y="1556" type="line"/>
      <point x="211" y="866" type="line"/>
      <point x="-18" y="774" type="line"/>
      <point x="72" y="557" type="line"/>
      <point x="154" y="590" type="line"/>
    </contour>
  </outline>
</glyph>
<glyph name="Eng" format="2">
  <advance width="1239"/>
  <unicode hex="014A"/>
  <anchor x="408" y="-459" name="bottom"/>
  <anchor x="815" y="1462" name="top"/>
  <outline>
    <contour>
      <point x="535" y="-459" type="curve" smooth="yes"/>
      <point x="838" y="-459"/>
      <point x="958" y="-244"/>
      <point x="1030" y="80" type="curve" smooth="yes"/>
      <point x="1323" y="1462" type="line"/>
      <point x="1001" y="1462" type="line"/>
      <point x="905" y="1012" type="line" smooth="yes"/>
      <point x="891" y="936"/>
      <point x="874" y="836"/>
      <point x="858" y="717" type="curve"/>
      <point x="852" y="717" type="line"/>
      <point x="692" y="1462" type="line"/>
      <point x="299" y="1462" type="line"/>
      <point x="-10" y="0" type="line"/>
      <point x="309" y="0" type="line"/>
      <point x="438" y="610" type="line" smooth="yes"/>
      <point x="455" y="684"/>
      <point x="477" y="809"/>
      <point x="489" y="924" type="curve"/>
      <point x="496" y="924" type="line"/>
      <point x="690" y="10" type="line"/>
      <point x="666" y="-98"/>
      <point x="625" y="-164"/>
      <point x="545" y="-164" type="curve" smooth="yes"/>
      <point x="512" y="-164"/>
      <point x="475" y="-152"/>
      <point x="436" y="-133" type="curve"/>
      <point x="373" y="-434" type="line"/>
      <point x="422" y="-453"/>
      <point x="477" y="-459"/>
    </contour>
  </outline>
</glyph>
<glyph name="longs" format="2">
  <advance width="610"/>
  <unicode hex="017F"/>
  <anchor x="86" y="-492" name="bottom"/>
  <anchor x="522" y="1567" name="top"/>
  <outline>
    <contour>
      <point x="-66" y="-492" type="curve" smooth="yes"/>
      <point x="172" y="-492"/>
      <point x="266" y="-352"/>
      <point x="322" y="-92" type="curve" smooth="yes"/>
      <point x="582" y="1133" type="line" smooth="yes"/>
      <point x="598" y="1235"/>
      <point x="623" y="1290"/>
      <point x="678" y="1290" type="curve" smooth="yes"/>
      <point x="698" y="1290"/>
      <point x="733" y="1280"/>
      <point x="762" y="1264" type="curve"/>
      <point x="874" y="1509" type="line"/>
      <point x="788" y="1552"/>
      <point x="709" y="1567"/>
      <point x="627" y="1567" type="curve" smooth="yes"/>
      <point x="399" y="1567"/>
      <point x="305" y="1395"/>
      <point x="266" y="1192" type="curve" smooth="yes"/>
      <point x="0" y="-66" type="line" smooth="yes"/>
      <point x="-20" y="-156"/>
      <point x="-37" y="-205"/>
      <point x="-117" y="-205" type="curve" smooth="yes"/>
      <point x="-141" y="-205"/>
      <point x="-195" y="-197"/>
      <point x="-217" y="-184" type="curve"/>
      <point x="-217" y="-469" type="line"/>
      <point x="-162" y="-489"/>
      <point x="-117" y="-492"/>
    </contour>
  </outline>
</glyph>
<glyph name="uni0184" format="2">
  <advance width="983"/>
  <unicode hex="0184"/>
  <anchor x="377" y="0" name="bottom"/>
  <anchor x="686" y="1462" name="top"/>
  <outline>
    <contour>
      <point x="410" y="-20" type="curve" smooth="yes"/>
      <point x="764" y="-20"/>
      <point x="928" y="276"/>
      <point x="928" y="565" type="curve" smooth="yes"/>
      <point x="928" y="801"/>
      <point x="803" y="942"/>
      <point x="561" y="942" type="curve" smooth="yes"/>
      <point x="530" y="942" type="line"/>
      <point x="641" y="1462" type="line"/>
      <point x="299" y="1462" type="line"/>
      <point x="70" y="377" type="line" smooth="yes"/>
      <point x="61" y="338"/>
      <point x="57" y="301"/>
      <point x="57" y="268" type="curve" smooth="yes"/>
      <point x="57" y="72"/>
      <point x="201" y="-20"/>
    </contour>
    <contour>
      <point x="438" y="276" type="curve" smooth="yes"/>
      <point x="412" y="276"/>
      <point x="399" y="291"/>
      <point x="399" y="313" type="curve" smooth="yes"/>
      <point x="399" y="319"/>
      <point x="399" y="328"/>
      <point x="401" y="334" type="curve" smooth="yes"/>
      <point x="469" y="647" type="line"/>
      <point x="479" y="647" type="line" smooth="yes"/>
      <point x="537" y="647"/>
      <point x="575" y="602"/>
      <point x="575" y="537" type="curve" smooth="yes"/>
      <point x="575" y="385"/>
      <point x="512" y="276"/>
    </contour>
  </outline>
</glyph>
<glyph name="uni0187" format="2">
  <advance width="965"/>
  <unicode hex="0187"/>
  <anchor x="369" y="0" name="bottom"/>
  <anchor x="678" y="1462" name="top"/>
  <outline>
    <contour>
      <point x="446" y="-20" type="curve" smooth="yes"/>
      <point x="561" y="-20"/>
      <point x="698" y="2"/>
      <point x="803" y="55" type="curve"/>
      <point x="803" y="358" type="line"/>
      <point x="719" y="315"/>
      <point x="631" y="281"/>
      <point x="541" y="281" type="curve" smooth="yes"/>
      <point x="471" y="281"/>
      <point x="432" y="332"/>
      <point x="432" y="465" type="curve" smooth="yes"/>
      <point x="432" y="645"/>
      <point x="530" y="1184"/>
      <point x="774" y="1184" type="curve" smooth="yes"/>
      <point x="850" y="1184"/>
      <point x="909" y="1157"/>
      <point x="1006" y="1085" type="curve"/>
      <point x="1067" y="1362" type="line" smooth="yes"/>
      <point x="1083" y="1430"/>
      <point x="1108" y="1462"/>
      <point x="1171" y="1462" type="curve" smooth="yes"/>
      <point x="1194" y="1462"/>
      <point x="1235" y="1456"/>
      <point x="1274" y="1438" type="curve"/>
      <point x="1274" y="1726" type="line"/>
      <point x="1235" y="1743"/>
      <point x="1204" y="1757"/>
      <point x="1120" y="1757" type="curve" smooth="yes"/>
      <point x="950" y="1757"/>
      <point x="846" y="1683"/>
      <point x="797" y="1501" type="curve" smooth="yes"/>
      <point x="791" y="1479" type="line"/>
      <point x="774" y="1481"/>
      <point x="756" y="1483"/>
      <point x="739" y="1483" type="curve" smooth="yes"/>
      <point x="322" y="1483"/>
      <point x="70" y="932"/>
      <point x="70" y="449" type="curve" smooth="yes"/>
      <point x="70" y="164"/>
      <point x="199" y="-20"/>
    </contour>
  </outline>
</glyph>
<glyph name="florin" format="2">
  <advance width="971"/>
  <unicode hex="0192"/>
  <anchor x="-104" y="-492" name="bottom"/>
  <anchor x="315" y="1483" name="top"/>
  <outline>
    <contour>
      <point x="82" y="-492" type="curve" smooth="yes"/>
      <point x="287" y="-492"/>
      <point x="387" y="-360"/>
      <point x="446" y="-72" type="curve" smooth="yes"/>
      <point x="627" y="770" type="line"/>
      <point x="793" y="770" type="line"/>
      <point x="850" y="1042" type="line"/>
      <point x="684" y="1042" type="line"/>
      <point x="698" y="1108" type="line"/>
      <point x="711" y="1157"/>
      <point x="727" y="1206"/>
      <point x="774" y="1206" type="curve" smooth="yes"/>
      <point x="795" y="1206"/>
      <point x="821" y="1200"/>
      <point x="866" y="1180" type="curve"/>
      <point x="979" y="1425" type="line"/>
      <point x="889" y="1466"/>
      <point x="817" y="1483"/>
      <point x="737" y="1483" type="curve" smooth="yes"/>
      <point x="543" y="1483"/>
      <point x="442" y="1393"/>
      <point x="375" y="1116" type="curve" smooth="yes"/>
      <point x="352" y="1032" type="line"/>
      <point x="223" y="940" type="line"/>
      <point x="186" y="770" type="line"/>
      <point x="299" y="770" type="line"/>
      <point x="115" y="-98" type="line" smooth="yes"/>
      <point x="98" y="-178"/>
      <point x="80" y="-215"/>
      <point x="37" y="-215" type="curve" smooth="yes"/>
      <point x="20" y="-215"/>
      <point x="-49" y="-203"/>
      <point x="-86" y="-182" type="curve"/>
      <point x="-86" y="-459" type="line"/>
      <point x="-47" y="-477"/>
      <point x="2" y="-492"/>
    </contour>
  </outline>
</glyph>
<glyph name="uni019C" format="2">
  <advance width="1667"/>
  <unicode hex="019C"/>
  <anchor x="719" y="0" name="bottom"/>
  <anchor x="1028" y="1462" name="top"/>
  <outline>
    <contour>
      <point x="340" y="-20" type="curve" smooth="yes"/>
      <point x="444" y="-20"/>
      <point x="535" y="20"/>
      <point x="621" y="145" type="curve"/>
      <point x="627" y="145" type="line"/>
      <point x="662" y="37"/>
      <point x="756" y="-20"/>
      <point x="897" y="-20" type="curve" smooth="yes"/>
      <point x="1001" y="-20"/>
      <point x="1104" y="31"/>
      <point x="1176" y="131" type="curve"/>
      <point x="1180" y="131" type="line"/>
      <point x="1167" y="0" type="line"/>
      <point x="1440" y="0" type="line"/>
      <point x="1751" y="1462" type="line"/>
      <point x="1409" y="1462" type="line"/>
      <point x="1217" y="557" type="line" smooth="yes"/>
      <point x="1176" y="360"/>
      <point x="1124" y="287"/>
      <point x="1047" y="287" type="curve" smooth="yes"/>
      <point x="995" y="287"/>
      <point x="975" y="317"/>
      <point x="975" y="373" type="curve" smooth="yes"/>
      <point x="975" y="410"/>
      <point x="985" y="467"/>
      <point x="997" y="526" type="curve" smooth="yes"/>
      <point x="1194" y="1462" type="line"/>
      <point x="852" y="1462" type="line"/>
      <point x="659" y="557" type="line" smooth="yes"/>
      <point x="618" y="360"/>
      <point x="567" y="287"/>
      <point x="489" y="287" type="curve" smooth="yes"/>
      <point x="438" y="287"/>
      <point x="418" y="317"/>
      <point x="418" y="373" type="curve" smooth="yes"/>
      <point x="418" y="410"/>
      <point x="428" y="467"/>
      <point x="440" y="526" type="curve" smooth="yes"/>
      <point x="637" y="1462" type="line"/>
      <point x="295" y="1462" type="line"/>
      <point x="74" y="418" type="line" smooth="yes"/>
      <point x="59" y="344"/>
      <point x="55" y="293"/>
      <point x="55" y="252" type="curve" smooth="yes"/>
      <point x="55" y="78"/>
      <point x="160" y="-20"/>
    </contour>
  </outline>
</glyph>
<glyph name="Ohorn" format="2">
  <advance width="1221"/>
  <unicode hex="01A0"/>
  <anchor x="496" y="0" name="bottom"/>
  <anchor x="805" y="1462" name="top"/>
  <outline>
    <contour>
      <point x="498" y="-20" type="curve" smooth="yes"/>
      <point x="928" y="-20"/>
      <point x="1176" y="500"/>
      <point x="1176" y="991" type="curve" smooth="yes"/>
      <point x="1176" y="1020"/>
      <point x="1176" y="1047"/>
      <point x="1174" y="1071" type="curve"/>
      <point x="1370" y="1165"/>
      <point x="1462" y="1333"/>
      <point x="1501" y="1536" type="curve"/>
      <point x="1495" y="1556" type="line"/>
      <point x="1190" y="1556" type="line"/>
      <point x="1182" y="1481"/>
      <point x="1153" y="1386"/>
      <point x="1102" y="1323" type="curve"/>
      <point x="1034" y="1430"/>
      <point x="922" y="1485"/>
      <point x="756" y="1485" type="curve" smooth="yes"/>
      <point x="328" y="1485"/>
      <point x="72" y="963"/>
      <point x="72" y="475" type="curve" smooth="yes"/>
      <point x="72" y="133"/>
      <point x="207" y="-20"/>
    </contour>
    <contour>
      <point x="522" y="285" type="curve" smooth="yes"/>
      <point x="463" y="285"/>
      <point x="430" y="319"/>
      <point x="430" y="473" type="curve" smooth="yes"/>
      <point x="430" y="733"/>
      <point x="551" y="1186"/>
      <point x="727" y="1186" type="curve" smooth="yes"/>
      <point x="786" y="1186"/>
      <point x="819" y="1126"/>
      <point x="819" y="1001" type="curve" smooth="yes"/>
      <point x="819" y="780"/>
      <point x="713" y="285"/>
    </contour>
  </outline>
</glyph>
<glyph name="uni01A6" format="2">
  <advance width="1034"/>
  <unicode hex="01A6"/>
  <anchor x="403" y="0" name="bottom"/>
  <anchor x="713" y="1462" name="top"/>
  <outline>
    <contour>
      <point x="522" y="-205" type="line"/>
      <point x="901" y="-205" type="line"/>
      <point x="745" y="410" type="line"/>
      <point x="913" y="485"/>
      <point x="1020" y="662"/>
      <point x="1020" y="911" type="curve" smooth="yes"/>
      <point x="1020" y="1135"/>
      <point x="887" y="1257"/>
      <point x="604" y="1257" type="curve" smooth="yes"/>
      <point x="598" y="1257" type="line"/>
      <point x="641" y="1462" type="line"/>
      <point x="299" y="1462" type="line"/>
      <point x="-10" y="0" type="line"/>
      <point x="332" y="0" type="line"/>
      <point x="401" y="338" type="line"/>
      <point x="424" y="338" type="line"/>
    </contour>
    <contour>
      <point x="463" y="614" type="line"/>
      <point x="537" y="971" type="line"/>
      <point x="559" y="971" type="line" smooth="yes"/>
      <point x="625" y="971"/>
      <point x="657" y="934"/>
      <point x="657" y="864" type="curve" smooth="yes"/>
      <point x="657" y="750"/>
      <point x="606" y="614"/>
      <point x="492" y="614" type="curve" smooth="yes"/>
    </contour>
  </outline>
</glyph>
<glyph name="Uhorn" format="2">
  <advance width="1341"/>
  <unicode hex="01AF"/>
  <anchor x="557" y="0" name="bottom"/>
  <anchor x="866" y="1462" name="top"/>
  <outline>
    <contour>
      <point x="451" y="-20" type="curve" smooth="yes"/>
      <point x="758" y="-20"/>
      <point x="924" y="141"/>
      <point x="989" y="453" type="curve" smooth="yes"/>
      <point x="1112" y="1036" type="line"/>
      <point x="1401" y="1036"/>
      <point x="1561" y="1237"/>
      <point x="1620" y="1536" type="curve"/>
      <point x="1616" y="1556" type="line"/>
      <point x="1311" y="1556" type="line"/>
      <point x="1290" y="1413"/>
      <point x="1241" y="1266"/>
      <point x="1159" y="1253" type="curve"/>
      <point x="1204" y="1462" type="line"/>
      <point x="862" y="1462" type="line"/>
      <point x="657" y="506" type="line" smooth="yes"/>
      <point x="623" y="342"/>
      <point x="578" y="285"/>
      <point x="498" y="285" type="curve" smooth="yes"/>
      <point x="446" y="285"/>
      <point x="420" y="317"/>
      <point x="420" y="395" type="curve" smooth="yes"/>
      <point x="420" y="424"/>
      <point x="424" y="463"/>
      <point x="434" y="504" type="curve" smooth="yes"/>
      <point x="637" y="1462" type="line"/>
      <point x="295" y="1462" type="line"/>
      <point x="92" y="510" type="line" smooth="yes"/>
      <point x="80" y="449"/>
      <point x="72" y="383"/>
      <point x="72" y="336" type="curve" smooth="yes"/>
      <point x="72" y="113"/>
      <point x="215" y="-20"/>
    </contour>
  </outline>
</glyph>
<glyph name="uni021D" format="2">
  <advance width="866"/>
  <unicode hex="021D"/>
  <anchor x="240" y="-385" name="bottom"/>
  <anchor x="508" y="1126" name="top"/>
  <outline>
    <contour>
      <point x="-158" y="-492" type="line"/>
      <point x="322" y="-385"/>
      <point x="739" y="-227"/>
      <point x="739" y="211" type="curve" smooth="yes"/>
      <point x="739" y="330"/>
      <point x="698" y="399"/>
      <point x="653" y="453" type="curve"/>
      <point x="788" y="549"/>
      <point x="864" y="684"/>
      <point x="864" y="838" type="curve" smooth="yes"/>
      <point x="864" y="1034"/>
      <point x="723" y="1153"/>
      <point x="520" y="1153" type="curve" smooth="yes"/>
      <point x="369" y="1153"/>
      <point x="256" y="1116"/>
      <point x="137" y="1057" type="curve"/>
      <point x="201" y="791" type="line"/>
      <point x="266" y="825"/>
      <point x="340" y="850"/>
      <point x="424" y="850" type="curve" smooth="yes"/>
      <point x="479" y="850"/>
      <point x="526" y="817"/>
      <point x="526" y="752" type="curve" smooth="yes"/>
      <point x="526" y="608"/>
      <point x="369" y="553"/>
      <point x="199" y="512" type="curve"/>
      <point x="199" y="266" type="line"/>
      <point x="264" y="283"/>
      <point x="324" y="301"/>
      <point x="381" y="322" type="curve"/>
      <point x="393" y="291"/>
      <point x="406" y="254"/>
      <point x="406" y="195" type="curve" smooth="yes"/>
      <point x="406" y="-37"/>
      <point x="195" y="-133"/>
      <point x="-96" y="-199" type="curve"/>
    </contour>
  </outline>
</glyph>
<glyph name="uni0221" format="2">
  <advance width="1397"/>
  <unicode hex="0221"/>
  <anchor x="522" y="-289" name="bottom"/>
  <anchor x="913" y="1556" name="top"/>
  <outline>
    <contour>
      <point x="715" y="-289" type="line"/>
      <point x="762" y="-168"/>
      <point x="801" y="-72"/>
      <point x="834" y="6" type="curve"/>
      <point x="893" y="-14"/>
      <point x="956" y="-20"/>
      <point x="1008" y="-20" type="curve" smooth="yes"/>
      <point x="1190" y="-20"/>
      <point x="1339" y="76"/>
      <point x="1339" y="272" type="curve" smooth="yes"/>
      <point x="1339" y="408"/>
      <point x="1262" y="508"/>
      <point x="1122" y="508" type="curve" smooth="yes"/>
      <point x="1030" y="508"/>
      <point x="963" y="481"/>
      <point x="901" y="422" type="curve"/>
      <point x="897" y="440"/>
      <point x="897" y="463"/>
      <point x="897" y="481" type="curve" smooth="yes"/>
      <point x="897" y="506"/>
      <point x="901" y="545"/>
      <point x="911" y="592" type="curve" smooth="yes"/>
      <point x="1116" y="1556" type="line"/>
      <point x="788" y="1556" type="line"/>
      <point x="707" y="1174" type="line" smooth="yes"/>
      <point x="696" y="1122"/>
      <point x="686" y="1071"/>
      <point x="678" y="1020" type="curve"/>
      <point x="672" y="1020" type="line"/>
      <point x="633" y="1110"/>
      <point x="563" y="1153"/>
      <point x="457" y="1153" type="curve" smooth="yes"/>
      <point x="201" y="1153"/>
      <point x="29" y="670"/>
      <point x="29" y="319" type="curve" smooth="yes"/>
      <point x="29" y="111"/>
      <point x="137" y="-20"/>
      <point x="283" y="-20" type="curve" smooth="yes"/>
      <point x="444" y="-20"/>
      <point x="535" y="43"/>
      <point x="641" y="170" type="curve"/>
      <point x="649" y="170" type="line"/>
      <point x="664" y="137"/>
      <point x="680" y="111"/>
      <point x="700" y="88" type="curve"/>
      <point x="664" y="2"/>
      <point x="623" y="-102"/>
      <point x="573" y="-223" type="curve"/>
    </contour>
    <contour>
      <point x="412" y="256" type="curve" smooth="yes"/>
      <point x="383" y="256"/>
      <point x="367" y="295"/>
      <point x="367" y="371" type="curve" smooth="yes"/>
      <point x="367" y="498"/>
      <point x="440" y="868"/>
      <point x="545" y="868" type="curve" smooth="yes"/>
      <point x="586" y="868"/>
      <point x="606" y="834"/>
      <point x="606" y="758" type="curve" smooth="yes"/>
      <point x="606" y="598"/>
      <point x="522" y="256"/>
    </contour>
    <contour>
      <point x="1040" y="162" type="curve" smooth="yes"/>
      <point x="1004" y="162"/>
      <point x="969" y="184"/>
      <point x="942" y="231" type="curve"/>
      <point x="987" y="307"/>
      <point x="1024" y="326"/>
      <point x="1069" y="326" type="curve" smooth="yes"/>
      <point x="1102" y="326"/>
      <point x="1135" y="303"/>
      <point x="1135" y="258" type="curve" smooth="yes"/>
      <point x="1135" y="195"/>
      <point x="1092" y="162"/>
    </contour>
  </outline>
</glyph>
<glyph name="uni0235" format="2">
  <advance width="1372"/>
  <unicode hex="0235"/>
  <anchor x="571" y="0" name="bottom"/>
  <anchor x="801" y="1085" name="top"/>
  <outline>
    <contour>
      <point x="489" y="-82" type="line"/>
      <point x="530" y="-8"/>
      <point x="563" y="49"/>
      <point x="604" y="106" type="curve"/>
      <point x="676" y="14"/>
      <point x="805" y="-20"/>
      <point x="938" y="-20" type="curve" smooth="yes"/>
      <point x="1169" y="-20"/>
      <point x="1319" y="96"/>
      <point x="1319" y="295" type="curve" smooth="yes"/>
      <point x="1319" y="446"/>
      <point x="1219" y="569"/>
      <point x="1040" y="569" type="curve" smooth="yes"/>
      <point x="997" y="569"/>
      <point x="956" y="565"/>
      <point x="913" y="557" type="curve"/>
      <point x="950" y="723" type="line" smooth="yes"/>
      <point x="967" y="795"/>
      <point x="969" y="846"/>
      <point x="969" y="887" type="curve" smooth="yes"/>
      <point x="969" y="1092"/>
      <point x="844" y="1153"/>
      <point x="723" y="1153" type="curve" smooth="yes"/>
      <point x="627" y="1153"/>
      <point x="545" y="1096"/>
      <point x="479" y="1001" type="curve"/>
      <point x="473" y="1001" type="line"/>
      <point x="477" y="1133" type="line"/>
      <point x="215" y="1133" type="line"/>
      <point x="-27" y="0" type="line"/>
      <point x="303" y="0" type="line"/>
      <point x="426" y="584" type="line" smooth="yes"/>
      <point x="459" y="735"/>
      <point x="502" y="858"/>
      <point x="573" y="858" type="curve" smooth="yes"/>
      <point x="610" y="858"/>
      <point x="625" y="831"/>
      <point x="625" y="786" type="curve" smooth="yes"/>
      <point x="625" y="750"/>
      <point x="616" y="690"/>
      <point x="602" y="631" type="curve" smooth="yes"/>
      <point x="567" y="477" type="line"/>
      <point x="553" y="412"/>
      <point x="547" y="365"/>
      <point x="545" y="322" type="curve"/>
      <point x="477" y="238"/>
      <point x="410" y="131"/>
      <point x="344" y="-8" type="curve"/>
    </contour>
    <contour>
      <point x="995" y="162" type="curve" smooth="yes"/>
      <point x="926" y="162"/>
      <point x="860" y="223"/>
      <point x="881" y="367" type="curve"/>
      <point x="926" y="385"/>
      <point x="956" y="387"/>
      <point x="987" y="387" type="curve" smooth="yes"/>
      <point x="1077" y="387"/>
      <point x="1114" y="342"/>
      <point x="1114" y="270" type="curve" smooth="yes"/>
      <point x="1114" y="215"/>
      <point x="1071" y="162"/>
    </contour>
  </outline>
</glyph>
<glyph name="uni0238" format="2">
  <advance width="1481"/>
  <unicode hex="0238"/>
  <anchor x="627" y="0" name="bottom"/>
  <anchor x="956" y="1556" name="top"/>
  <outline>
    <contour>
      <point x="336" y="-20" type="curve" smooth="yes"/>
      <point x="463" y="-20"/>
      <point x="582" y="53"/>
      <point x="668" y="199" type="curve"/>
      <point x="705" y="49"/>
      <point x="797" y="-20"/>
      <point x="936" y="-20" type="curve" smooth="yes"/>
      <point x="1319" y="-20"/>
      <point x="1456" y="498"/>
      <point x="1456" y="817" type="curve" smooth="yes"/>
      <point x="1456" y="1024"/>
      <point x="1374" y="1153"/>
      <point x="1217" y="1153" type="curve" smooth="yes"/>
      <point x="1126" y="1153"/>
      <point x="1059" y="1118"/>
      <point x="999" y="1036" type="curve"/>
      <point x="995" y="1036" type="line"/>
      <point x="1018" y="1112"/>
      <point x="1038" y="1186"/>
      <point x="1044" y="1221" type="curve" smooth="yes"/>
      <point x="1116" y="1556" type="line"/>
      <point x="788" y="1556" type="line"/>
      <point x="713" y="1204" type="line" smooth="yes"/>
      <point x="705" y="1169"/>
      <point x="694" y="1102"/>
      <point x="686" y="1024" type="curve"/>
      <point x="680" y="1024" type="line"/>
      <point x="651" y="1106"/>
      <point x="586" y="1153"/>
      <point x="477" y="1153" type="curve" smooth="yes"/>
      <point x="168" y="1153"/>
      <point x="29" y="637"/>
      <point x="29" y="348" type="curve" smooth="yes"/>
      <point x="29" y="111"/>
      <point x="119" y="-20"/>
    </contour>
    <contour>
      <point x="412" y="256" type="curve" smooth="yes"/>
      <point x="383" y="256"/>
      <point x="367" y="295"/>
      <point x="367" y="371" type="curve" smooth="yes"/>
      <point x="367" y="469"/>
      <point x="428" y="868"/>
      <point x="545" y="868" type="curve" smooth="yes"/>
      <point x="586" y="868"/>
      <point x="606" y="834"/>
      <point x="606" y="758" type="curve" smooth="yes"/>
      <point x="606" y="604"/>
      <point x="532" y="256"/>
    </contour>
    <contour>
      <point x="938" y="256" type="curve" smooth="yes"/>
      <point x="897" y="256"/>
      <point x="877" y="291"/>
      <point x="877" y="367" type="curve" smooth="yes"/>
      <point x="877" y="526"/>
      <point x="946" y="868"/>
      <point x="1067" y="868" type="curve" smooth="yes"/>
      <point x="1100" y="868"/>
      <point x="1116" y="831"/>
      <point x="1116" y="756" type="curve" smooth="yes"/>
      <point x="1116" y="602"/>
      <point x="1026" y="256"/>
    </contour>
  </outline>
</glyph>
<glyph name="uni0240" format="2">
  <advance width="801"/>
  <unicode hex="0240"/>
  <anchor x="182" y="-492" name="bottom"/>
  <anchor x="516" y="1085" name="top"/>
  <outline>
    <contour>
      <point x="506" y="-492" type="curve" smooth="yes"/>
      <point x="545" y="-492"/>
      <point x="616" y="-479"/>
      <point x="653" y="-465" type="curve"/>
      <point x="653" y="-221" type="line"/>
      <point x="637" y="-227"/>
      <point x="612" y="-238"/>
      <point x="573" y="-238" type="curve" smooth="yes"/>
      <point x="506" y="-238"/>
      <point x="471" y="-178"/>
      <point x="457" y="-51" type="curve" smooth="yes"/>
      <point x="442" y="78"/>
      <point x="403" y="164"/>
      <point x="315" y="215" type="curve"/>
      <point x="823" y="920" type="line"/>
      <point x="868" y="1133" type="line"/>
      <point x="174" y="1133" type="line"/>
      <point x="115" y="856" type="line"/>
      <point x="434" y="856" type="line"/>
      <point x="-45" y="195" type="line"/>
      <point x="-86" y="0" type="line"/>
      <point x="-23" y="0" type="line" smooth="yes"/>
      <point x="66" y="0"/>
      <point x="143" y="-49"/>
      <point x="170" y="-225" type="curve" smooth="yes"/>
      <point x="197" y="-406"/>
      <point x="285" y="-492"/>
    </contour>
  </outline>
</glyph>
<glyph name="eopenreversedhook" format="2">
  <advance width="1241"/>
  <unicode hex="025D"/>
  <anchor x="297" y="-20" name="bottom"/>
  <anchor x="492" y="1153" name="top"/>
  <outline>
    <contour>
      <point x="1063" y="492" type="curve" smooth="yes"/>
      <point x="1147" y="492"/>
      <point x="1221" y="528"/>
      <point x="1276" y="580" type="curve"/>
      <point x="1208" y="760" type="line"/>
      <point x="1178" y="735"/>
      <point x="1153" y="725"/>
      <point x="1108" y="725" type="curve" smooth="yes"/>
      <point x="1063" y="725"/>
      <point x="1047" y="764"/>
      <point x="1032" y="905" type="curve"/>
      <point x="1022" y="999" type="line"/>
      <point x="645" y="879" type="line"/>
      <point x="676" y="666" type="line"/>
      <point x="848" y="723" type="line"/>
      <point x="872" y="567"/>
      <point x="942" y="492"/>
    </contour>
    <component base="afii10073"/>
  </outline>
</glyph>
<glyph name="uni026D" format="2">
  <advance width="516"/>
  <unicode hex="026D"/>
  <anchor x="39" y="-492" name="bottom"/>
  <anchor x="473" y="1556" name="top"/>
  <outline>
    <contour>
      <point x="182" y="-492" type="curve" smooth="yes"/>
      <point x="254" y="-492"/>
      <point x="348" y="-469"/>
      <point x="422" y="-424" type="curve"/>
      <point x="422" y="-170" type="line"/>
      <point x="389" y="-188"/>
      <point x="342" y="-205"/>
      <point x="317" y="-205" type="curve" smooth="yes"/>
      <point x="291" y="-205"/>
      <point x="276" y="-184"/>
      <point x="276" y="-158" type="curve" smooth="yes"/>
      <point x="276" y="-135"/>
      <point x="281" y="-121"/>
      <point x="283" y="-106" type="curve" smooth="yes"/>
      <point x="639" y="1556" type="line"/>
      <point x="311" y="1556" type="line"/>
      <point x="-37" y="-70" type="line" smooth="yes"/>
      <point x="-49" y="-127"/>
      <point x="-59" y="-195"/>
      <point x="-59" y="-250" type="curve" smooth="yes"/>
      <point x="-59" y="-401"/>
      <point x="27" y="-492"/>
    </contour>
  </outline>
</glyph>
<glyph name="uni0276" format="2">
  <advance width="1284"/>
  <unicode hex="0276"/>
  <anchor x="528" y="0" name="bottom"/>
  <anchor x="758" y="1085" name="top"/>
  <outline>
    <contour>
      <point x="340" y="-20" type="curve" smooth="yes"/>
      <point x="406" y="-20"/>
      <point x="467" y="0"/>
      <point x="520" y="33" type="curve"/>
      <point x="514" y="0" type="line"/>
      <point x="1110" y="0" type="line"/>
      <point x="1169" y="276" type="line"/>
      <point x="840" y="276" type="line"/>
      <point x="874" y="440" type="line"/>
      <point x="1163" y="440" type="line"/>
      <point x="1217" y="686" type="line"/>
      <point x="928" y="686" type="line"/>
      <point x="963" y="856" type="line"/>
      <point x="1276" y="856" type="line"/>
      <point x="1335" y="1133" type="line"/>
      <point x="756" y="1133" type="line"/>
      <point x="748" y="1090" type="line"/>
      <point x="698" y="1128"/>
      <point x="639" y="1153"/>
      <point x="569" y="1153" type="curve" smooth="yes"/>
      <point x="182" y="1153"/>
      <point x="37" y="668"/>
      <point x="37" y="371" type="curve" smooth="yes"/>
      <point x="37" y="127"/>
      <point x="170" y="-20"/>
    </contour>
    <contour>
      <point x="434" y="256" type="curve" smooth="yes"/>
      <point x="387" y="256"/>
      <point x="367" y="297"/>
      <point x="367" y="369" type="curve" smooth="yes"/>
      <point x="367" y="535"/>
      <point x="438" y="877"/>
      <point x="551" y="877" type="curve" smooth="yes"/>
      <point x="598" y="877"/>
      <point x="616" y="838"/>
      <point x="616" y="762" type="curve" smooth="yes"/>
      <point x="616" y="598"/>
      <point x="541" y="256"/>
    </contour>
  </outline>
</glyph>
<glyph name="uni0279" format="2">
  <advance width="721"/>
  <unicode hex="0279"/>
  <anchor x="240" y="0" name="bottom"/>
  <anchor x="481" y="1133" name="top"/>
  <outline>
    <contour>
      <point x="-10" y="-20" type="curve" smooth="yes"/>
      <point x="106" y="-20"/>
      <point x="174" y="33"/>
      <point x="248" y="164" type="curve"/>
      <point x="256" y="164" type="line"/>
      <point x="252" y="0" type="line"/>
      <point x="510" y="0" type="line"/>
      <point x="750" y="1133" type="line"/>
      <point x="422" y="1133" type="line"/>
      <point x="303" y="563" type="line" smooth="yes"/>
      <point x="279" y="440"/>
      <point x="213" y="336"/>
      <point x="100" y="336" type="curve" smooth="yes"/>
      <point x="63" y="336"/>
      <point x="31" y="342"/>
      <point x="0" y="354" type="curve"/>
      <point x="-102" y="-6" type="line"/>
      <point x="-61" y="-18"/>
      <point x="-37" y="-20"/>
    </contour>
  </outline>
</glyph>
<glyph name="uni0280" format="2">
  <advance width="956"/>
  <unicode hex="0280"/>
  <anchor x="365" y="0" name="bottom"/>
  <anchor x="594" y="1085" name="top"/>
  <outline>
    <contour>
      <point x="-27" y="2" type="line"/>
      <point x="301" y="0" type="line"/>
      <point x="381" y="387" type="line"/>
      <point x="430" y="387" type="line"/>
      <point x="500" y="0" type="line"/>
      <point x="838" y="0" type="line"/>
      <point x="737" y="453" type="line"/>
      <point x="860" y="520"/>
      <point x="936" y="645"/>
      <point x="936" y="831" type="curve" smooth="yes"/>
      <point x="936" y="1030"/>
      <point x="827" y="1133"/>
      <point x="600" y="1133" type="curve" smooth="yes"/>
      <point x="205" y="1133" type="line"/>
    </contour>
    <contour>
      <point x="432" y="633" type="line"/>
      <point x="481" y="887" type="line"/>
      <point x="532" y="887" type="line" smooth="yes"/>
      <point x="578" y="887"/>
      <point x="598" y="860"/>
      <point x="598" y="805" type="curve" smooth="yes"/>
      <point x="598" y="711"/>
      <point x="553" y="633"/>
      <point x="492" y="633" type="curve" smooth="yes"/>
    </contour>
  </outline>
</glyph>
<glyph name="eopenclosed" format="2">
  <advance width="1020"/>
  <unicode hex="029A"/>
  <anchor x="389" y="0" name="bottom"/>
  <anchor x="596" y="1133" name="top"/>
  <outline>
    <contour>
      <point x="408" y="-20" type="curve" smooth="yes"/>
      <point x="797" y="-20"/>
      <point x="981" y="360"/>
      <point x="981" y="713" type="curve" smooth="yes"/>
      <point x="981" y="1004"/>
      <point x="854" y="1155"/>
      <point x="559" y="1155" type="curve" smooth="yes"/>
      <point x="256" y="1155"/>
      <point x="106" y="993"/>
      <point x="106" y="809" type="curve" smooth="yes"/>
      <point x="106" y="674"/>
      <point x="180" y="592"/>
      <point x="293" y="555" type="curve"/>
      <point x="293" y="551" type="line"/>
      <point x="154" y="530"/>
      <point x="18" y="430"/>
      <point x="18" y="270" type="curve" smooth="yes"/>
      <point x="18" y="68"/>
      <point x="190" y="-20"/>
    </contour>
    <contour>
      <point x="449" y="225" type="curve" smooth="yes"/>
      <point x="391" y="225"/>
      <point x="362" y="252"/>
      <point x="362" y="309" type="curve" smooth="yes"/>
      <point x="362" y="393"/>
      <point x="414" y="432"/>
      <point x="498" y="432" type="curve" smooth="yes"/>
      <point x="526" y="432" type="line"/>
      <point x="567" y="682" type="line"/>
      <point x="537" y="682" type="line"/>
      <point x="469" y="682"/>
      <point x="434" y="721"/>
      <point x="434" y="780" type="curve" smooth="yes"/>
      <point x="434" y="858"/>
      <point x="479" y="907"/>
      <point x="553" y="907" type="curve" smooth="yes"/>
      <point x="614" y="907"/>
      <point x="651" y="874"/>
      <point x="651" y="748" type="curve" smooth="yes"/>
      <point x="651" y="532"/>
      <point x="584" y="225"/>
    </contour>
  </outline>
</glyph>
<glyph name="uni029D" format="2">
  <advance width="516"/>
  <unicode hex="029D"/>
  <anchor x="39" y="-492" name="bottom"/>
  <anchor x="479" y="1589" name="top"/>
  <outline>
    <contour>
      <point x="-166" y="-492" type="curve" smooth="yes"/>
      <point x="98" y="-492"/>
      <point x="223" y="-326"/>
      <point x="270" y="-147" type="curve"/>
      <point x="422" y="-147" type="line"/>
      <point x="457" y="33" type="line"/>
      <point x="309" y="35" type="line"/>
      <point x="543" y="1133" type="line"/>
      <point x="217" y="1133" type="line"/>
      <point x="-14" y="37" type="line"/>
      <point x="-47" y="37" type="line" smooth="yes"/>
      <point x="-276" y="37"/>
      <point x="-430" y="-45"/>
      <point x="-430" y="-268" type="curve" smooth="yes"/>
      <point x="-430" y="-401"/>
      <point x="-334" y="-492"/>
    </contour>
    <contour>
      <point x="-176" y="-311" type="curve" smooth="yes"/>
      <point x="-205" y="-311"/>
      <point x="-225" y="-291"/>
      <point x="-225" y="-250" type="curve" smooth="yes"/>
      <point x="-225" y="-188"/>
      <point x="-186" y="-147"/>
      <point x="-96" y="-147" type="curve" smooth="yes"/>
      <point x="-51" y="-147" type="line"/>
      <point x="-82" y="-279"/>
      <point x="-119" y="-311"/>
    </contour>
    <contour>
      <point x="412" y="1243" type="curve" smooth="yes"/>
      <point x="537" y="1243"/>
      <point x="621" y="1339"/>
      <point x="621" y="1464" type="curve" smooth="yes"/>
      <point x="621" y="1548"/>
      <point x="565" y="1589"/>
      <point x="469" y="1589" type="curve" smooth="yes"/>
      <point x="322" y="1589"/>
      <point x="260" y="1468"/>
      <point x="260" y="1368" type="curve" smooth="yes"/>
      <point x="260" y="1284"/>
      <point x="311" y="1243"/>
    </contour>
  </outline>
</glyph>
<glyph name="uni02A4" format="2">
  <advance width="1769"/>
  <unicode hex="02A4"/>
  <anchor x="666" y="-492" name="bottom"/>
  <anchor x="1100" y="1556" name="top"/>
  <outline>
    <contour>
      <point x="1034" y="-492" type="curve" smooth="yes"/>
      <point x="1372" y="-492"/>
      <point x="1612" y="-229"/>
      <point x="1612" y="131" type="curve" smooth="yes"/>
      <point x="1612" y="317"/>
      <point x="1538" y="469"/>
      <point x="1356" y="512" type="curve"/>
      <point x="1737" y="918" type="line"/>
      <point x="1782" y="1133" type="line"/>
      <point x="1026" y="1133" type="line"/>
      <point x="1116" y="1556" type="line"/>
      <point x="788" y="1556" type="line"/>
      <point x="713" y="1204" type="line" smooth="yes"/>
      <point x="705" y="1169"/>
      <point x="694" y="1102"/>
      <point x="686" y="1024" type="curve"/>
      <point x="680" y="1024" type="line"/>
      <point x="637" y="1118"/>
      <point x="551" y="1153"/>
      <point x="457" y="1153" type="curve" smooth="yes"/>
      <point x="168" y="1153"/>
      <point x="29" y="596"/>
      <point x="29" y="319" type="curve" smooth="yes"/>
      <point x="29" y="111"/>
      <point x="119" y="-20"/>
      <point x="264" y="-20" type="curve" smooth="yes"/>
      <point x="369" y="-20"/>
      <point x="422" y="29"/>
      <point x="502" y="117" type="curve"/>
      <point x="510" y="117" type="line"/>
      <point x="518" y="0" type="line"/>
      <point x="784" y="0" type="line"/>
      <point x="967" y="856" type="line"/>
      <point x="1309" y="856" type="line"/>
      <point x="1010" y="526" type="line"/>
      <point x="958" y="289" type="line"/>
      <point x="1110" y="289" type="line" smooth="yes"/>
      <point x="1221" y="289"/>
      <point x="1284" y="246"/>
      <point x="1284" y="123" type="curve" smooth="yes"/>
      <point x="1284" y="-66"/>
      <point x="1194" y="-201"/>
      <point x="997" y="-201" type="curve" smooth="yes"/>
      <point x="911" y="-201"/>
      <point x="791" y="-154"/>
      <point x="709" y="-82" type="curve"/>
      <point x="709" y="-416" type="line"/>
      <point x="795" y="-469"/>
      <point x="881" y="-492"/>
    </contour>
    <contour>
      <point x="412" y="256" type="curve" smooth="yes"/>
      <point x="383" y="256"/>
      <point x="367" y="295"/>
      <point x="367" y="371" type="curve" smooth="yes"/>
      <point x="367" y="469"/>
      <point x="428" y="868"/>
      <point x="545" y="868" type="curve" smooth="yes"/>
      <point x="586" y="868"/>
      <point x="606" y="834"/>
      <point x="606" y="758" type="curve" smooth="yes"/>
      <point x="606" y="604"/>
      <point x="532" y="256"/>
    </contour>
  </outline>
</glyph>
<glyph name="ring" format="2">
  <advance width="686"/>
  <unicode hex="02DA"/>
  <outline>
    <contour>
      <point x="541" y="1239" type="curve" smooth="yes"/>
      <point x="698" y="1239"/>
      <point x="795" y="1346"/>
      <point x="795" y="1495" type="curve" smooth="yes"/>
      <point x="795" y="1642"/>
      <point x="682" y="1739"/>
      <point x="541" y="1739" type="curve" smooth="yes"/>
      <point x="385" y="1739"/>
      <point x="285" y="1640"/>
      <point x="285" y="1491" type="curve" smooth="yes"/>
      <point x="285" y="1337"/>
      <point x="379" y="1239"/>
    </contour>
    <contour>
      <point x="541" y="1399" type="curve" smooth="yes"/>
      <point x="477" y="1399"/>
      <point x="449" y="1434"/>
      <point x="449" y="1489" type="curve" smooth="yes"/>
      <point x="449" y="1542"/>
      <point x="483" y="1581"/>
      <point x="541" y="1581" type="curve" smooth="yes"/>
      <point x="596" y="1581"/>
      <point x="631" y="1542"/>
      <point x="631" y="1489" type="curve" smooth="yes"/>
      <point x="631" y="1434"/>
      <point x="594" y="1399"/>
    </contour>
  </outline>
</glyph>
<glyph name="breveinvertedcomb" format="2">
  <unicode hex="0311"/>
  <anchor x="80" y="1085" name="_top"/>
  <anchor x="158" y="1612" name="top"/>
  <outline>
    <contour>
      <point x="-162" y="1241" type="curve"/>
      <point x="41" y="1241" type="line"/>
      <point x="66" y="1346"/>
      <point x="113" y="1382"/>
      <point x="178" y="1382" type="curve" smooth="yes"/>
      <point x="242" y="1382"/>
      <point x="254" y="1321"/>
      <point x="254" y="1241" type="curve"/>
      <point x="453" y="1241" type="line"/>
      <point x="461" y="1288"/>
      <point x="467" y="1331"/>
      <point x="467" y="1368" type="curve" smooth="yes"/>
      <point x="467" y="1511"/>
      <point x="393" y="1612"/>
      <point x="197" y="1612" type="curve" smooth="yes"/>
      <point x="18" y="1612"/>
      <point x="-119" y="1481"/>
    </contour>
  </outline>
</glyph>
<glyph name="dblarchinvertedbelowcomb" format="2">
  <unicode hex="032B"/>
  <anchor x="-92" y="0" name="_bottom"/>
  <anchor x="-141" y="-360" name="bottom"/>
  <outline>
    <contour>
      <point x="-324" y="-358" type="curve"/>
      <point x="-248" y="-358"/>
      <point x="-215" y="-340"/>
      <point x="-176" y="-287" type="curve"/>
      <point x="-158" y="-336"/>
      <point x="-102" y="-360"/>
      <point x="-43" y="-360" type="curve"/>
      <point x="66" y="-360"/>
      <point x="145" y="-295"/>
      <point x="178" y="-125" type="curve"/>
      <point x="78" y="-125" type="line"/>
      <point x="59" y="-217"/>
      <point x="16" y="-260"/>
      <point x="-39" y="-260" type="curve"/>
      <point x="-84" y="-260"/>
      <point x="-106" y="-236"/>
      <point x="-106" y="-180" type="curve" smooth="yes"/>
      <point x="-106" y="-164"/>
      <point x="-104" y="-145"/>
      <point x="-100" y="-125" type="curve"/>
      <point x="-182" y="-125" type="line"/>
      <point x="-201" y="-217"/>
      <point x="-248" y="-260"/>
      <point x="-301" y="-260" type="curve"/>
      <point x="-346" y="-260"/>
      <point x="-367" y="-236"/>
      <point x="-367" y="-186" type="curve" smooth="yes"/>
      <point x="-367" y="-170"/>
      <point x="-362" y="-150"/>
      <point x="-358" y="-125" type="curve"/>
      <point x="-459" y="-125" type="line"/>
      <point x="-465" y="-154"/>
      <point x="-467" y="-178"/>
      <point x="-467" y="-203" type="curve" smooth="yes"/>
      <point x="-467" y="-307"/>
      <point x="-399" y="-358"/>
    </contour>
  </outline>
</glyph>
<glyph name="tildeverticalcomb" format="2">
  <unicode hex="033E"/>
  <anchor x="117" y="1085" name="_top"/>
  <anchor x="203" y="1769" name="top"/>
  <outline>
    <contour>
      <point x="20" y="1176" type="line"/>
      <point x="176" y="1178"/>
      <point x="264" y="1249"/>
      <point x="285" y="1346" type="curve" smooth="yes"/>
      <point x="307" y="1454"/>
      <point x="233" y="1534"/>
      <point x="248" y="1593" type="curve" smooth="yes"/>
      <point x="256" y="1632"/>
      <point x="293" y="1663"/>
      <point x="354" y="1663" type="curve"/>
      <point x="377" y="1769" type="line"/>
      <point x="225" y="1767"/>
      <point x="133" y="1698"/>
      <point x="113" y="1602" type="curve"/>
      <point x="92" y="1499"/>
      <point x="166" y="1421"/>
      <point x="150" y="1352" type="curve" smooth="yes"/>
      <point x="141" y="1313"/>
      <point x="102" y="1284"/>
      <point x="43" y="1282" type="curve"/>
    </contour>
  </outline>
</glyph>
<glyph name="Heta" format="2">
  <advance width="748"/>
  <unicode hex="0370"/>
  <anchor x="260" y="0" name="bottom"/>
  <anchor x="569" y="1462" name="top"/>
  <outline>
    <contour>
      <point x="-10" y="0" type="line"/>
      <point x="332" y="0" type="line"/>
      <point x="461" y="610" type="line"/>
      <point x="713" y="610" type="line"/>
      <point x="776" y="909" type="line"/>
      <point x="524" y="909" type="line"/>
      <point x="641" y="1462" type="line"/>
      <point x="299" y="1462" type="line"/>
    </contour>
  </outline>
</glyph>
<glyph name="Lambda" format="2">
  <advance width="1063"/>
  <unicode hex="039B"/>
  <anchor x="418" y="0" name="bottom"/>
  <anchor x="727" y="1462" name="top"/>
  <outline>
    <contour>
      <point x="-119" y="0" type="line"/>
      <point x="240" y="0" type="line"/>
      <point x="535" y="731" type="line" smooth="yes"/>
      <point x="549" y="768"/>
      <point x="569" y="821"/>
      <point x="608" y="932" type="curve"/>
      <point x="602" y="866"/>
      <point x="600" y="784"/>
      <point x="598" y="727" type="curve" smooth="yes"/>
      <point x="582" y="0" type="line"/>
      <point x="944" y="0" type="line"/>
      <point x="920" y="1468" type="line"/>
      <point x="526" y="1468" type="line"/>
    </contour>
  </outline>
</glyph>
<glyph name="delta" format="2">
  <advance width="965"/>
  <unicode hex="03B4"/>
  <anchor x="369" y="0" name="bottom"/>
  <anchor x="702" y="1575" name="top"/>
  <outline>
    <contour>
      <point x="389" y="-20" type="curve" smooth="yes"/>
      <point x="727" y="-20"/>
      <point x="905" y="250"/>
      <point x="905" y="602" type="curve" smooth="yes"/>
      <point x="905" y="741"/>
      <point x="862" y="864"/>
      <point x="768" y="981" type="curve" smooth="yes"/>
      <point x="709" y="1055"/>
      <point x="608" y="1130"/>
      <point x="608" y="1206" type="curve" smooth="yes"/>
      <point x="608" y="1268"/>
      <point x="643" y="1298"/>
      <point x="700" y="1298" type="curve" smooth="yes"/>
      <point x="760" y="1298"/>
      <point x="844" y="1276"/>
      <point x="942" y="1200" type="curve"/>
      <point x="1094" y="1458" type="line"/>
      <point x="1008" y="1528"/>
      <point x="870" y="1575"/>
      <point x="709" y="1575" type="curve" smooth="yes"/>
      <point x="459" y="1575"/>
      <point x="281" y="1419"/>
      <point x="281" y="1190" type="curve" smooth="yes"/>
      <point x="281" y="1065"/>
      <point x="324" y="981"/>
      <point x="397" y="899" type="curve"/>
      <point x="168" y="813"/>
      <point x="14" y="600"/>
      <point x="14" y="356" type="curve" smooth="yes"/>
      <point x="14" y="119"/>
      <point x="127" y="-20"/>
    </contour>
    <contour>
      <point x="414" y="256" type="curve" smooth="yes"/>
      <point x="371" y="256"/>
      <point x="352" y="303"/>
      <point x="352" y="365" type="curve" smooth="yes"/>
      <point x="352" y="479"/>
      <point x="434" y="698"/>
      <point x="516" y="743" type="curve"/>
      <point x="547" y="702"/>
      <point x="565" y="653"/>
      <point x="565" y="578" type="curve" smooth="yes"/>
      <point x="565" y="487"/>
      <point x="516" y="256"/>
    </contour>
  </outline>
</glyph>
<glyph name="epsilon" format="2">
  <advance width="860"/>
  <unicode hex="03B5"/>
  <anchor x="315" y="0" name="bottom"/>
  <anchor x="545" y="1085" name="top"/>
  <outline>
    <contour>
      <point x="356" y="-20" type="curve" smooth="yes"/>
      <point x="465" y="-20"/>
      <point x="596" y="4"/>
      <point x="705" y="63" type="curve"/>
      <point x="705" y="332" type="line"/>
      <point x="608" y="281"/>
      <point x="522" y="256"/>
      <point x="451" y="256" type="curve" smooth="yes"/>
      <point x="362" y="256"/>
      <point x="340" y="287"/>
      <point x="340" y="336" type="curve" smooth="yes"/>
      <point x="340" y="424"/>
      <point x="420" y="461"/>
      <point x="516" y="461" type="curve" smooth="yes"/>
      <point x="623" y="461" type="line"/>
      <point x="674" y="702" type="line"/>
      <point x="584" y="702" type="line"/>
      <point x="504" y="702"/>
      <point x="467" y="719"/>
      <point x="467" y="774" type="curve" smooth="yes"/>
      <point x="467" y="842"/>
      <point x="508" y="883"/>
      <point x="575" y="883" type="curve" smooth="yes"/>
      <point x="631" y="883"/>
      <point x="707" y="860"/>
      <point x="770" y="809" type="curve"/>
      <point x="913" y="1051" type="line"/>
      <point x="803" y="1126"/>
      <point x="686" y="1153"/>
      <point x="555" y="1153" type="curve" smooth="yes"/>
      <point x="317" y="1153"/>
      <point x="154" y="1012"/>
      <point x="154" y="823" type="curve" smooth="yes"/>
      <point x="154" y="690"/>
      <point x="203" y="625"/>
      <point x="270" y="598" type="curve"/>
      <point x="270" y="588" type="line"/>
      <point x="78" y="551"/>
      <point x="-6" y="387"/>
      <point x="-6" y="262" type="curve" smooth="yes"/>
      <point x="-6" y="66"/>
      <point x="117" y="-20"/>
    </contour>
  </outline>
</glyph>
<glyph name="upsilon" format="2">
  <advance width="1014"/>
  <unicode hex="03C5"/>
  <anchor x="393" y="0" name="bottom"/>
  <anchor x="623" y="1085" name="top"/>
  <outline>
    <contour>
      <point x="403" y="-16" type="curve" smooth="yes"/>
      <point x="883" y="-16"/>
      <point x="995" y="612"/>
      <point x="999" y="1133" type="curve"/>
      <point x="674" y="1133" type="line"/>
      <point x="664" y="842"/>
      <point x="594" y="274"/>
      <point x="438" y="274" type="curve" smooth="yes"/>
      <point x="406" y="274"/>
      <point x="387" y="299"/>
      <point x="387" y="365" type="curve" smooth="yes"/>
      <point x="387" y="393"/>
      <point x="393" y="444"/>
      <point x="401" y="481" type="curve" smooth="yes"/>
      <point x="539" y="1133" type="line"/>
      <point x="211" y="1133" type="line"/>
      <point x="86" y="539" type="line" smooth="yes"/>
      <point x="68" y="455"/>
      <point x="57" y="375"/>
      <point x="57" y="311" type="curve" smooth="yes"/>
      <point x="57" y="102"/>
      <point x="158" y="-16"/>
    </contour>
  </outline>
</glyph>
<glyph name="uni03DC" format="2">
  <advance width="864"/>
  <unicode hex="03DC"/>
  <anchor x="317" y="0" name="bottom"/>
  <anchor x="627" y="1462" name="top"/>
  <outline>
    <contour>
      <point x="-10" y="0" type="line"/>
      <point x="332" y="0" type="line"/>
      <point x="449" y="559" type="line"/>
      <point x="551" y="559" type="line"/>
      <point x="512" y="379" type="line"/>
      <point x="745" y="379" type="line"/>
      <point x="848" y="854" type="line"/>
      <point x="512" y="854" type="line"/>
      <point x="580" y="1167" type="line"/>
      <point x="948" y="1167" type="line"/>
      <point x="1010" y="1462" type="line"/>
      <point x="299" y="1462" type="line"/>
    </contour>
  </outline>
</glyph>
<glyph name="uni03DF" format="2">
  <advance width="981"/>
  <unicode hex="03DF"/>
  <anchor x="272" y="-492" name="bottom"/>
  <anchor x="709" y="1567" name="top"/>
  <outline>
    <contour>
      <point x="664" y="-492" type="curve" smooth="yes"/>
      <point x="719" y="-492"/>
      <point x="774" y="-481"/>
      <point x="815" y="-465" type="curve"/>
      <point x="815" y="-195" type="line"/>
      <point x="791" y="-203"/>
      <point x="766" y="-209"/>
      <point x="741" y="-209" type="curve" smooth="yes"/>
      <point x="711" y="-209"/>
      <point x="686" y="-182"/>
      <point x="686" y="-113" type="curve" smooth="yes"/>
      <point x="686" y="-72"/>
      <point x="702" y="4"/>
      <point x="737" y="100" type="curve" smooth="yes"/>
      <point x="903" y="561" type="line"/>
      <point x="903" y="768" type="line"/>
      <point x="430" y="682" type="line"/>
      <point x="524" y="924" type="line" smooth="yes"/>
      <point x="567" y="1032"/>
      <point x="602" y="1155"/>
      <point x="602" y="1239" type="curve" smooth="yes"/>
      <point x="602" y="1446"/>
      <point x="506" y="1567"/>
      <point x="297" y="1567" type="curve" smooth="yes"/>
      <point x="242" y="1567"/>
      <point x="166" y="1550"/>
      <point x="125" y="1534" type="curve"/>
      <point x="145" y="1270" type="line"/>
      <point x="170" y="1278"/>
      <point x="195" y="1284"/>
      <point x="219" y="1284" type="curve" smooth="yes"/>
      <point x="250" y="1284"/>
      <point x="274" y="1257"/>
      <point x="274" y="1188" type="curve" smooth="yes"/>
      <point x="274" y="1147"/>
      <point x="258" y="1071"/>
      <point x="223" y="975" type="curve" smooth="yes"/>
      <point x="70" y="549" type="line"/>
      <point x="70" y="352" type="line"/>
      <point x="547" y="440" type="line"/>
      <point x="436" y="152" type="line" smooth="yes"/>
      <point x="393" y="43"/>
      <point x="358" y="-80"/>
      <point x="358" y="-164" type="curve" smooth="yes"/>
      <point x="358" y="-371"/>
      <point x="455" y="-492"/>
    </contour>
  </outline>
</glyph>
<glyph name="afii10028" format="2">
  <advance width="1067"/>
  <unicode hex="041A"/>
  <anchor x="420" y="0" name="bottom"/>
  <anchor x="729" y="1462" name="top"/>
  <outline>
    <contour>
      <point x="-10" y="0" type="line"/>
      <point x="332" y="0" type="line"/>
      <point x="487" y="743" type="line"/>
      <point x="608" y="0" type="line"/>
      <point x="967" y="0" type="line"/>
      <point x="815" y="750" type="line"/>
      <point x="1280" y="1462" type="line"/>
      <point x="911" y="1462" type="line"/>
      <point x="492" y="764" type="line"/>
      <point x="641" y="1462" type="line"/>
      <point x="299" y="1462" type="line"/>
    </contour>
  </outline>
</glyph>
<glyph name="afii10091" format="2">
  <advance width="1554"/>
  <unicode hex="0449"/>
  <anchor x="664" y="0" name="bottom"/>
  <anchor x="893" y="1085" name="top"/>
  <outline>
    <contour>
      <point x="989" y="-416" type="line"/>
      <point x="1307" y="-416" type="line"/>
      <point x="1454" y="279" type="line"/>
      <point x="1423" y="268"/>
      <point x="1403" y="266"/>
      <point x="1389" y="266" type="curve" smooth="yes"/>
      <point x="1370" y="266"/>
      <point x="1346" y="272"/>
      <point x="1346" y="311" type="curve"/>
      <point x="1346" y="328"/>
      <point x="1352" y="365"/>
      <point x="1358" y="387" type="curve"/>
      <point x="1516" y="1133" type="line"/>
      <point x="1188" y="1133" type="line"/>
      <point x="1061" y="532" type="line" smooth="yes"/>
      <point x="1040" y="436"/>
      <point x="995" y="274"/>
      <point x="920" y="274" type="curve" smooth="yes"/>
      <point x="889" y="274"/>
      <point x="874" y="297"/>
      <point x="874" y="346" type="curve" smooth="yes"/>
      <point x="874" y="383"/>
      <point x="883" y="444"/>
      <point x="897" y="506" type="curve" smooth="yes"/>
      <point x="1030" y="1133" type="line"/>
      <point x="700" y="1133" type="line"/>
      <point x="573" y="532" type="line" smooth="yes"/>
      <point x="553" y="434"/>
      <point x="510" y="274"/>
      <point x="436" y="274" type="curve" smooth="yes"/>
      <point x="401" y="274"/>
      <point x="389" y="299"/>
      <point x="389" y="350" type="curve" smooth="yes"/>
      <point x="389" y="387"/>
      <point x="395" y="444"/>
      <point x="410" y="506" type="curve" smooth="yes"/>
      <point x="543" y="1133" type="line"/>
      <point x="215" y="1133" type="line"/>
      <point x="61" y="412" type="line" smooth="yes"/>
      <point x="47" y="342"/>
      <point x="39" y="281"/>
      <point x="39" y="229" type="curve" smooth="yes"/>
      <point x="39" y="72"/>
      <point x="119" y="-20"/>
      <point x="266" y="-20" type="curve" smooth="yes"/>
      <point x="365" y="-20"/>
      <point x="461" y="37"/>
      <point x="526" y="119" type="curve"/>
      <point x="532" y="119" type="line"/>
      <point x="571" y="25"/>
      <point x="641" y="-20"/>
      <point x="760" y="-20" type="curve" smooth="yes"/>
      <point x="860" y="-20"/>
      <point x="950" y="39"/>
      <point x="1012" y="129" type="curve"/>
      <point x="1018" y="129" type="line"/>
      <point x="1026" y="82"/>
      <point x="1044" y="47"/>
      <point x="1081" y="20" type="curve"/>
    </contour>
  </outline>
</glyph>
<glyph name="afii10101" format="2">
  <advance width="829"/>
  <unicode hex="0454"/>
  <anchor x="301" y="0" name="bottom"/>
  <anchor x="530" y="1085" name="top"/>
  <outline>
    <contour>
      <point x="367" y="-20" type="curve" smooth="yes"/>
      <point x="475" y="-20"/>
      <point x="610" y="23"/>
      <point x="692" y="82" type="curve"/>
      <point x="692" y="346" type="line"/>
      <point x="602" y="281"/>
      <point x="518" y="250"/>
      <point x="455" y="250" type="curve" smooth="yes"/>
      <point x="406" y="250"/>
      <point x="371" y="295"/>
      <point x="371" y="385" type="curve" smooth="yes"/>
      <point x="371" y="399"/>
      <point x="371" y="426"/>
      <point x="371" y="440" type="curve"/>
      <point x="629" y="440" type="line"/>
      <point x="680" y="686" type="line"/>
      <point x="420" y="686" type="line"/>
      <point x="444" y="758"/>
      <point x="510" y="885"/>
      <point x="598" y="885" type="curve" smooth="yes"/>
      <point x="647" y="885"/>
      <point x="719" y="858"/>
      <point x="758" y="819" type="curve"/>
      <point x="891" y="1065" type="line"/>
      <point x="809" y="1124"/>
      <point x="707" y="1153"/>
      <point x="594" y="1153" type="curve" smooth="yes"/>
      <point x="182" y="1153"/>
      <point x="33" y="690"/>
      <point x="33" y="348" type="curve" smooth="yes"/>
      <point x="33" y="123"/>
      <point x="158" y="-20"/>
    </contour>
  </outline>
</glyph>
<glyph name="uni0467" format="2">
  <advance width="1106"/>
  <unicode hex="0467"/>
  <anchor x="438" y="0" name="bottom"/>
  <anchor x="668" y="1133" name="top"/>
  <outline>
    <contour>
      <point x="-121" y="0" type="line"/>
      <point x="201" y="0" type="line"/>
      <point x="367" y="350" type="line"/>
      <point x="369" y="350" type="line"/>
      <point x="295" y="0" type="line"/>
      <point x="578" y="0" type="line"/>
      <point x="649" y="350" type="line"/>
      <point x="651" y="350" type="line"/>
      <point x="666" y="0" type="line"/>
      <point x="991" y="0" type="line"/>
      <point x="883" y="1133" type="line"/>
      <point x="473" y="1133" type="line"/>
    </contour>
    <contour>
      <point x="508" y="631" type="line"/>
      <point x="582" y="793"/>
      <point x="598" y="831"/>
      <point x="621" y="897" type="curve"/>
      <point x="621" y="854"/>
      <point x="623" y="784"/>
      <point x="631" y="631" type="curve"/>
    </contour>
  </outline>
</glyph>
<glyph name="uni046A" format="2">
  <advance width="1343"/>
  <unicode hex="046A"/>
  <anchor x="557" y="0" name="bottom"/>
  <anchor x="866" y="1462" name="top"/>
  <outline>
    <contour>
      <point x="-113" y="0" type="line"/>
      <point x="248" y="0" type="line"/>
      <point x="440" y="446" type="line" smooth="yes"/>
      <point x="479" y="537"/>
      <point x="504" y="584"/>
      <point x="516" y="584" type="curve" smooth="yes"/>
      <point x="520" y="584" type="line"/>
      <point x="395" y="0" type="line"/>
      <point x="711" y="0" type="line"/>
      <point x="834" y="584" type="line"/>
      <point x="836" y="584" type="line" smooth="yes"/>
      <point x="848" y="584"/>
      <point x="856" y="543"/>
      <point x="856" y="446" type="curve" smooth="yes"/>
      <point x="858" y="0" type="line"/>
      <point x="1221" y="0" type="line"/>
      <point x="1200" y="453" type="line" smooth="yes"/>
      <point x="1190" y="672"/>
      <point x="1143" y="829"/>
      <point x="1022" y="856" type="curve"/>
      <point x="1360" y="1292" type="line"/>
      <point x="1397" y="1462" type="line"/>
      <point x="336" y="1462" type="line"/>
      <point x="299" y="1290" type="line"/>
      <point x="442" y="856" type="line"/>
      <point x="272" y="801"/>
      <point x="209" y="684"/>
      <point x="102" y="453" type="curve" smooth="yes"/>
    </contour>
    <contour>
      <point x="745" y="915" type="line"/>
      <point x="682" y="1186" type="line"/>
      <point x="924" y="1186" type="line"/>
    </contour>
  </outline>
</glyph>
<glyph name="uni046B" format="2">
  <advance width="1133"/>
  <unicode hex="046B"/>
  <anchor x="453" y="0" name="bottom"/>
  <anchor x="682" y="1133" name="top"/>
  <outline>
    <contour>
      <point x="-109" y="0" type="line"/>
      <point x="209" y="0" type="line"/>
      <point x="350" y="360" type="line" smooth="yes"/>
      <point x="371" y="414"/>
      <point x="383" y="432"/>
      <point x="397" y="432" type="curve"/>
      <point x="305" y="0" type="line"/>
      <point x="588" y="0" type="line"/>
      <point x="680" y="434" type="line"/>
      <point x="690" y="434"/>
      <point x="696" y="430"/>
      <point x="694" y="360" type="curve" smooth="yes"/>
      <point x="686" y="0" type="line"/>
      <point x="1004" y="0" type="line"/>
      <point x="997" y="352" type="line" smooth="yes"/>
      <point x="995" y="489"/>
      <point x="963" y="608"/>
      <point x="838" y="649" type="curve"/>
      <point x="1110" y="987" type="line"/>
      <point x="1141" y="1133" type="line"/>
      <point x="227" y="1133" type="line"/>
      <point x="197" y="985" type="line"/>
      <point x="332" y="651" type="line"/>
      <point x="190" y="616"/>
      <point x="111" y="518"/>
      <point x="41" y="352" type="curve" smooth="yes"/>
    </contour>
    <contour>
      <point x="596" y="709" type="line"/>
      <point x="535" y="901" type="line"/>
      <point x="737" y="901" type="line"/>
    </contour>
  </outline>
</glyph>
<glyph name="uni047D" format="2">
  <advance width="1411"/>
  <unicode hex="047D"/>
  <outline>
    <contour>
      <point x="594" y="1645" type="curve"/>
      <point x="801" y="1645" type="line"/>
      <point x="813" y="1708"/>
      <point x="838" y="1749"/>
      <point x="864" y="1749" type="curve" smooth="yes"/>
      <point x="895" y="1749"/>
      <point x="1024" y="1645"/>
      <point x="1163" y="1645" type="curve" smooth="yes"/>
      <point x="1208" y="1645" type="line"/>
      <point x="1257" y="1872" type="line"/>
      <point x="1229" y="1872" type="line" smooth="yes"/>
      <point x="1055" y="1872"/>
      <point x="989" y="1995"/>
      <point x="864" y="1995" type="curve" smooth="yes"/>
      <point x="680" y="1995"/>
      <point x="623" y="1808"/>
    </contour>
    <contour>
      <point x="698" y="1184" type="line"/>
      <point x="920" y="1192"/>
      <point x="1065" y="1292"/>
      <point x="1065" y="1454" type="curve" smooth="yes"/>
      <point x="1065" y="1561"/>
      <point x="1001" y="1620"/>
      <point x="915" y="1620" type="curve" smooth="yes"/>
      <point x="817" y="1620"/>
      <point x="768" y="1559"/>
      <point x="768" y="1501" type="curve" smooth="yes"/>
      <point x="768" y="1462"/>
      <point x="786" y="1444"/>
      <point x="807" y="1427" type="curve" smooth="yes"/>
      <point x="831" y="1409"/>
      <point x="860" y="1399"/>
      <point x="860" y="1368" type="curve" smooth="yes"/>
      <point x="860" y="1307"/>
      <point x="750" y="1298"/>
      <point x="698" y="1294" type="curve"/>
    </contour>
    <component base="uniA64D"/>
  </outline>
</glyph>
<glyph name="uni0496" format="2">
  <advance width="1671"/>
  <unicode hex="0496"/>
  <anchor x="625" y="-455" name="bottom"/>
  <anchor x="1030" y="1462" name="top"/>
  <outline>
    <contour>
      <point x="1085" y="-455" type="line"/>
      <point x="1417" y="-455" type="line"/>
      <point x="1579" y="299" type="line"/>
      <point x="1403" y="299" type="line"/>
      <point x="1311" y="750" type="line"/>
      <point x="1776" y="1462" type="line"/>
      <point x="1409" y="1462" type="line"/>
      <point x="989" y="764" type="line"/>
      <point x="1139" y="1462" type="line"/>
      <point x="807" y="1462" type="line"/>
      <point x="659" y="764" type="line"/>
      <point x="520" y="1462" type="line"/>
      <point x="170" y="1462" type="line"/>
      <point x="334" y="774" type="line"/>
      <point x="-137" y="0" type="line"/>
      <point x="236" y="0" type="line"/>
      <point x="655" y="745" type="line"/>
      <point x="498" y="0" type="line"/>
      <point x="827" y="0" type="line"/>
      <point x="985" y="743" type="line"/>
      <point x="1106" y="0" type="line"/>
      <point x="1182" y="0" type="line"/>
    </contour>
  </outline>
</glyph>
<glyph name="uni04A2" format="2">
  <advance width="1243"/>
  <unicode hex="04A2"/>
  <anchor x="412" y="-455" name="bottom"/>
  <anchor x="817" y="1462" name="top"/>
  <outline>
    <contour>
      <point x="668" y="-455" type="line"/>
      <point x="999" y="-455" type="line"/>
      <point x="1161" y="299" type="line"/>
      <point x="989" y="299" type="line"/>
      <point x="1237" y="1462" type="line"/>
      <point x="895" y="1462" type="line"/>
      <point x="776" y="909" type="line"/>
      <point x="524" y="909" type="line"/>
      <point x="641" y="1462" type="line"/>
      <point x="299" y="1462" type="line"/>
      <point x="-10" y="0" type="line"/>
      <point x="332" y="0" type="line"/>
      <point x="461" y="610" type="line"/>
      <point x="713" y="610" type="line"/>
      <point x="584" y="0" type="line"/>
      <point x="764" y="0" type="line"/>
    </contour>
  </outline>
</glyph>
<glyph name="uni04B0" format="2">
  <advance width="1001"/>
  <unicode hex="04B0"/>
  <anchor x="387" y="0" name="bottom"/>
  <anchor x="696" y="1462" name="top"/>
  <outline>
    <contour>
      <point x="211" y="0" type="line"/>
      <point x="553" y="0" type="line"/>
      <point x="606" y="256" type="line"/>
      <point x="831" y="256" type="line"/>
      <point x="893" y="543" type="line"/>
      <point x="668" y="543" type="line"/>
      <point x="672" y="561" type="line"/>
      <point x="1190" y="1462" type="line"/>
      <point x="823" y="1462" type="line"/>
      <point x="586" y="993" type="line"/>
      <point x="547" y="1462" type="line"/>
      <point x="190" y="1462" type="line"/>
      <point x="328" y="555" type="line"/>
      <point x="324" y="543" type="line"/>
      <point x="100" y="543" type="line"/>
      <point x="39" y="256" type="line"/>
      <point x="264" y="256" type="line"/>
    </contour>
  </outline>
</glyph>
<glyph name="uni04B3" format="2">
  <advance width="1001"/>
  <unicode hex="04B3"/>
  <anchor x="299" y="-416" name="bottom"/>
  <anchor x="616" y="1085" name="top"/>
  <outline>
    <contour>
      <point x="453" y="-416" type="line"/>
      <point x="772" y="-416" type="line"/>
      <point x="920" y="276" type="line"/>
      <point x="750" y="276" type="line"/>
      <point x="682" y="578" type="line"/>
      <point x="1042" y="1133" type="line"/>
      <point x="684" y="1133" type="line"/>
      <point x="532" y="862" type="line"/>
      <point x="498" y="1133" type="line"/>
      <point x="137" y="1133" type="line"/>
      <point x="266" y="578" type="line"/>
      <point x="-109" y="0" type="line"/>
      <point x="244" y="0" type="line"/>
      <point x="410" y="295" type="line"/>
      <point x="453" y="0" type="line"/>
      <point x="543" y="0" type="line"/>
    </contour>
  </outline>
</glyph>
<glyph name="uni04B6" format="2">
  <advance width="1167"/>
  <unicode hex="04B6"/>
  <anchor x="373" y="-455" name="bottom"/>
  <anchor x="778" y="1462" name="top"/>
  <outline>
    <contour>
      <point x="592" y="-455" type="line"/>
      <point x="926" y="-455" type="line"/>
      <point x="1085" y="299" type="line"/>
      <point x="913" y="299" type="line"/>
      <point x="1161" y="1462" type="line"/>
      <point x="819" y="1462" type="line"/>
      <point x="678" y="807" type="line"/>
      <point x="639" y="782"/>
      <point x="580" y="754"/>
      <point x="535" y="754" type="curve" smooth="yes"/>
      <point x="506" y="754"/>
      <point x="489" y="776"/>
      <point x="489" y="834" type="curve" smooth="yes"/>
      <point x="489" y="864"/>
      <point x="496" y="903"/>
      <point x="506" y="952" type="curve" smooth="yes"/>
      <point x="614" y="1462" type="line"/>
      <point x="272" y="1462" type="line"/>
      <point x="154" y="899" type="line" smooth="yes"/>
      <point x="139" y="834"/>
      <point x="129" y="758"/>
      <point x="129" y="715" type="curve" smooth="yes"/>
      <point x="129" y="559"/>
      <point x="201" y="453"/>
      <point x="362" y="453" type="curve" smooth="yes"/>
      <point x="438" y="453"/>
      <point x="528" y="485"/>
      <point x="618" y="520" type="curve"/>
      <point x="508" y="0" type="line"/>
      <point x="690" y="0" type="line"/>
    </contour>
  </outline>
</glyph>
<glyph name="uni04C6" format="2">
  <advance width="1141"/>
  <unicode hex="04C6"/>
  <anchor x="369" y="-416" name="bottom"/>
  <anchor x="686" y="1085" name="top"/>
  <outline>
    <contour>
      <point x="504" y="-416" type="line"/>
      <point x="815" y="-416" type="line"/>
      <point x="1069" y="272" type="line"/>
      <point x="891" y="272" type="line"/>
      <point x="1073" y="1130" type="line"/>
      <point x="965" y="1147"/>
      <point x="874" y="1153"/>
      <point x="739" y="1153" type="curve" smooth="yes"/>
      <point x="381" y="1153"/>
      <point x="293" y="1047"/>
      <point x="160" y="553" type="curve" smooth="yes"/>
      <point x="111" y="369"/>
      <point x="68" y="266"/>
      <point x="-4" y="266" type="curve" smooth="yes"/>
      <point x="-29" y="266"/>
      <point x="-61" y="270"/>
      <point x="-86" y="287" type="curve"/>
      <point x="-86" y="6" type="line"/>
      <point x="-45" y="-14"/>
      <point x="-16" y="-20"/>
      <point x="43" y="-20" type="curve" smooth="yes"/>
      <point x="262" y="-20"/>
      <point x="362" y="162"/>
      <point x="442" y="438" type="curve" smooth="yes"/>
      <point x="551" y="819"/>
      <point x="580" y="870"/>
      <point x="664" y="870" type="curve" smooth="yes"/>
      <point x="672" y="870"/>
      <point x="682" y="870"/>
      <point x="690" y="870" type="curve"/>
      <point x="506" y="0" type="line"/>
      <point x="692" y="0" type="line"/>
    </contour>
  </outline>
</glyph>
<glyph name="uni04C9" format="2">
  <advance width="1266"/>
  <unicode hex="04C9"/>
  <anchor x="422" y="-455" name="bottom"/>
  <anchor x="827" y="1462" name="top"/>
  <outline>
    <contour>
      <point x="539" y="-455" type="line"/>
      <point x="905" y="-455" type="line"/>
      <point x="1200" y="324" type="line"/>
      <point x="993" y="324" type="line"/>
      <point x="1237" y="1462" type="line"/>
      <point x="895" y="1462" type="line"/>
      <point x="776" y="909" type="line"/>
      <point x="524" y="909" type="line"/>
      <point x="641" y="1462" type="line"/>
      <point x="299" y="1462" type="line"/>
      <point x="-10" y="0" type="line"/>
      <point x="332" y="0" type="line"/>
      <point x="461" y="610" type="line"/>
      <point x="713" y="610" type="line"/>
      <point x="584" y="0" type="line"/>
      <point x="774" y="0" type="line"/>
    </contour>
  </outline>
</glyph>
<glyph name="uni0500" format="2">
  <advance width="987"/>
  <unicode hex="0500"/>
  <anchor x="379" y="0" name="bottom"/>
  <anchor x="688" y="1462" name="top"/>
  <outline>
    <contour>
      <point x="403" y="0" type="curve" smooth="yes"/>
      <point x="762" y="0" type="line"/>
      <point x="1071" y="1462" type="line"/>
      <point x="729" y="1462" type="line"/>
      <point x="618" y="942" type="line"/>
      <point x="543" y="942" type="line" smooth="yes"/>
      <point x="215" y="942"/>
      <point x="10" y="670"/>
      <point x="10" y="338" type="curve" smooth="yes"/>
      <point x="20" y="88"/>
      <point x="188" y="0"/>
    </contour>
    <contour>
      <point x="444" y="295" type="line" smooth="yes"/>
      <point x="387" y="295"/>
      <point x="362" y="328"/>
      <point x="362" y="387" type="curve" smooth="yes"/>
      <point x="362" y="518"/>
      <point x="424" y="647"/>
      <point x="532" y="647" type="curve" smooth="yes"/>
      <point x="557" y="647" type="line"/>
      <point x="481" y="295" type="line"/>
    </contour>
  </outline>
</glyph>
<glyph name="uni0506" format="2">
  <advance width="1053"/>
  <unicode hex="0506"/>
  <anchor x="315" y="-455" name="bottom"/>
  <anchor x="721" y="1462" name="top"/>
  <outline>
    <contour>
      <point x="477" y="-455" type="line"/>
      <point x="809" y="-455" type="line"/>
      <point x="969" y="299" type="line"/>
      <point x="799" y="299" type="line"/>
      <point x="823" y="418" type="line"/>
      <point x="825" y="432"/>
      <point x="827" y="449"/>
      <point x="827" y="502" type="curve" smooth="yes"/>
      <point x="827" y="649"/>
      <point x="731" y="743"/>
      <point x="616" y="764" type="curve"/>
      <point x="616" y="772" type="line"/>
      <point x="825" y="815"/>
      <point x="950" y="944"/>
      <point x="950" y="1151" type="curve" smooth="yes"/>
      <point x="950" y="1362"/>
      <point x="819" y="1483"/>
      <point x="592" y="1483" type="curve" smooth="yes"/>
      <point x="420" y="1483"/>
      <point x="281" y="1434"/>
      <point x="137" y="1325" type="curve"/>
      <point x="246" y="1085" type="line"/>
      <point x="311" y="1143"/>
      <point x="391" y="1184"/>
      <point x="483" y="1184" type="curve" smooth="yes"/>
      <point x="555" y="1184"/>
      <point x="588" y="1143"/>
      <point x="588" y="1096" type="curve" smooth="yes"/>
      <point x="588" y="963"/>
      <point x="502" y="909"/>
      <point x="362" y="909" type="curve" smooth="yes"/>
      <point x="246" y="909" type="line"/>
      <point x="182" y="614" type="line"/>
      <point x="311" y="614" type="line" smooth="yes"/>
      <point x="434" y="614"/>
      <point x="494" y="573"/>
      <point x="494" y="489" type="curve" smooth="yes"/>
      <point x="494" y="477"/>
      <point x="492" y="463"/>
      <point x="487" y="449" type="curve" smooth="yes"/>
      <point x="393" y="0" type="line"/>
      <point x="573" y="0" type="line"/>
    </contour>
  </outline>
</glyph>
<glyph name="uni0517" format="2">
  <advance width="1454"/>
  <unicode hex="0517"/>
  <anchor x="502" y="-492" name="bottom"/>
  <anchor x="848" y="1133" name="top"/>
  <outline>
    <contour>
      <point x="-129" y="-492" type="line"/>
      <point x="197" y="-492" type="line"/>
      <point x="289" y="-61" type="line"/>
      <point x="295" y="-27"/>
      <point x="307" y="43"/>
      <point x="315" y="119" type="curve"/>
      <point x="322" y="119" type="line"/>
      <point x="358" y="31"/>
      <point x="430" y="-20"/>
      <point x="520" y="-20" type="curve" smooth="yes"/>
      <point x="709" y="-20"/>
      <point x="840" y="184"/>
      <point x="909" y="395" type="curve"/>
      <point x="973" y="0" type="line"/>
      <point x="1327" y="0" type="line"/>
      <point x="1194" y="578" type="line"/>
      <point x="1554" y="1133" type="line"/>
      <point x="1188" y="1133" type="line"/>
      <point x="971" y="739" type="line"/>
      <point x="971" y="754"/>
      <point x="971" y="768"/>
      <point x="971" y="782" type="curve" smooth="yes"/>
      <point x="971" y="1036"/>
      <point x="870" y="1153"/>
      <point x="735" y="1153" type="curve" smooth="yes"/>
      <point x="641" y="1153"/>
      <point x="563" y="1110"/>
      <point x="485" y="989" type="curve"/>
      <point x="477" y="989" type="line"/>
      <point x="481" y="1133" type="line"/>
      <point x="215" y="1133" type="line"/>
    </contour>
    <contour>
      <point x="455" y="264" type="curve" smooth="yes"/>
      <point x="414" y="264"/>
      <point x="393" y="299"/>
      <point x="393" y="375" type="curve" smooth="yes"/>
      <point x="393" y="510"/>
      <point x="471" y="877"/>
      <point x="588" y="877" type="curve" smooth="yes"/>
      <point x="616" y="877"/>
      <point x="633" y="840"/>
      <point x="633" y="762" type="curve" smooth="yes"/>
      <point x="633" y="604"/>
      <point x="557" y="264"/>
    </contour>
  </outline>
</glyph>
<glyph name="uni0520" format="2">
  <advance width="1696"/>
  <unicode hex="0520"/>
  <anchor x="629" y="-492" name="bottom"/>
  <anchor x="1042" y="1462" name="top"/>
  <outline>
    <contour>
      <point x="979" y="-492" type="curve" smooth="yes"/>
      <point x="1354" y="-492"/>
      <point x="1585" y="-70"/>
      <point x="1585" y="342" type="curve" smooth="yes"/>
      <point x="1585" y="664"/>
      <point x="1458" y="809"/>
      <point x="1243" y="809" type="curve" smooth="yes"/>
      <point x="1200" y="809"/>
      <point x="1155" y="805"/>
      <point x="1116" y="795" type="curve"/>
      <point x="1257" y="1462" type="line"/>
      <point x="465" y="1462" type="line"/>
      <point x="332" y="1016"/>
      <point x="197" y="559"/>
      <point x="150" y="438" type="curve" smooth="yes"/>
      <point x="98" y="303"/>
      <point x="51" y="274"/>
      <point x="6" y="274" type="curve" smooth="yes"/>
      <point x="-10" y="274"/>
      <point x="-45" y="281"/>
      <point x="-80" y="297" type="curve"/>
      <point x="-80" y="2" type="line"/>
      <point x="-45" y="-14"/>
      <point x="4" y="-20"/>
      <point x="47" y="-20" type="curve" smooth="yes"/>
      <point x="238" y="-20"/>
      <point x="319" y="66"/>
      <point x="418" y="270" type="curve" smooth="yes"/>
      <point x="489" y="428"/>
      <point x="631" y="901"/>
      <point x="696" y="1139" type="curve"/>
      <point x="848" y="1139" type="line"/>
      <point x="606" y="0" type="line"/>
      <point x="948" y="0" type="line"/>
      <point x="1055" y="502" type="line"/>
      <point x="1069" y="508"/>
      <point x="1092" y="510"/>
      <point x="1114" y="510" type="curve" smooth="yes"/>
      <point x="1192" y="510"/>
      <point x="1231" y="451"/>
      <point x="1231" y="352" type="curve" smooth="yes"/>
      <point x="1231" y="109"/>
      <point x="1133" y="-193"/>
      <point x="965" y="-193" type="curve" smooth="yes"/>
      <point x="922" y="-193"/>
      <point x="846" y="-176"/>
      <point x="793" y="-145" type="curve"/>
      <point x="793" y="-455" type="line"/>
      <point x="852" y="-483"/>
      <point x="918" y="-492"/>
    </contour>
  </outline>
</glyph>
<glyph name="uni1AB6" format="2">
  <unicode hex="1AB6"/>
  <anchor x="-47" y="0" name="_bottom"/>
  <anchor x="-115" y="-575" name="bottom"/>
  <outline>
    <contour>
      <point x="-1182" y="-575" type="curve"/>
      <point x="-985" y="-575" type="line"/>
      <point x="-965" y="-406"/>
      <point x="-897" y="-326"/>
      <point x="-829" y="-326" type="curve" smooth="yes"/>
      <point x="-690" y="-326"/>
      <point x="-737" y="-575"/>
      <point x="-469" y="-575" type="curve" smooth="yes"/>
      <point x="-197" y="-575"/>
      <point x="-227" y="-326"/>
      <point x="-119" y="-326" type="curve" smooth="yes"/>
      <point x="-10" y="-326"/>
      <point x="-41" y="-575"/>
      <point x="231" y="-575" type="curve" smooth="yes"/>
      <point x="500" y="-575"/>
      <point x="453" y="-326"/>
      <point x="592" y="-326" type="curve" smooth="yes"/>
      <point x="659" y="-326"/>
      <point x="727" y="-406"/>
      <point x="748" y="-575" type="curve"/>
      <point x="944" y="-575" type="line"/>
      <point x="930" y="-285"/>
      <point x="801" y="-106"/>
      <point x="578" y="-106" type="curve" smooth="yes"/>
      <point x="309" y="-106"/>
      <point x="334" y="-356"/>
      <point x="231" y="-356" type="curve" smooth="yes"/>
      <point x="111" y="-356"/>
      <point x="154" y="-106"/>
      <point x="-119" y="-106" type="curve" smooth="yes"/>
      <point x="-391" y="-106"/>
      <point x="-348" y="-356"/>
      <point x="-469" y="-356" type="curve" smooth="yes"/>
      <point x="-571" y="-356"/>
      <point x="-547" y="-106"/>
      <point x="-815" y="-106" type="curve" smooth="yes"/>
      <point x="-1038" y="-106"/>
      <point x="-1167" y="-285"/>
    </contour>
  </outline>
</glyph>
<glyph name="uni1ABA" format="2">
  <unicode hex="1ABA"/>
  <anchor x="-94" y="0" name="_bottom"/>
  <anchor x="-133" y="-492" name="bottom"/>
  <outline>
    <contour>
      <point x="-385" y="-334" type="line"/>
      <point x="-143" y="-334" type="line"/>
      <point x="139" y="82" type="line"/>
      <point x="-102" y="82" type="line"/>
    </contour>
    <contour>
      <point x="-256" y="-492" type="curve" smooth="yes"/>
      <point x="-123" y="-492"/>
      <point x="-51" y="-397"/>
      <point x="-51" y="-289" type="curve" smooth="yes"/>
      <point x="-51" y="-195"/>
      <point x="-100" y="-145"/>
      <point x="-209" y="-145" type="curve" smooth="yes"/>
      <point x="-346" y="-145"/>
      <point x="-414" y="-244"/>
      <point x="-414" y="-350" type="curve" smooth="yes"/>
      <point x="-414" y="-436"/>
      <point x="-360" y="-492"/>
    </contour>
  </outline>
</glyph>
<glyph name="uni1D03" format="2">
  <advance width="981"/>
  <unicode hex="1D03"/>
  <anchor x="338" y="0" name="bottom"/>
  <anchor x="580" y="1133" name="top"/>
  <outline>
    <contour>
      <point x="-10" y="467" type="line"/>
      <point x="954" y="467" type="line"/>
      <point x="1006" y="717" type="line"/>
      <point x="41" y="717" type="line"/>
    </contour>
    <component base="uni0299"/>
  </outline>
</glyph>
<glyph name="uni1D07" format="2">
  <advance width="739"/>
  <unicode hex="1D07"/>
  <anchor x="256" y="0" name="bottom"/>
  <anchor x="485" y="1085" name="top"/>
  <outline>
    <contour>
      <point x="-23" y="0" type="line"/>
      <point x="549" y="0" type="line"/>
      <point x="608" y="276" type="line"/>
      <point x="362" y="276" type="line"/>
      <point x="403" y="453" type="line"/>
      <point x="627" y="453" type="line"/>
      <point x="688" y="727" type="line"/>
      <point x="459" y="727" type="line"/>
      <point x="494" y="872" type="line"/>
      <point x="739" y="872" type="line"/>
      <point x="795" y="1147" type="line"/>
      <point x="225" y="1147" type="line"/>
    </contour>
  </outline>
</glyph>
<glyph name="uni1D10" format="2">
  <advance width="842"/>
  <unicode hex="1D10"/>
  <anchor x="307" y="0" name="bottom"/>
  <anchor x="537" y="1085" name="top"/>
  <outline>
    <contour>
      <point x="246" y="-16" type="curve" smooth="yes"/>
      <point x="578" y="-16"/>
      <point x="793" y="397"/>
      <point x="793" y="795" type="curve" smooth="yes"/>
      <point x="793" y="1012"/>
      <point x="684" y="1163"/>
      <point x="477" y="1163" type="curve" smooth="yes"/>
      <point x="375" y="1163"/>
      <point x="250" y="1143"/>
      <point x="156" y="1096" type="curve"/>
      <point x="156" y="813" type="line"/>
      <point x="227" y="852"/>
      <point x="305" y="883"/>
      <point x="383" y="883" type="curve" smooth="yes"/>
      <point x="420" y="883"/>
      <point x="446" y="860"/>
      <point x="446" y="782" type="curve" smooth="yes"/>
      <point x="446" y="670"/>
      <point x="381" y="262"/>
      <point x="229" y="262" type="curve" smooth="yes"/>
      <point x="184" y="262"/>
      <point x="139" y="285"/>
      <point x="82" y="328" type="curve"/>
      <point x="-68" y="78" type="line"/>
      <point x="25" y="6"/>
      <point x="139" y="-16"/>
    </contour>
  </outline>
</glyph>
<glyph name="uni1D16" format="2">
  <advance width="1012"/>
  <unicode hex="1D16"/>
  <anchor x="498" y="573" name="bottom"/>
  <anchor x="627" y="1133" name="top"/>
  <outline>
    <contour>
      <point x="68" y="573" type="curve"/>
      <point x="399" y="573" type="line"/>
      <point x="428" y="723"/>
      <point x="485" y="877"/>
      <point x="561" y="877" type="curve" smooth="yes"/>
      <point x="608" y="877"/>
      <point x="627" y="838"/>
      <point x="627" y="762" type="curve" smooth="yes"/>
      <point x="627" y="711"/>
      <point x="618" y="643"/>
      <point x="606" y="573" type="curve"/>
      <point x="940" y="573" type="line"/>
      <point x="950" y="637"/>
      <point x="956" y="702"/>
      <point x="956" y="762" type="curve" smooth="yes"/>
      <point x="956" y="999"/>
      <point x="825" y="1153"/>
      <point x="604" y="1153" type="curve" smooth="yes"/>
      <point x="276" y="1153"/>
      <point x="119" y="848"/>
    </contour>
  </outline>
</glyph>
<glyph name="uni1D1C" format="2">
  <advance width="954"/>
  <unicode hex="1D1C"/>
  <anchor x="356" y="0" name="bottom"/>
  <anchor x="598" y="1133" name="top"/>
  <outline>
    <contour>
      <point x="377" y="-16" type="curve" smooth="yes"/>
      <point x="643" y="-16"/>
      <point x="780" y="104"/>
      <point x="836" y="352" type="curve" smooth="yes"/>
      <point x="1008" y="1147" type="line"/>
      <point x="682" y="1147" type="line"/>
      <point x="520" y="406" type="line"/>
      <point x="496" y="299"/>
      <point x="471" y="268"/>
      <point x="422" y="268" type="curve" smooth="yes"/>
      <point x="395" y="268"/>
      <point x="381" y="287"/>
      <point x="381" y="334" type="curve" smooth="yes"/>
      <point x="381" y="352"/>
      <point x="383" y="381"/>
      <point x="389" y="412" type="curve" smooth="yes"/>
      <point x="549" y="1147" type="line"/>
      <point x="223" y="1147" type="line"/>
      <point x="66" y="414" type="line"/>
      <point x="55" y="367"/>
      <point x="49" y="313"/>
      <point x="49" y="276" type="curve" smooth="yes"/>
      <point x="49" y="94"/>
      <point x="174" y="-16"/>
    </contour>
  </outline>
</glyph>
<glyph name="uni1D20" format="2">
  <advance width="963"/>
  <unicode hex="1D20"/>
  <anchor x="367" y="0" name="bottom"/>
  <anchor x="596" y="1085" name="top"/>
  <outline>
    <contour>
      <point x="176" y="0" type="line"/>
      <point x="551" y="0" type="line"/>
      <point x="1067" y="1147" type="line"/>
      <point x="717" y="1147" type="line"/>
      <point x="506" y="616" type="line" smooth="yes"/>
      <point x="483" y="563"/>
      <point x="467" y="504"/>
      <point x="451" y="438" type="curve"/>
      <point x="446" y="438" type="line"/>
      <point x="457" y="504"/>
      <point x="461" y="541"/>
      <point x="463" y="602" type="curve" smooth="yes"/>
      <point x="481" y="1147" type="line"/>
      <point x="145" y="1147" type="line"/>
    </contour>
  </outline>
</glyph>
<glyph name="uni1D6F" format="2">
  <advance width="1485"/>
  <unicode hex="1D6F"/>
  <outline>
    <contour>
      <point x="1327" y="317" type="curve"/>
      <point x="1575" y="317"/>
      <point x="1759" y="475"/>
      <point x="1786" y="748" type="curve"/>
      <point x="1606" y="748" type="line"/>
      <point x="1595" y="600"/>
      <point x="1507" y="537"/>
      <point x="1362" y="537" type="curve"/>
      <point x="999" y="537"/>
      <point x="741" y="737"/>
      <point x="324" y="737" type="curve"/>
      <point x="78" y="737"/>
      <point x="-109" y="580"/>
      <point x="-135" y="305" type="curve"/>
      <point x="43" y="305" type="line"/>
      <point x="53" y="453"/>
      <point x="143" y="520"/>
      <point x="287" y="520" type="curve"/>
      <point x="639" y="520"/>
      <point x="922" y="317"/>
    </contour>
    <component base="m" xOffset="82"/>
  </outline>
</glyph>
<glyph name="uni1D79" format="2">
  <advance width="897"/>
  <unicode hex="1D79"/>
  <outline>
    <contour>
      <point x="256" y="-489" type="curve" smooth="yes"/>
      <point x="651" y="-489"/>
      <point x="793" y="-98"/>
      <point x="782" y="170" type="curve" smooth="yes"/>
      <point x="780" y="246"/>
      <point x="760" y="311"/>
      <point x="696" y="410" type="curve" smooth="yes"/>
      <point x="551" y="635" type="line"/>
      <point x="866" y="920" type="line"/>
      <point x="911" y="1133" type="line"/>
      <point x="176" y="1133" type="line"/>
      <point x="117" y="856" type="line"/>
      <point x="410" y="856" type="line"/>
      <point x="291" y="752" type="line"/>
      <point x="258" y="582" type="line"/>
      <point x="311" y="489" type="line"/>
      <point x="-16" y="426"/>
      <point x="-123" y="68"/>
      <point x="-115" y="-160" type="curve" smooth="yes"/>
      <point x="-106" y="-365"/>
      <point x="31" y="-489"/>
    </contour>
    <contour>
      <point x="285" y="-213" type="curve" smooth="yes"/>
      <point x="238" y="-213"/>
      <point x="217" y="-184"/>
      <point x="215" y="-133" type="curve" smooth="yes"/>
      <point x="211" y="-16"/>
      <point x="262" y="223"/>
      <point x="385" y="223" type="curve" smooth="yes"/>
      <point x="432" y="223"/>
      <point x="453" y="197"/>
      <point x="455" y="143" type="curve" smooth="yes"/>
      <point x="459" y="27"/>
      <point x="391" y="-213"/>
    </contour>
  </outline>
</glyph>
<glyph name="uni1D7F" format="2">
  <advance width="1028"/>
  <unicode hex="1D7F"/>
  <outline>
    <contour>
      <point x="-25" y="444" type="line"/>
      <point x="1008" y="444" type="line"/>
      <point x="1063" y="702" type="line"/>
      <point x="31" y="702" type="line"/>
    </contour>
    <component base="uni028A"/>
  </outline>
</glyph>
<glyph name="uni1D8B" format="2">
  <advance width="950"/>
  <unicode hex="1D8B"/>
  <outline>
    <contour>
      <point x="-74" y="-492" type="curve" smooth="yes"/>
      <point x="172" y="-492"/>
      <point x="260" y="-348"/>
      <point x="313" y="-92" type="curve" smooth="yes"/>
      <point x="334" y="0" type="line"/>
      <point x="500" y="0" type="line"/>
      <point x="481" y="-100" type="line" smooth="yes"/>
      <point x="469" y="-166"/>
      <point x="444" y="-184"/>
      <point x="408" y="-184" type="curve" smooth="yes"/>
      <point x="383" y="-184"/>
      <point x="358" y="-174"/>
      <point x="348" y="-166" type="curve"/>
      <point x="348" y="-446" type="line"/>
      <point x="381" y="-459"/>
      <point x="440" y="-471"/>
      <point x="502" y="-471" type="curve" smooth="yes"/>
      <point x="666" y="-471"/>
      <point x="741" y="-393"/>
      <point x="780" y="-209" type="curve" smooth="yes"/>
      <point x="883" y="283" type="line"/>
      <point x="393" y="283" type="line"/>
      <point x="586" y="1180" type="line" smooth="yes"/>
      <point x="600" y="1247"/>
      <point x="625" y="1290"/>
      <point x="698" y="1290" type="curve" smooth="yes"/>
      <point x="721" y="1290"/>
      <point x="768" y="1280"/>
      <point x="797" y="1264" type="curve"/>
      <point x="797" y="1530" type="line"/>
      <point x="752" y="1552"/>
      <point x="700" y="1567"/>
      <point x="621" y="1567" type="curve" smooth="yes"/>
      <point x="410" y="1567"/>
      <point x="311" y="1438"/>
      <point x="260" y="1192" type="curve" smooth="yes"/>
      <point x="-6" y="-66" type="line"/>
      <point x="-12" y="-139"/>
      <point x="-35" y="-205"/>
      <point x="-123" y="-205" type="curve" smooth="yes"/>
      <point x="-147" y="-205"/>
      <point x="-201" y="-197"/>
      <point x="-225" y="-184" type="curve"/>
      <point x="-225" y="-469" type="line"/>
      <point x="-170" y="-489"/>
      <point x="-123" y="-492"/>
    </contour>
  </outline>
</glyph>
<glyph name="acutemacron" format="2">
  <unicode hex="1DC7"/>
  <anchor x="129" y="1133" name="_top"/>
  <anchor x="-8" y="1536" name="top"/>
  <outline>
    <contour>
      <point x="-23" y="1210" type="line"/>
      <point x="166" y="1335" type="line"/>
      <point x="399" y="1335" type="line"/>
      <point x="399" y="1536" type="line"/>
      <point x="106" y="1536" type="line"/>
      <point x="-133" y="1378" type="line"/>
    </contour>
  </outline>
</glyph>
<glyph name="doublecircumflexabove" format="2">
  <unicode hex="1DCD"/>
  <anchor x="78" y="1085" name="_top"/>
  <anchor x="156" y="1610" name="top"/>
  <outline>
    <contour>
      <point x="-651" y="1247" type="line"/>
      <point x="-391" y="1247" type="line"/>
      <point x="-215" y="1292"/>
      <point x="4" y="1348"/>
      <point x="184" y="1421" type="curve"/>
      <point x="334" y="1348"/>
      <point x="489" y="1300"/>
      <point x="686" y="1247" type="curve"/>
      <point x="946" y="1247" type="line"/>
      <point x="954" y="1282" type="line"/>
      <point x="756" y="1372"/>
      <point x="535" y="1509"/>
      <point x="422" y="1610" type="curve"/>
      <point x="29" y="1610" type="line"/>
      <point x="-127" y="1509"/>
      <point x="-397" y="1376"/>
      <point x="-643" y="1280" type="curve"/>
    </contour>
  </outline>
</glyph>
<glyph name="zigzagbelow" format="2">
  <unicode hex="1DCF"/>
  <anchor x="-465" y="0" name="_bottom"/>
  <anchor x="-520" y="-514" name="bottom"/>
  <outline>
    <contour>
      <point x="-551" y="-514" type="line"/>
      <point x="-430" y="-514" type="line"/>
      <point x="-303" y="-225" type="line"/>
      <point x="-573" y="-225" type="line"/>
      <point x="-498" y="-53" type="line"/>
      <point x="-618" y="-53" type="line"/>
      <point x="-745" y="-340" type="line"/>
      <point x="-475" y="-340" type="line"/>
    </contour>
  </outline>
</glyph>
<glyph name="V-middleWelsh" format="2">
  <advance width="1022"/>
  <unicode hex="1EFC"/>
  <anchor x="397" y="0" name="bottom"/>
  <anchor x="707" y="1462" name="top"/>
  <outline>
    <contour>
      <point x="438" y="-20" type="curve" smooth="yes"/>
      <point x="817" y="-20"/>
      <point x="977" y="328"/>
      <point x="977" y="627" type="curve" smooth="yes"/>
      <point x="977" y="889"/>
      <point x="889" y="1028"/>
      <point x="739" y="1028" type="curve" smooth="yes"/>
      <point x="690" y="1028"/>
      <point x="625" y="1014"/>
      <point x="586" y="987" type="curve"/>
      <point x="526" y="729" type="line"/>
      <point x="537" y="737"/>
      <point x="549" y="741"/>
      <point x="561" y="741" type="curve" smooth="yes"/>
      <point x="592" y="741"/>
      <point x="606" y="690"/>
      <point x="606" y="610" type="curve" smooth="yes"/>
      <point x="606" y="524"/>
      <point x="571" y="285"/>
      <point x="471" y="285" type="curve" smooth="yes"/>
      <point x="442" y="285"/>
      <point x="426" y="324"/>
      <point x="426" y="440" type="curve" smooth="yes"/>
      <point x="426" y="905"/>
      <point x="561" y="1130"/>
      <point x="844" y="1333" type="curve"/>
      <point x="627" y="1495" type="line"/>
      <point x="262" y="1311"/>
      <point x="70" y="877"/>
      <point x="70" y="467" type="curve" smooth="yes"/>
      <point x="70" y="193"/>
      <point x="176" y="-20"/>
    </contour>
  </outline>
</glyph>
<glyph name="uni1FBD" format="2">
  <advance width="881"/>
  <unicode hex="1FBD"/>
  <anchor x="526" y="1133" name="_top"/>
  <outline>
    <contour>
      <point x="436" y="1239" type="line"/>
      <point x="614" y="1239"/>
      <point x="737" y="1343"/>
      <point x="737" y="1462" type="curve" smooth="yes"/>
      <point x="737" y="1554"/>
      <point x="690" y="1597"/>
      <point x="606" y="1597" type="curve" smooth="yes"/>
      <point x="522" y="1597"/>
      <point x="475" y="1548"/>
      <point x="475" y="1485" type="curve" smooth="yes"/>
      <point x="475" y="1430"/>
      <point x="522" y="1401"/>
      <point x="557" y="1399" type="curve"/>
      <point x="545" y="1341"/>
      <point x="492" y="1329"/>
      <point x="455" y="1323" type="curve"/>
    </contour>
  </outline>
</glyph>
<glyph name="uni1FCE" format="2">
  <advance width="881"/>
  <unicode hex="1FCE"/>
  <anchor x="565" y="1085" name="_top"/>
  <anchor x="641" y="1597" name="top"/>
  <outline>
    <contour>
      <point x="590" y="1251" type="line"/>
      <point x="748" y="1251" type="line"/>
      <point x="817" y="1333"/>
      <point x="926" y="1468"/>
      <point x="979" y="1556" type="curve"/>
      <point x="979" y="1577" type="line"/>
      <point x="715" y="1577" type="line"/>
      <point x="678" y="1475"/>
      <point x="618" y="1343"/>
      <point x="590" y="1276" type="curve"/>
    </contour>
    <contour>
      <point x="293" y="1239" type="line"/>
      <point x="471" y="1239"/>
      <point x="594" y="1343"/>
      <point x="594" y="1456" type="curve" smooth="yes"/>
      <point x="594" y="1554"/>
      <point x="547" y="1597"/>
      <point x="463" y="1597" type="curve" smooth="yes"/>
      <point x="379" y="1597"/>
      <point x="332" y="1548"/>
      <point x="332" y="1485" type="curve" smooth="yes"/>
      <point x="332" y="1430"/>
      <point x="379" y="1401"/>
      <point x="414" y="1399" type="curve"/>
      <point x="401" y="1341"/>
      <point x="348" y="1329"/>
      <point x="311" y="1323" type="curve"/>
    </contour>
  </outline>
</glyph>
<glyph name="uni1FDD" format="2">
  <advance width="881"/>
  <unicode hex="1FDD"/>
  <anchor x="481" y="1085" name="_top"/>
  <anchor x="557" y="1597" name="top"/>
  <outline>
    <contour>
      <point x="481" y="1241" type="curve"/>
      <point x="500" y="1331" type="line"/>
      <point x="455" y="1337"/>
      <point x="414" y="1350"/>
      <point x="414" y="1386" type="curve" smooth="yes"/>
      <point x="414" y="1391"/>
      <point x="414" y="1397"/>
      <point x="416" y="1401" type="curve"/>
      <point x="469" y="1403"/>
      <point x="524" y="1444"/>
      <point x="524" y="1501" type="curve" smooth="yes"/>
      <point x="524" y="1546"/>
      <point x="504" y="1597"/>
      <point x="418" y="1597" type="curve" smooth="yes"/>
      <point x="330" y="1597"/>
      <point x="274" y="1507"/>
      <point x="274" y="1434" type="curve" smooth="yes"/>
      <point x="274" y="1319"/>
      <point x="346" y="1239"/>
    </contour>
    <contour>
      <point x="666" y="1251" type="curve"/>
      <point x="825" y="1251" type="line"/>
      <point x="829" y="1276" type="line"/>
      <point x="823" y="1413"/>
      <point x="825" y="1540"/>
      <point x="827" y="1577" type="curve"/>
      <point x="563" y="1577" type="line"/>
      <point x="559" y="1556" type="line"/>
      <point x="575" y="1468"/>
      <point x="627" y="1333"/>
    </contour>
  </outline>
</glyph>
<glyph name="emdash" format="2">
  <advance width="1876"/>
  <unicode hex="2014"/>
  <outline>
    <contour>
      <point x="23" y="414" type="line"/>
      <point x="1790" y="414" type="line"/>
      <point x="1849" y="690" type="line"/>
      <point x="82" y="690" type="line"/>
    </contour>
  </outline>
</glyph>
<glyph name="quotereversed" format="2">
  <advance width="532"/>
  <unicode hex="201B"/>
  <outline>
    <contour>
      <point x="289" y="879" type="curve"/>
      <point x="575" y="879" type="line"/>
      <point x="569" y="1016"/>
      <point x="567" y="1321"/>
      <point x="592" y="1462" type="curve"/>
      <point x="274" y="1462" type="line"/>
      <point x="256" y="1434" type="line"/>
      <point x="256" y="1243"/>
      <point x="264" y="1038"/>
    </contour>
  </outline>
</glyph>
<glyph name="uni2023" format="2">
  <advance width="944"/>
  <unicode hex="2023"/>
  <outline>
    <contour>
      <point x="49" y="274" type="line"/>
      <point x="967" y="764" type="line"/>
      <point x="258" y="1251" type="line"/>
    </contour>
  </outline>
</glyph>
<glyph name="guilsinglright" format="2">
  <advance width="621"/>
  <unicode hex="203A"/>
  <outline>
    <contour>
      <point x="221" y="61" type="line"/>
      <point x="584" y="555" type="line"/>
      <point x="586" y="578" type="line"/>
      <point x="358" y="1071" type="line"/>
      <point x="90" y="952" type="line"/>
      <point x="254" y="573" type="line"/>
      <point x="-16" y="205" type="line"/>
    </contour>
  </outline>
</glyph>
<glyph name="undertie" format="2">
  <advance width="1106"/>
  <unicode hex="203F"/>
  <outline>
    <contour>
      <point x="365" y="-575" type="curve" smooth="yes"/>
      <point x="633" y="-575"/>
      <point x="795" y="-373"/>
      <point x="883" y="-125" type="curve"/>
      <point x="719" y="-84" type="line"/>
      <point x="670" y="-211"/>
      <point x="557" y="-346"/>
      <point x="362" y="-346" type="curve" smooth="yes"/>
      <point x="152" y="-346"/>
      <point x="106" y="-209"/>
      <point x="104" y="-84" type="curve"/>
      <point x="-70" y="-117" type="line"/>
      <point x="-72" y="-365"/>
      <point x="80" y="-575"/>
    </contour>
  </outline>
</glyph>
<glyph name="commercialMinusSign" format="2">
  <advance width="872"/>
  <unicode hex="2052"/>
  <outline>
    <contour>
      <point x="6" y="-29" type="line"/>
      <point x="295" y="-29" type="line"/>
      <point x="866" y="1475" type="line"/>
      <point x="578" y="1475" type="line"/>
    </contour>
    <contour>
      <point x="690" y="-39" type="curve" smooth="yes"/>
      <point x="815" y="-39"/>
      <point x="866" y="18"/>
      <point x="866" y="135" type="curve" smooth="yes"/>
      <point x="866" y="250"/>
      <point x="807" y="307"/>
      <point x="690" y="307" type="curve" smooth="yes"/>
      <point x="571" y="307"/>
      <point x="514" y="250"/>
      <point x="514" y="135" type="curve" smooth="yes"/>
      <point x="514" y="20"/>
      <point x="565" y="-39"/>
    </contour>
    <contour>
      <point x="182" y="1147" type="curve" smooth="yes"/>
      <point x="307" y="1147"/>
      <point x="358" y="1204"/>
      <point x="358" y="1321" type="curve" smooth="yes"/>
      <point x="358" y="1436"/>
      <point x="299" y="1493"/>
      <point x="182" y="1493" type="curve" smooth="yes"/>
      <point x="63" y="1493"/>
      <point x="6" y="1436"/>
      <point x="6" y="1321" type="curve" smooth="yes"/>
      <point x="6" y="1206"/>
      <point x="57" y="1147"/>
    </contour>
  </outline>
</glyph>
<glyph name="swungdash" format="2">
  <advance width="2048"/>
  <unicode hex="2053"/>
  <outline>
    <contour>
      <point x="59" y="305" type="curve"/>
      <point x="238" y="305" type="line"/>
      <point x="248" y="453"/>
      <point x="338" y="520"/>
      <point x="481" y="520" type="curve" smooth="yes"/>
      <point x="834" y="520"/>
      <point x="1116" y="317"/>
      <point x="1522" y="317" type="curve"/>
      <point x="1769" y="317"/>
      <point x="1954" y="475"/>
      <point x="1980" y="748" type="curve"/>
      <point x="1800" y="748" type="line"/>
      <point x="1790" y="600"/>
      <point x="1702" y="537"/>
      <point x="1556" y="537" type="curve" smooth="yes"/>
      <point x="1194" y="537"/>
      <point x="936" y="737"/>
      <point x="518" y="737" type="curve" smooth="yes"/>
      <point x="272" y="737"/>
      <point x="86" y="580"/>
    </contour>
  </outline>
</glyph>
<glyph name="uni206E" format="2">
  <unicode hex="206E"/>
  <outline>
    <contour>
      <point x="-43" y="-272" type="line"/>
      <point x="43" y="-272" type="line"/>
      <point x="43" y="1012" type="line"/>
      <point x="240" y="1194" type="line"/>
      <point x="0" y="1413" type="line"/>
      <point x="-240" y="1194" type="line"/>
      <point x="-43" y="1012" type="line"/>
    </contour>
    <contour>
      <point x="0" y="1081" type="line"/>
      <point x="-127" y="1194" type="line"/>
      <point x="0" y="1307" type="line"/>
      <point x="127" y="1194" type="line"/>
    </contour>
  </outline>
</glyph>
<glyph name="zerosuperior" format="2">
  <advance width="670"/>
  <unicode hex="2070"/>
  <outline>
    <contour>
      <point x="414" y="829" type="curve" smooth="yes"/>
      <point x="688" y="829"/>
      <point x="813" y="1169"/>
      <point x="813" y="1477" type="curve" smooth="yes"/>
      <point x="813" y="1655"/>
      <point x="723" y="1751"/>
      <point x="559" y="1751" type="curve" smooth="yes"/>
      <point x="297" y="1751"/>
      <point x="160" y="1438"/>
      <point x="160" y="1100" type="curve" smooth="yes"/>
      <point x="160" y="926"/>
      <point x="248" y="829"/>
    </contour>
    <contour>
      <point x="432" y="1034" type="curve" smooth="yes"/>
      <point x="412" y="1034"/>
      <point x="403" y="1057"/>
      <point x="403" y="1108" type="curve" smooth="yes"/>
      <point x="403" y="1227"/>
      <point x="473" y="1542"/>
      <point x="541" y="1542" type="curve" smooth="yes"/>
      <point x="559" y="1542"/>
      <point x="569" y="1518"/>
      <point x="569" y="1466" type="curve" smooth="yes"/>
      <point x="569" y="1356"/>
      <point x="496" y="1034"/>
    </contour>
  </outline>
</glyph>
<glyph name="fivesuperior" format="2">
  <advance width="670"/>
  <unicode hex="2075"/>
  <outline>
    <contour>
      <point x="352" y="838" type="curve" smooth="yes"/>
      <point x="627" y="838"/>
      <point x="737" y="1020"/>
      <point x="737" y="1204" type="curve" smooth="yes"/>
      <point x="737" y="1337"/>
      <point x="674" y="1432"/>
      <point x="532" y="1432" type="curve" smooth="yes"/>
      <point x="514" y="1432"/>
      <point x="492" y="1430"/>
      <point x="461" y="1425" type="curve"/>
      <point x="492" y="1532" type="line"/>
      <point x="758" y="1532" type="line"/>
      <point x="801" y="1737" type="line"/>
      <point x="354" y="1737" type="line"/>
      <point x="227" y="1284" type="line"/>
      <point x="352" y="1235" type="line"/>
      <point x="373" y="1245"/>
      <point x="395" y="1251"/>
      <point x="410" y="1251" type="curve" smooth="yes"/>
      <point x="465" y="1251"/>
      <point x="481" y="1219"/>
      <point x="481" y="1176" type="curve" smooth="yes"/>
      <point x="481" y="1110"/>
      <point x="434" y="1032"/>
      <point x="358" y="1032" type="curve" smooth="yes"/>
      <point x="297" y="1032"/>
      <point x="231" y="1053"/>
      <point x="178" y="1102" type="curve"/>
      <point x="133" y="891" type="line"/>
      <point x="197" y="856"/>
      <point x="270" y="838"/>
    </contour>
  </outline>
</glyph>
<glyph name="parenleftsuperior" format="2">
  <advance width="453"/>
  <unicode hex="207D"/>
  <outline>
    <contour>
      <point x="227" y="424" type="curve"/>
      <point x="397" y="424" type="line"/>
      <point x="360" y="541"/>
      <point x="340" y="694"/>
      <point x="340" y="817" type="curve" smooth="yes"/>
      <point x="340" y="1137"/>
      <point x="473" y="1384"/>
      <point x="647" y="1589" type="curve"/>
      <point x="461" y="1589" type="line"/>
      <point x="258" y="1366"/>
      <point x="152" y="1126"/>
      <point x="152" y="831" type="curve" smooth="yes"/>
      <point x="152" y="690"/>
      <point x="178" y="530"/>
    </contour>
  </outline>
</glyph>
<glyph name="parenrightsuperior" format="2">
  <advance width="451"/>
  <unicode hex="207E"/>
  <outline>
    <contour>
      <point x="-4" y="424" type="curve"/>
      <point x="182" y="424" type="line"/>
      <point x="385" y="649"/>
      <point x="487" y="889"/>
      <point x="487" y="1186" type="curve" smooth="yes"/>
      <point x="487" y="1329"/>
      <point x="463" y="1479"/>
      <point x="410" y="1589" type="curve"/>
      <point x="240" y="1589" type="line"/>
      <point x="276" y="1475"/>
      <point x="299" y="1319"/>
      <point x="299" y="1192" type="curve" smooth="yes"/>
      <point x="299" y="879"/>
      <point x="172" y="631"/>
    </contour>
  </outline>
</glyph>
<glyph name="franc" format="2">
  <advance width="971"/>
  <unicode hex="20A3"/>
  <outline>
    <contour>
      <point x="86" y="0" type="line"/>
      <point x="422" y="0" type="line"/>
      <point x="469" y="219" type="line"/>
      <point x="692" y="219" type="line"/>
      <point x="745" y="469" type="line"/>
      <point x="520" y="469" type="line"/>
      <point x="555" y="629" type="line"/>
      <point x="850" y="629" type="line"/>
      <point x="911" y="924" type="line"/>
      <point x="618" y="924" type="line"/>
      <point x="670" y="1167" type="line"/>
      <point x="989" y="1167" type="line"/>
      <point x="1051" y="1462" type="line"/>
      <point x="395" y="1462" type="line"/>
      <point x="184" y="469" type="line"/>
      <point x="49" y="469" type="line"/>
      <point x="-4" y="219" type="line"/>
      <point x="131" y="219" type="line"/>
    </contour>
  </outline>
</glyph>
<glyph name="uni20A6" format="2">
  <advance width="1239"/>
  <unicode hex="20A6"/>
  <outline>
    <contour>
      <point x="10" y="0" type="line"/>
      <point x="309" y="0" type="line"/>
      <point x="416" y="508" type="line"/>
      <point x="549" y="508" type="line"/>
      <point x="573" y="0" type="line"/>
      <point x="1014" y="0" type="line"/>
      <point x="1120" y="508" type="line"/>
      <point x="1227" y="508" type="line"/>
      <point x="1264" y="682" type="line"/>
      <point x="1157" y="682" type="line"/>
      <point x="1180" y="788" type="line"/>
      <point x="1284" y="788" type="line"/>
      <point x="1321" y="963" type="line"/>
      <point x="1217" y="963" type="line"/>
      <point x="1323" y="1462" type="line"/>
      <point x="1022" y="1462" type="line"/>
      <point x="920" y="963" type="line"/>
      <point x="784" y="963" type="line"/>
      <point x="760" y="1462" type="line"/>
      <point x="319" y="1462" type="line"/>
      <point x="213" y="963" type="line"/>
      <point x="104" y="963" type="line"/>
      <point x="68" y="788" type="line"/>
      <point x="176" y="788" type="line"/>
      <point x="154" y="682" type="line"/>
      <point x="47" y="682" type="line"/>
      <point x="10" y="508" type="line"/>
      <point x="117" y="508" type="line"/>
    </contour>
    <contour>
      <point x="813" y="422" type="line"/>
      <point x="809" y="508" type="line"/>
      <point x="834" y="508" type="line"/>
      <point x="819" y="422" type="line"/>
    </contour>
    <contour>
      <point x="453" y="682" type="line"/>
      <point x="473" y="788" type="line"/>
      <point x="537" y="788" type="line"/>
      <point x="541" y="682" type="line"/>
    </contour>
    <contour>
      <point x="801" y="682" type="line"/>
      <point x="795" y="788" type="line"/>
      <point x="885" y="788" type="line"/>
      <point x="864" y="682" type="line"/>
    </contour>
    <contour>
      <point x="504" y="963" type="line"/>
      <point x="518" y="1067" type="line"/>
      <point x="522" y="1067" type="line"/>
      <point x="526" y="963" type="line"/>
    </contour>
  </outline>
</glyph>
<glyph name="uni20A8" format="2">
  <advance width="1796"/>
  <unicode hex="20A8"/>
  <outline>
    <contour>
      <point x="-10" y="0" type="line"/>
      <point x="332" y="0" type="line"/>
      <point x="444" y="543" type="line"/>
      <point x="467" y="543" type="line"/>
      <point x="565" y="0" type="line"/>
      <point x="944" y="0" type="line"/>
      <point x="788" y="614" type="line"/>
      <point x="956" y="690"/>
      <point x="1063" y="866"/>
      <point x="1063" y="1116" type="curve" smooth="yes"/>
      <point x="1063" y="1339"/>
      <point x="930" y="1462"/>
      <point x="629" y="1462" type="curve" smooth="yes"/>
      <point x="299" y="1462" type="line"/>
    </contour>
    <contour>
      <point x="506" y="819" type="line"/>
      <point x="580" y="1176" type="line"/>
      <point x="602" y="1176" type="line" smooth="yes"/>
      <point x="668" y="1176"/>
      <point x="700" y="1139"/>
      <point x="700" y="1069" type="curve" smooth="yes"/>
      <point x="700" y="954"/>
      <point x="649" y="819"/>
      <point x="535" y="819" type="curve" smooth="yes"/>
    </contour>
    <contour>
      <point x="1298" y="-20" type="curve" smooth="yes"/>
      <point x="1556" y="-20"/>
      <point x="1706" y="164"/>
      <point x="1706" y="375" type="curve" smooth="yes"/>
      <point x="1706" y="537"/>
      <point x="1651" y="610"/>
      <point x="1552" y="690" type="curve" smooth="yes"/>
      <point x="1458" y="764"/>
      <point x="1452" y="786"/>
      <point x="1452" y="825" type="curve" smooth="yes"/>
      <point x="1452" y="866"/>
      <point x="1475" y="889"/>
      <point x="1513" y="889" type="curve" smooth="yes"/>
      <point x="1552" y="889"/>
      <point x="1636" y="866"/>
      <point x="1704" y="807" type="curve"/>
      <point x="1829" y="1055" type="line"/>
      <point x="1749" y="1112"/>
      <point x="1622" y="1153"/>
      <point x="1493" y="1153" type="curve" smooth="yes"/>
      <point x="1241" y="1153"/>
      <point x="1114" y="985"/>
      <point x="1114" y="776" type="curve" smooth="yes"/>
      <point x="1114" y="682"/>
      <point x="1133" y="592"/>
      <point x="1255" y="492" type="curve" smooth="yes"/>
      <point x="1346" y="418"/>
      <point x="1358" y="375"/>
      <point x="1358" y="340" type="curve" smooth="yes"/>
      <point x="1358" y="289"/>
      <point x="1311" y="264"/>
      <point x="1255" y="264" type="curve" smooth="yes"/>
      <point x="1184" y="264"/>
      <point x="1081" y="295"/>
      <point x="999" y="350" type="curve"/>
      <point x="999" y="47" type="line"/>
      <point x="1081" y="0"/>
      <point x="1153" y="-20"/>
    </contour>
  </outline>
</glyph>
<glyph name="uni20A9" format="2">
  <advance width="1524"/>
  <unicode hex="20A9"/>
  <outline>
    <contour>
      <point x="135" y="0" type="line"/>
      <point x="518" y="0" type="line"/>
      <point x="694" y="508" type="line"/>
      <point x="838" y="508" type="line"/>
      <point x="823" y="0" type="line"/>
      <point x="1198" y="0" type="line"/>
      <point x="1378" y="508" type="line"/>
      <point x="1520" y="508" type="line"/>
      <point x="1556" y="682" type="line"/>
      <point x="1440" y="682" type="line"/>
      <point x="1477" y="788" type="line"/>
      <point x="1577" y="788" type="line"/>
      <point x="1614" y="963" type="line"/>
      <point x="1538" y="963" type="line"/>
      <point x="1714" y="1462" type="line"/>
      <point x="1370" y="1462" type="line"/>
      <point x="1217" y="963" type="line"/>
      <point x="1075" y="963" type="line"/>
      <point x="1090" y="1462" type="line"/>
      <point x="811" y="1462" type="line"/>
      <point x="629" y="963" type="line"/>
      <point x="477" y="963" type="line"/>
      <point x="500" y="1462" type="line"/>
      <point x="190" y="1462" type="line"/>
      <point x="172" y="963" type="line"/>
      <point x="98" y="963" type="line"/>
      <point x="61" y="788" type="line"/>
      <point x="166" y="788" type="line"/>
      <point x="162" y="682" type="line"/>
      <point x="41" y="682" type="line"/>
      <point x="4" y="508" type="line"/>
      <point x="154" y="508" type="line"/>
    </contour>
    <contour>
      <point x="432" y="399" type="line"/>
      <point x="449" y="508" type="line"/>
      <point x="469" y="508" type="line"/>
    </contour>
    <contour>
      <point x="465" y="682" type="line"/>
      <point x="469" y="788" type="line"/>
      <point x="565" y="788" type="line"/>
      <point x="526" y="682" type="line"/>
    </contour>
    <contour>
      <point x="1051" y="393" type="line"/>
      <point x="1059" y="508" type="line"/>
      <point x="1079" y="508" type="line"/>
    </contour>
    <contour>
      <point x="754" y="682" type="line"/>
      <point x="791" y="788" type="line"/>
      <point x="844" y="788" type="line"/>
      <point x="842" y="682" type="line"/>
    </contour>
    <contour>
      <point x="1067" y="682" type="line"/>
      <point x="1071" y="788" type="line"/>
      <point x="1161" y="788" type="line"/>
      <point x="1128" y="682" type="line"/>
    </contour>
    <contour>
      <point x="836" y="963" type="line"/>
      <point x="862" y="1067" type="line"/>
      <point x="852" y="963" type="line"/>
    </contour>
  </outline>
</glyph>
<glyph name="uni20AD" format="2">
  <advance width="1049"/>
  <unicode hex="20AD"/>
  <anchor x="410" y="0" name="bottom"/>
  <anchor x="719" y="1462" name="top"/>
  <anchor x="1202" y="1462" name="topright"/>
  <outline>
    <contour>
      <point x="6" y="629" type="line"/>
      <point x="1038" y="629" type="line"/>
      <point x="1092" y="879" type="line"/>
      <point x="59" y="879" type="line"/>
    </contour>
    <contour>
      <point x="-10" y="0" type="line"/>
      <point x="332" y="0" type="line"/>
      <point x="436" y="496" type="line"/>
      <point x="496" y="532" type="line"/>
      <point x="549" y="0" type="line"/>
      <point x="915" y="0" type="line"/>
      <point x="788" y="752" type="line"/>
      <point x="1239" y="1462" type="line"/>
      <point x="862" y="1462" type="line"/>
      <point x="590" y="1014" type="line"/>
      <point x="518" y="874" type="line"/>
      <point x="641" y="1462" type="line"/>
      <point x="299" y="1462" type="line"/>
    </contour>
  </outline>
</glyph>
<glyph name="uni20BA" format="2">
  <advance width="971"/>
  <unicode hex="20BA"/>
  <outline>
    <contour>
      <point x="276" y="-20" type="curve" smooth="yes"/>
      <point x="659" y="-20"/>
      <point x="842" y="248"/>
      <point x="938" y="700" type="curve"/>
      <point x="608" y="700" type="line"/>
      <point x="545" y="401"/>
      <point x="459" y="281"/>
      <point x="389" y="281" type="curve"/>
      <point x="489" y="750" type="line"/>
      <point x="770" y="825" type="line"/>
      <point x="813" y="1030" type="line"/>
      <point x="532" y="954" type="line"/>
      <point x="557" y="1071" type="line"/>
      <point x="836" y="1147" type="line"/>
      <point x="879" y="1352" type="line"/>
      <point x="602" y="1276" type="line"/>
      <point x="641" y="1462" type="line"/>
      <point x="299" y="1462" type="line"/>
      <point x="244" y="1198" type="line"/>
      <point x="131" y="1167" type="line"/>
      <point x="88" y="963" type="line"/>
      <point x="199" y="993" type="line"/>
      <point x="174" y="877" type="line"/>
      <point x="66" y="846" type="line"/>
      <point x="23" y="641" type="line"/>
      <point x="131" y="670" type="line"/>
      <point x="-10" y="0" type="line"/>
      <point x="33" y="-10"/>
      <point x="125" y="-20"/>
    </contour>
  </outline>
</glyph>
<glyph name="afii61248" format="2">
  <advance width="1368"/>
  <unicode hex="2105"/>
  <outline>
    <contour>
      <point x="82" y="0" type="line"/>
      <point x="319" y="0" type="line"/>
      <point x="1268" y="1462" type="line"/>
      <point x="1028" y="1462" type="line"/>
    </contour>
    <contour>
      <point x="930" y="-23" type="curve" smooth="yes"/>
      <point x="1151" y="-23"/>
      <point x="1290" y="227"/>
      <point x="1290" y="459" type="curve" smooth="yes"/>
      <point x="1290" y="612"/>
      <point x="1214" y="727"/>
      <point x="1042" y="727" type="curve" smooth="yes"/>
      <point x="817" y="727"/>
      <point x="682" y="489"/>
      <point x="682" y="244" type="curve" smooth="yes"/>
      <point x="682" y="78"/>
      <point x="756" y="-23"/>
    </contour>
    <contour>
      <point x="948" y="170" type="curve" smooth="yes"/>
      <point x="918" y="170"/>
      <point x="903" y="195"/>
      <point x="903" y="244" type="curve" smooth="yes"/>
      <point x="903" y="330"/>
      <point x="944" y="539"/>
      <point x="1026" y="539" type="curve" smooth="yes"/>
      <point x="1055" y="539"/>
      <point x="1069" y="512"/>
      <point x="1069" y="463" type="curve" smooth="yes"/>
      <point x="1069" y="381"/>
      <point x="1026" y="170"/>
    </contour>
    <contour>
      <point x="373" y="733" type="curve" smooth="yes"/>
      <point x="434" y="733"/>
      <point x="494" y="750"/>
      <point x="551" y="788" type="curve"/>
      <point x="594" y="985" type="line"/>
      <point x="524" y="948"/>
      <point x="469" y="932"/>
      <point x="422" y="932" type="curve" smooth="yes"/>
      <point x="391" y="932"/>
      <point x="377" y="958"/>
      <point x="377" y="1016" type="curve" smooth="yes"/>
      <point x="377" y="1100"/>
      <point x="414" y="1284"/>
      <point x="496" y="1284" type="curve" smooth="yes"/>
      <point x="528" y="1284"/>
      <point x="569" y="1268"/>
      <point x="618" y="1235" type="curve"/>
      <point x="705" y="1423" type="line"/>
      <point x="655" y="1462"/>
      <point x="586" y="1483"/>
      <point x="514" y="1483" type="curve" smooth="yes"/>
      <point x="274" y="1483"/>
      <point x="135" y="1249"/>
      <point x="135" y="997" type="curve" smooth="yes"/>
      <point x="135" y="840"/>
      <point x="197" y="733"/>
    </contour>
  </outline>
</glyph>
<glyph name="Iscript" format="2">
  <advance width="1522"/>
  <unicode hex="2110"/>
  <outline>
    <contour>
      <point x="195" y="-20" type="curve" smooth="yes"/>
      <point x="532" y="-20"/>
      <point x="770" y="211"/>
      <point x="889" y="446" type="curve"/>
      <point x="1180" y="522"/>
      <point x="1223" y="735"/>
      <point x="1223" y="856" type="curve" smooth="yes"/>
      <point x="1223" y="891"/>
      <point x="1217" y="932"/>
      <point x="1212" y="952" type="curve"/>
      <point x="1176" y="950" type="line"/>
      <point x="1180" y="934"/>
      <point x="1186" y="897"/>
      <point x="1186" y="850" type="curve" smooth="yes"/>
      <point x="1186" y="633"/>
      <point x="1040" y="528"/>
      <point x="903" y="487" type="curve"/>
      <point x="922" y="528"/>
      <point x="950" y="588"/>
      <point x="965" y="629" type="curve" smooth="yes"/>
      <point x="1141" y="1112"/>
      <point x="1188" y="1436"/>
      <point x="1464" y="1454" type="curve"/>
      <point x="1464" y="1485" type="line"/>
      <point x="1315" y="1485"/>
      <point x="1133" y="1454"/>
      <point x="956" y="1391" type="curve" smooth="yes"/>
      <point x="500" y="1221"/>
      <point x="334" y="993"/>
      <point x="334" y="766" type="curve" smooth="yes"/>
      <point x="334" y="676"/>
      <point x="381" y="494"/>
      <point x="602" y="436" type="curve"/>
      <point x="477" y="193"/>
      <point x="362" y="16"/>
      <point x="188" y="16" type="curve" smooth="yes"/>
      <point x="-35" y="16"/>
      <point x="-51" y="160"/>
      <point x="-51" y="182" type="curve" smooth="yes"/>
      <point x="-51" y="246"/>
      <point x="14" y="233"/>
      <point x="61" y="240" type="curve" smooth="yes"/>
      <point x="121" y="248"/>
      <point x="172" y="281"/>
      <point x="172" y="369" type="curve" smooth="yes"/>
      <point x="172" y="410"/>
      <point x="141" y="479"/>
      <point x="43" y="479" type="curve" smooth="yes"/>
      <point x="-49" y="479"/>
      <point x="-127" y="393"/>
      <point x="-127" y="285" type="curve" smooth="yes"/>
      <point x="-127" y="238"/>
      <point x="-119" y="-20"/>
    </contour>
    <contour>
      <point x="618" y="469" type="curve"/>
      <point x="547" y="489"/>
      <point x="449" y="520"/>
      <point x="449" y="668" type="curve" smooth="yes"/>
      <point x="446" y="930"/>
      <point x="756" y="1272"/>
      <point x="1087" y="1384" type="curve" smooth="yes"/>
      <point x="1149" y="1405"/>
      <point x="1235" y="1427"/>
      <point x="1305" y="1440" type="curve"/>
      <point x="973" y="1202"/>
      <point x="782" y="793"/>
    </contour>
  </outline>
</glyph>
<glyph name="gammaDoubleStruck" format="2">
  <advance width="1112"/>
  <unicode hex="213D"/>
  <outline>
    <contour>
      <point x="313" y="-492" type="curve"/>
      <point x="426" y="-492" type="line"/>
      <point x="426" y="-354"/>
      <point x="463" y="-139"/>
      <point x="526" y="27" type="curve" smooth="yes"/>
      <point x="936" y="1098" type="line"/>
      <point x="819" y="1098" type="line"/>
      <point x="618" y="555" type="line"/>
      <point x="606" y="526"/>
      <point x="580" y="440"/>
      <point x="578" y="430" type="curve"/>
      <point x="571" y="459"/>
      <point x="543" y="518"/>
      <point x="524" y="557" type="curve" smooth="yes"/>
      <point x="266" y="1098" type="line"/>
      <point x="-109" y="1098" type="line"/>
      <point x="418" y="12" type="line"/>
      <point x="356" y="-156"/>
      <point x="313" y="-379"/>
    </contour>
    <contour>
      <point x="457" y="123" type="line"/>
      <point x="444" y="195"/>
      <point x="334" y="418"/>
      <point x="285" y="522" type="curve" smooth="yes"/>
      <point x="57" y="997" type="line"/>
      <point x="197" y="997" type="line"/>
      <point x="526" y="315" type="line"/>
      <point x="498" y="233"/>
      <point x="471" y="156"/>
      <point x="465" y="123" type="curve"/>
    </contour>
  </outline>
</glyph>
<glyph name="ItalicDDoubleStruck" format="2">
  <advance width="1495"/>
  <unicode hex="2145"/>
  <outline>
    <contour>
      <point x="-45" y="0" type="line"/>
      <point x="487" y="0" type="line" smooth="yes"/>
      <point x="1040" y="0"/>
      <point x="1346" y="371"/>
      <point x="1346" y="879" type="curve" smooth="yes"/>
      <point x="1346" y="1274"/>
      <point x="1135" y="1462"/>
      <point x="782" y="1462" type="curve" smooth="yes"/>
      <point x="264" y="1462" type="line"/>
    </contour>
    <contour>
      <point x="86" y="109" type="line"/>
      <point x="350" y="1354" type="line"/>
      <point x="487" y="1354" type="line"/>
      <point x="223" y="109" type="line"/>
    </contour>
    <contour>
      <point x="332" y="109" type="line"/>
      <point x="596" y="1354" type="line"/>
      <point x="813" y="1354" type="line" smooth="yes"/>
      <point x="918" y="1354"/>
      <point x="1001" y="1329"/>
      <point x="1067" y="1282" type="curve"/>
      <point x="836" y="178" type="line"/>
      <point x="741" y="133"/>
      <point x="629" y="109"/>
      <point x="504" y="109" type="curve" smooth="yes"/>
    </contour>
    <contour>
      <point x="958" y="256" type="curve"/>
      <point x="1151" y="1192" type="line"/>
      <point x="1202" y="1114"/>
      <point x="1227" y="1008"/>
      <point x="1227" y="881" type="curve" smooth="yes"/>
      <point x="1227" y="623"/>
      <point x="1135" y="395"/>
    </contour>
  </outline>
</glyph>
<glyph name="persign" format="2">
  <advance width="1341"/>
  <unicode hex="214C"/>
  <outline>
    <contour>
      <point x="459" y="-20" type="curve" smooth="yes"/>
      <point x="637" y="-20"/>
      <point x="696" y="104"/>
      <point x="696" y="240" type="curve" smooth="yes"/>
      <point x="696" y="287"/>
      <point x="680" y="418"/>
      <point x="662" y="567" type="curve"/>
      <point x="827" y="596"/>
      <point x="971" y="668"/>
      <point x="1063" y="768" type="curve"/>
      <point x="1083" y="739"/>
      <point x="1094" y="707"/>
      <point x="1094" y="670" type="curve" smooth="yes"/>
      <point x="1094" y="590"/>
      <point x="1014" y="502"/>
      <point x="952" y="459" type="curve"/>
      <point x="1026" y="459" type="line"/>
      <point x="1083" y="500"/>
      <point x="1159" y="586"/>
      <point x="1159" y="668" type="curve" smooth="yes"/>
      <point x="1159" y="725"/>
      <point x="1137" y="774"/>
      <point x="1100" y="813" type="curve"/>
      <point x="1145" y="874"/>
      <point x="1171" y="946"/>
      <point x="1171" y="1024" type="curve" smooth="yes"/>
      <point x="1171" y="1245"/>
      <point x="1018" y="1485"/>
      <point x="780" y="1485" type="curve" smooth="yes"/>
      <point x="598" y="1485"/>
      <point x="541" y="1360"/>
      <point x="541" y="1165" type="curve" smooth="yes"/>
      <point x="541" y="1122"/>
      <point x="543" y="1055"/>
      <point x="545" y="977" type="curve"/>
      <point x="518" y="979"/>
      <point x="494" y="979"/>
      <point x="473" y="979" type="curve" smooth="yes"/>
      <point x="449" y="979"/>
      <point x="408" y="977"/>
      <point x="360" y="973" type="curve"/>
      <point x="362" y="1057"/>
      <point x="365" y="1126"/>
      <point x="365" y="1161" type="curve" smooth="yes"/>
      <point x="365" y="1165"/>
      <point x="367" y="1219"/>
      <point x="367" y="1255" type="curve"/>
      <point x="393" y="1300"/>
      <point x="428" y="1343"/>
      <point x="428" y="1382" type="curve" smooth="yes"/>
      <point x="428" y="1395"/>
      <point x="426" y="1450"/>
      <point x="369" y="1450" type="curve" smooth="yes"/>
      <point x="291" y="1450"/>
      <point x="317" y="1370"/>
      <point x="283" y="1370" type="curve" smooth="yes"/>
      <point x="240" y="1370"/>
      <point x="215" y="1464"/>
      <point x="111" y="1464" type="curve" smooth="yes"/>
      <point x="61" y="1464"/>
      <point x="-29" y="1438"/>
      <point x="-29" y="1317" type="curve" smooth="yes"/>
      <point x="-29" y="1235"/>
      <point x="31" y="1171"/>
      <point x="125" y="1171" type="curve" smooth="yes"/>
      <point x="141" y="1171"/>
      <point x="156" y="1174"/>
      <point x="168" y="1176" type="curve"/>
      <point x="166" y="1212" type="line"/>
      <point x="156" y="1210"/>
      <point x="139" y="1208"/>
      <point x="127" y="1208" type="curve" smooth="yes"/>
      <point x="86" y="1208"/>
      <point x="74" y="1241"/>
      <point x="74" y="1264" type="curve" smooth="yes"/>
      <point x="74" y="1290"/>
      <point x="94" y="1319"/>
      <point x="135" y="1319" type="curve" smooth="yes"/>
      <point x="180" y="1319"/>
      <point x="268" y="1284"/>
      <point x="322" y="1260" type="curve"/>
      <point x="319" y="1237"/>
      <point x="313" y="1196"/>
      <point x="311" y="1171" type="curve" smooth="yes"/>
      <point x="287" y="965" type="line"/>
      <point x="152" y="942"/>
      <point x="0" y="887"/>
      <point x="0" y="756" type="curve" smooth="yes"/>
      <point x="0" y="645"/>
      <point x="115" y="594"/>
      <point x="246" y="571" type="curve"/>
      <point x="231" y="426"/>
      <point x="221" y="295"/>
      <point x="221" y="240" type="curve" smooth="yes"/>
      <point x="221" y="104"/>
      <point x="281" y="-20"/>
    </contour>
    <contour>
      <point x="459" y="41" type="curve" smooth="yes"/>
      <point x="379" y="41"/>
      <point x="336" y="119"/>
      <point x="336" y="236" type="curve" smooth="yes"/>
      <point x="336" y="299"/>
      <point x="340" y="422"/>
      <point x="344" y="559" type="curve"/>
      <point x="397" y="553"/>
      <point x="451" y="553"/>
      <point x="496" y="553" type="curve" smooth="yes"/>
      <point x="518" y="553"/>
      <point x="543" y="553"/>
      <point x="565" y="555" type="curve"/>
      <point x="573" y="399"/>
      <point x="582" y="270"/>
      <point x="582" y="236" type="curve" smooth="yes"/>
      <point x="582" y="119"/>
      <point x="539" y="41"/>
    </contour>
    <contour>
      <point x="250" y="612" type="line"/>
      <point x="76" y="651"/>
      <point x="53" y="733"/>
      <point x="53" y="762" type="curve" smooth="yes"/>
      <point x="53" y="786"/>
      <point x="68" y="889"/>
      <point x="283" y="928" type="curve"/>
    </contour>
    <contour>
      <point x="494" y="590" type="curve" smooth="yes"/>
      <point x="436" y="590"/>
      <point x="389" y="592"/>
      <point x="346" y="596" type="curve"/>
      <point x="358" y="938" type="line"/>
      <point x="391" y="940"/>
      <point x="428" y="942"/>
      <point x="471" y="942" type="curve" smooth="yes"/>
      <point x="496" y="942"/>
      <point x="520" y="940"/>
      <point x="547" y="940" type="curve"/>
      <point x="563" y="592" type="line"/>
      <point x="541" y="590"/>
      <point x="518" y="590"/>
    </contour>
    <contour>
      <point x="657" y="604" type="curve"/>
      <point x="616" y="936" type="line"/>
      <point x="748" y="926"/>
      <point x="879" y="899"/>
      <point x="969" y="848" type="curve"/>
      <point x="920" y="719"/>
      <point x="815" y="637"/>
    </contour>
    <contour>
      <point x="983" y="893" type="curve"/>
      <point x="874" y="942"/>
      <point x="731" y="965"/>
      <point x="612" y="973" type="curve"/>
      <point x="604" y="1053"/>
      <point x="598" y="1122"/>
      <point x="598" y="1171" type="curve" smooth="yes"/>
      <point x="594" y="1303"/>
      <point x="612" y="1448"/>
      <point x="774" y="1448" type="curve" smooth="yes"/>
      <point x="971" y="1448"/>
      <point x="1006" y="1214"/>
      <point x="1006" y="1063" type="curve" smooth="yes"/>
      <point x="1006" y="999"/>
      <point x="997" y="944"/>
    </contour>
  </outline>
</glyph>
<glyph name="product" format="2">
  <advance width="1167"/>
  <unicode hex="220F"/>
  <outline>
    <contour>
      <point x="150" y="-432" type="line"/>
      <point x="492" y="-432" type="line"/>
      <point x="492" y="1161" type="line"/>
      <point x="721" y="1161" type="line"/>
      <point x="721" y="-432" type="line"/>
      <point x="1063" y="-432" type="line"/>
      <point x="1063" y="1462" type="line"/>
      <point x="150" y="1462" type="line"/>
    </contour>
  </outline>
</glyph>
<glyph name="uni2C69" format="2">
  <advance width="1141"/>
  <unicode hex="2C69"/>
  <anchor x="360" y="-455" name="bottom"/>
  <anchor x="766" y="1462" name="top"/>
  <outline>
    <contour>
      <point x="565" y="-455" type="line"/>
      <point x="897" y="-455" type="line"/>
      <point x="1059" y="299" type="line"/>
      <point x="889" y="299" type="line"/>
      <point x="797" y="772" type="line"/>
      <point x="1260" y="1462" type="line"/>
      <point x="883" y="1462" type="line"/>
      <point x="590" y="1014" type="line"/>
      <point x="518" y="874" type="line"/>
      <point x="641" y="1462" type="line"/>
      <point x="299" y="1462" type="line"/>
      <point x="-10" y="0" type="line"/>
      <point x="332" y="0" type="line"/>
      <point x="436" y="496" type="line"/>
      <point x="496" y="532" type="line"/>
      <point x="569" y="0" type="line"/>
      <point x="662" y="0" type="line"/>
    </contour>
  </outline>
</glyph>
<glyph name="uni2C73" format="2">
  <advance width="1464"/>
  <unicode hex="2C73"/>
  <anchor x="618" y="0" name="bottom"/>
  <anchor x="848" y="1085" name="top"/>
  <outline>
    <contour>
      <point x="102" y="0" type="line"/>
      <point x="463" y="0" type="line"/>
      <point x="657" y="535" type="line" smooth="yes"/>
      <point x="676" y="588"/>
      <point x="692" y="637"/>
      <point x="711" y="694" type="curve"/>
      <point x="717" y="694" type="line"/>
      <point x="713" y="633"/>
      <point x="707" y="571"/>
      <point x="702" y="510" type="curve" smooth="yes"/>
      <point x="668" y="0" type="line"/>
      <point x="1044" y="0" type="line"/>
      <point x="1366" y="801" type="line"/>
      <point x="1391" y="860"/>
      <point x="1411" y="877"/>
      <point x="1452" y="877" type="curve" smooth="yes"/>
      <point x="1464" y="877"/>
      <point x="1497" y="870"/>
      <point x="1516" y="860" type="curve"/>
      <point x="1577" y="1126" type="line"/>
      <point x="1546" y="1141"/>
      <point x="1487" y="1153"/>
      <point x="1421" y="1153" type="curve" smooth="yes"/>
      <point x="1276" y="1153"/>
      <point x="1159" y="1096"/>
      <point x="1098" y="928" type="curve"/>
      <point x="1044" y="778" type="line" smooth="yes"/>
      <point x="1016" y="696"/>
      <point x="983" y="594"/>
      <point x="958" y="510" type="curve"/>
      <point x="952" y="510" type="line"/>
      <point x="958" y="580"/>
      <point x="967" y="662"/>
      <point x="973" y="750" type="curve" smooth="yes"/>
      <point x="997" y="1133" type="line"/>
      <point x="625" y="1133" type="line"/>
      <point x="485" y="756" type="line" smooth="yes"/>
      <point x="457" y="678"/>
      <point x="430" y="594"/>
      <point x="412" y="532" type="curve"/>
      <point x="406" y="532" type="line"/>
      <point x="414" y="608"/>
      <point x="424" y="692"/>
      <point x="430" y="778" type="curve" smooth="yes"/>
      <point x="453" y="1133" type="line"/>
      <point x="131" y="1133" type="line"/>
    </contour>
  </outline>
</glyph>
<glyph name="brackhalftopleft" format="2">
  <advance width="707"/>
  <unicode hex="2E22"/>
  <outline>
    <contour>
      <point x="164" y="539" type="line"/>
      <point x="401" y="539" type="line"/>
      <point x="401" y="1253" type="line"/>
      <point x="655" y="1253" type="line"/>
      <point x="655" y="1462" type="line"/>
      <point x="164" y="1462" type="line"/>
    </contour>
  </outline>
</glyph>
<glyph name="tophalfsectionsign" format="2">
  <advance width="905"/>
  <unicode hex="2E39"/>
  <outline>
    <contour>
      <point x="483" y="438" type="curve" smooth="yes"/>
      <point x="707" y="438"/>
      <point x="856" y="588"/>
      <point x="856" y="813" type="curve" smooth="yes"/>
      <point x="856" y="950"/>
      <point x="805" y="1024"/>
      <point x="657" y="1126" type="curve" smooth="yes"/>
      <point x="588" y="1174"/>
      <point x="555" y="1204"/>
      <point x="555" y="1241" type="curve" smooth="yes"/>
      <point x="555" y="1294"/>
      <point x="592" y="1333"/>
      <point x="643" y="1333" type="curve" smooth="yes"/>
      <point x="715" y="1333"/>
      <point x="791" y="1307"/>
      <point x="854" y="1253" type="curve"/>
      <point x="969" y="1470" type="line"/>
      <point x="872" y="1530"/>
      <point x="760" y="1559"/>
      <point x="631" y="1559" type="curve" smooth="yes"/>
      <point x="391" y="1552"/>
      <point x="266" y="1380"/>
      <point x="266" y="1237" type="curve" smooth="yes"/>
      <point x="266" y="1135"/>
      <point x="293" y="1079"/>
      <point x="344" y="1026" type="curve"/>
      <point x="225" y="961"/>
      <point x="143" y="868"/>
      <point x="143" y="719" type="curve" smooth="yes"/>
      <point x="143" y="565"/>
      <point x="248" y="438"/>
    </contour>
    <contour>
      <point x="496" y="668" type="curve" smooth="yes"/>
      <point x="440" y="668"/>
      <point x="422" y="731"/>
      <point x="422" y="793" type="curve" smooth="yes"/>
      <point x="422" y="842"/>
      <point x="438" y="899"/>
      <point x="477" y="926" type="curve"/>
      <point x="551" y="881"/>
      <point x="575" y="831"/>
      <point x="575" y="776" type="curve" smooth="yes"/>
      <point x="575" y="721"/>
      <point x="561" y="668"/>
    </contour>
  </outline>
</glyph>
<glyph name="uni2E42" format="2">
  <advance width="1024"/>
  <unicode hex="2E42"/>
  <outline>
    <contour>
      <point x="49" y="-285" type="curve"/>
      <point x="336" y="-285" type="line"/>
      <point x="330" y="-147"/>
      <point x="334" y="158"/>
      <point x="352" y="299" type="curve"/>
      <point x="35" y="299" type="line"/>
      <point x="16" y="270" type="line"/>
      <point x="16" y="80"/>
      <point x="25" y="-125"/>
    </contour>
    <contour>
      <point x="526" y="-285" type="curve"/>
      <point x="813" y="-285" type="line"/>
      <point x="807" y="-147"/>
      <point x="811" y="158"/>
      <point x="829" y="299" type="curve"/>
      <point x="512" y="299" type="line"/>
      <point x="494" y="270" type="line"/>
      <point x="494" y="80"/>
      <point x="502" y="-125"/>
    </contour>
  </outline>
</glyph>
<glyph name="uniA64D" format="2">
  <advance width="1411"/>
  <unicode hex="A64D"/>
  <outline>
    <contour>
      <point x="344" y="-20" type="curve" smooth="yes"/>
      <point x="461" y="-20"/>
      <point x="524" y="20"/>
      <point x="606" y="104" type="curve"/>
      <point x="639" y="33"/>
      <point x="707" y="-20"/>
      <point x="868" y="-20" type="curve" smooth="yes"/>
      <point x="1196" y="-20"/>
      <point x="1378" y="412"/>
      <point x="1378" y="780" type="curve" smooth="yes"/>
      <point x="1378" y="1044"/>
      <point x="1276" y="1153"/>
      <point x="1049" y="1153" type="curve" smooth="yes"/>
      <point x="989" y="1153"/>
      <point x="909" y="1133"/>
      <point x="831" y="1087" type="curve"/>
      <point x="850" y="834" type="line"/>
      <point x="905" y="870"/>
      <point x="944" y="877"/>
      <point x="969" y="877" type="curve" smooth="yes"/>
      <point x="1016" y="877"/>
      <point x="1038" y="842"/>
      <point x="1038" y="760" type="curve" smooth="yes"/>
      <point x="1038" y="625"/>
      <point x="944" y="256"/>
      <point x="848" y="256" type="curve" smooth="yes"/>
      <point x="831" y="256"/>
      <point x="815" y="262"/>
      <point x="807" y="283" type="curve"/>
      <point x="885" y="647" type="line"/>
      <point x="555" y="647" type="line"/>
      <point x="477" y="291" type="line"/>
      <point x="467" y="274"/>
      <point x="446" y="256"/>
      <point x="426" y="256" type="curve" smooth="yes"/>
      <point x="397" y="256"/>
      <point x="377" y="305"/>
      <point x="377" y="397" type="curve" smooth="yes"/>
      <point x="377" y="547"/>
      <point x="438" y="877"/>
      <point x="569" y="877" type="curve" smooth="yes"/>
      <point x="598" y="877"/>
      <point x="629" y="866"/>
      <point x="664" y="831" type="curve"/>
      <point x="797" y="1090" type="line"/>
      <point x="739" y="1133"/>
      <point x="651" y="1153"/>
      <point x="555" y="1153" type="curve" smooth="yes"/>
      <point x="188" y="1153"/>
      <point x="37" y="721"/>
      <point x="37" y="311" type="curve" smooth="yes"/>
      <point x="37" y="94"/>
      <point x="137" y="-20"/>
    </contour>
  </outline>
</glyph>
<glyph name="uniA686" format="2">
  <advance width="1624"/>
  <unicode hex="A686"/>
  <outline>
    <contour>
      <point x="1055" y="0" type="line"/>
      <point x="1397" y="0" type="line"/>
      <point x="1708" y="1462" type="line"/>
      <point x="1366" y="1462" type="line"/>
      <point x="1225" y="807" type="line"/>
      <point x="1188" y="784"/>
      <point x="1128" y="754"/>
      <point x="1081" y="754" type="curve" smooth="yes"/>
      <point x="1053" y="754"/>
      <point x="1036" y="776"/>
      <point x="1036" y="834" type="curve" smooth="yes"/>
      <point x="1036" y="864"/>
      <point x="1042" y="903"/>
      <point x="1053" y="952" type="curve" smooth="yes"/>
      <point x="1161" y="1462" type="line"/>
      <point x="819" y="1462" type="line"/>
      <point x="700" y="899" type="line" smooth="yes"/>
      <point x="686" y="834"/>
      <point x="676" y="758"/>
      <point x="676" y="715" type="curve" smooth="yes"/>
      <point x="676" y="559"/>
      <point x="748" y="453"/>
      <point x="909" y="453" type="curve" smooth="yes"/>
      <point x="987" y="453"/>
      <point x="1083" y="487"/>
      <point x="1165" y="520" type="curve"/>
    </contour>
    <contour>
      <point x="362" y="453" type="curve" smooth="yes"/>
      <point x="440" y="453"/>
      <point x="569" y="492"/>
      <point x="748" y="580" type="curve"/>
      <point x="688" y="811" type="line"/>
      <point x="651" y="782"/>
      <point x="582" y="754"/>
      <point x="535" y="754" type="curve" smooth="yes"/>
      <point x="506" y="754"/>
      <point x="489" y="776"/>
      <point x="489" y="834" type="curve" smooth="yes"/>
      <point x="489" y="864"/>
      <point x="496" y="903"/>
      <point x="506" y="952" type="curve" smooth="yes"/>
      <point x="614" y="1462" type="line"/>
      <point x="272" y="1462" type="line"/>
      <point x="154" y="899" type="line" smooth="yes"/>
      <point x="139" y="834"/>
      <point x="129" y="758"/>
      <point x="129" y="715" type="curve" smooth="yes"/>
      <point x="129" y="559"/>
      <point x="201" y="453"/>
    </contour>
  </outline>
</glyph>
<glyph name="uniA692" format="2">
  <advance width="1262"/>
  <unicode hex="A692"/>
  <outline>
    <contour>
      <point x="692" y="0" type="line"/>
      <point x="1034" y="0" type="line"/>
      <point x="1346" y="1462" type="line"/>
      <point x="1004" y="1462" type="line"/>
      <point x="862" y="807" type="line"/>
      <point x="825" y="784"/>
      <point x="766" y="754"/>
      <point x="719" y="754" type="curve" smooth="yes"/>
      <point x="690" y="754"/>
      <point x="674" y="776"/>
      <point x="674" y="834" type="curve" smooth="yes"/>
      <point x="674" y="864"/>
      <point x="680" y="903"/>
      <point x="690" y="952" type="curve" smooth="yes"/>
      <point x="799" y="1462" type="line"/>
      <point x="457" y="1462" type="line"/>
      <point x="338" y="899" type="line" smooth="yes"/>
      <point x="324" y="834"/>
      <point x="313" y="758"/>
      <point x="313" y="715" type="curve" smooth="yes"/>
      <point x="313" y="559"/>
      <point x="385" y="453"/>
      <point x="547" y="453" type="curve" smooth="yes"/>
      <point x="625" y="453"/>
      <point x="721" y="487"/>
      <point x="803" y="520" type="curve"/>
    </contour>
    <contour>
      <point x="160" y="1161" type="line"/>
      <point x="872" y="1161" type="line"/>
      <point x="936" y="1462" type="line"/>
      <point x="223" y="1462" type="line"/>
    </contour>
  </outline>
</glyph>
<glyph name="uniA69E" format="2">
  <unicode hex="A69E"/>
  <anchor x="-96" y="111" name="_top"/>
  <outline>
    <contour>
      <point x="-172" y="233" type="line"/>
      <point x="43" y="233" type="line"/>
      <point x="104" y="539" type="line"/>
      <point x="371" y="561"/>
      <point x="526" y="702"/>
      <point x="526" y="969" type="curve" smooth="yes"/>
      <point x="526" y="1143"/>
      <point x="436" y="1253"/>
      <point x="264" y="1282" type="curve"/>
      <point x="317" y="1544" type="line"/>
      <point x="102" y="1544" type="line"/>
      <point x="49" y="1282" type="line"/>
      <point x="-215" y="1257"/>
      <point x="-371" y="1120"/>
      <point x="-371" y="854" type="curve" smooth="yes"/>
      <point x="-371" y="678"/>
      <point x="-281" y="567"/>
      <point x="-111" y="539" type="curve"/>
    </contour>
    <contour>
      <point x="-70" y="715" type="line"/>
      <point x="-121" y="727"/>
      <point x="-147" y="786"/>
      <point x="-147" y="862" type="curve" smooth="yes"/>
      <point x="-147" y="987"/>
      <point x="-86" y="1096"/>
      <point x="8" y="1106" type="curve"/>
    </contour>
    <contour>
      <point x="147" y="715" type="curve"/>
      <point x="223" y="1106" type="line"/>
      <point x="274" y="1096"/>
      <point x="303" y="1036"/>
      <point x="303" y="961" type="curve" smooth="yes"/>
      <point x="303" y="840"/>
      <point x="242" y="727"/>
    </contour>
  </outline>
</glyph>
<glyph name="uniA701" format="2">
  <advance width="678"/>
  <unicode hex="A701"/>
  <outline>
    <contour>
      <point x="369" y="-201" type="curve" smooth="yes"/>
      <point x="596" y="-201" type="line"/>
      <point x="596" y="-92" type="line"/>
      <point x="369" y="-92" type="line" smooth="yes"/>
      <point x="246" y="-92"/>
      <point x="190" y="-41"/>
      <point x="190" y="72" type="curve" smooth="yes"/>
      <point x="190" y="182"/>
      <point x="246" y="233"/>
      <point x="369" y="233" type="curve" smooth="yes"/>
      <point x="596" y="233" type="line"/>
      <point x="596" y="342" type="line"/>
      <point x="369" y="342" type="line" smooth="yes"/>
      <point x="180" y="342"/>
      <point x="82" y="248"/>
      <point x="82" y="72" type="curve" smooth="yes"/>
      <point x="82" y="-98"/>
      <point x="176" y="-201"/>
    </contour>
    <contour>
      <point x="102" y="-467" type="line"/>
      <point x="596" y="-467" type="line"/>
      <point x="596" y="-358" type="line"/>
      <point x="102" y="-358" type="line"/>
    </contour>
  </outline>
</glyph>
<glyph name="uniA705" format="2">
  <advance width="678"/>
  <unicode hex="A705"/>
  <outline>
    <contour>
      <point x="82" y="866" type="line"/>
      <point x="309" y="866" type="line" smooth="yes"/>
      <point x="498" y="866"/>
      <point x="596" y="961"/>
      <point x="596" y="1137" type="curve" smooth="yes"/>
      <point x="596" y="1307"/>
      <point x="502" y="1409"/>
      <point x="309" y="1409" type="curve" smooth="yes"/>
      <point x="82" y="1409" type="line"/>
      <point x="82" y="1300" type="line"/>
      <point x="309" y="1300" type="line" smooth="yes"/>
      <point x="432" y="1300"/>
      <point x="487" y="1249"/>
      <point x="487" y="1137" type="curve" smooth="yes"/>
      <point x="487" y="1026"/>
      <point x="432" y="975"/>
      <point x="309" y="975" type="curve" smooth="yes"/>
      <point x="82" y="975" type="line"/>
    </contour>
    <contour>
      <point x="82" y="600" type="line"/>
      <point x="575" y="600" type="line"/>
      <point x="575" y="709" type="line"/>
      <point x="82" y="709" type="line"/>
    </contour>
  </outline>
</glyph>
<glyph name="uniA722" format="2">
  <advance width="803"/>
  <unicode hex="A722"/>
  <outline>
    <contour>
      <point x="229" y="815" type="line"/>
      <point x="266" y="815" type="line" smooth="yes"/>
      <point x="598" y="815"/>
      <point x="786" y="973"/>
      <point x="786" y="1176" type="curve" smooth="yes"/>
      <point x="786" y="1380"/>
      <point x="674" y="1462"/>
      <point x="463" y="1462" type="curve" smooth="yes"/>
      <point x="299" y="1462" type="line"/>
      <point x="248" y="1225" type="line"/>
      <point x="375" y="1225" type="line" smooth="yes"/>
      <point x="467" y="1225"/>
      <point x="518" y="1194"/>
      <point x="518" y="1122" type="curve" smooth="yes"/>
      <point x="518" y="1012"/>
      <point x="412" y="938"/>
      <point x="293" y="938" type="curve" smooth="yes"/>
      <point x="254" y="938" type="line"/>
    </contour>
    <contour>
      <point x="27" y="0" type="line"/>
      <point x="70" y="0" type="line" smooth="yes"/>
      <point x="379" y="0"/>
      <point x="524" y="141"/>
      <point x="524" y="340" type="curve" smooth="yes"/>
      <point x="524" y="514"/>
      <point x="438" y="598"/>
      <point x="244" y="598" type="curve" smooth="yes"/>
      <point x="127" y="598" type="line"/>
      <point x="78" y="360" type="line"/>
      <point x="168" y="360" type="line" smooth="yes"/>
      <point x="252" y="360"/>
      <point x="289" y="330"/>
      <point x="289" y="279" type="curve" smooth="yes"/>
      <point x="289" y="178"/>
      <point x="205" y="125"/>
      <point x="80" y="125" type="curve" smooth="yes"/>
      <point x="53" y="125" type="line"/>
    </contour>
  </outline>
</glyph>
<glyph name="uniA725" format="2">
  <advance width="805"/>
  <unicode hex="A725"/>
  <outline>
    <contour>
      <point x="553" y="311" type="curve" smooth="yes"/>
      <point x="575" y="311" type="line"/>
      <point x="608" y="469" type="line"/>
      <point x="584" y="469" type="line" smooth="yes"/>
      <point x="479" y="469"/>
      <point x="418" y="522"/>
      <point x="418" y="610" type="curve" smooth="yes"/>
      <point x="418" y="709"/>
      <point x="483" y="834"/>
      <point x="664" y="834" type="curve" smooth="yes"/>
      <point x="760" y="834" type="line"/>
      <point x="821" y="1128" type="line"/>
      <point x="635" y="1128" type="line" smooth="yes"/>
      <point x="319" y="1128"/>
      <point x="109" y="926"/>
      <point x="109" y="633" type="curve" smooth="yes"/>
      <point x="109" y="438"/>
      <point x="266" y="311"/>
    </contour>
  </outline>
</glyph>
<glyph name="uniA764" format="2">
  <advance width="987"/>
  <unicode hex="A764"/>
  <outline>
    <contour>
      <point x="-10" y="0" type="line"/>
      <point x="332" y="0" type="line"/>
      <point x="373" y="190" type="line"/>
      <point x="453" y="190" type="line" smooth="yes"/>
      <point x="834" y="190"/>
      <point x="965" y="434"/>
      <point x="965" y="715" type="curve" smooth="yes"/>
      <point x="965" y="926"/>
      <point x="850" y="1065"/>
      <point x="573" y="1065" type="curve" smooth="yes"/>
      <point x="557" y="1065" type="line"/>
      <point x="641" y="1462" type="line"/>
      <point x="299" y="1462" type="line"/>
    </contour>
    <contour>
      <point x="434" y="485" type="line"/>
      <point x="496" y="770" type="line"/>
      <point x="514" y="770" type="line" smooth="yes"/>
      <point x="580" y="770"/>
      <point x="612" y="750"/>
      <point x="612" y="670" type="curve" smooth="yes"/>
      <point x="612" y="504"/>
      <point x="567" y="485"/>
      <point x="461" y="485" type="curve" smooth="yes"/>
    </contour>
    <contour>
      <point x="131" y="1155" type="line"/>
      <point x="717" y="1155" type="line"/>
      <point x="762" y="1370" type="line"/>
      <point x="176" y="1370" type="line"/>
    </contour>
  </outline>
</glyph>
<glyph name="uniA76D" format="2">
  <advance width="827"/>
  <unicode hex="A76D"/>
  <outline>
    <contour>
      <point x="-18" y="-492" type="curve" smooth="yes"/>
      <point x="193" y="-492"/>
      <point x="291" y="-362"/>
      <point x="342" y="-117" type="curve" smooth="yes"/>
      <point x="582" y="1028" type="line"/>
      <point x="614" y="1028" type="line" smooth="yes"/>
      <point x="844" y="1028"/>
      <point x="997" y="1110"/>
      <point x="997" y="1333" type="curve" smooth="yes"/>
      <point x="997" y="1466"/>
      <point x="901" y="1556"/>
      <point x="733" y="1556" type="curve" smooth="yes"/>
      <point x="469" y="1556"/>
      <point x="344" y="1391"/>
      <point x="285" y="1118" type="curve" smooth="yes"/>
      <point x="16" y="-104" type="line" smooth="yes"/>
      <point x="2" y="-172"/>
      <point x="-23" y="-215"/>
      <point x="-96" y="-215" type="curve" smooth="yes"/>
      <point x="-119" y="-215"/>
      <point x="-166" y="-205"/>
      <point x="-195" y="-188" type="curve"/>
      <point x="-195" y="-455" type="line"/>
      <point x="-150" y="-477"/>
      <point x="-98" y="-492"/>
    </contour>
    <contour>
      <point x="88" y="1028" type="line"/>
      <point x="465" y="1028" type="line"/>
      <point x="506" y="1212" type="line"/>
      <point x="129" y="1212" type="line"/>
    </contour>
    <contour>
      <point x="618" y="1212" type="line"/>
      <point x="631" y="1268" type="line" smooth="yes"/>
      <point x="651" y="1356"/>
      <point x="686" y="1376"/>
      <point x="735" y="1376" type="curve" smooth="yes"/>
      <point x="764" y="1376"/>
      <point x="793" y="1356"/>
      <point x="793" y="1315" type="curve" smooth="yes"/>
      <point x="793" y="1253"/>
      <point x="754" y="1212"/>
      <point x="664" y="1212" type="curve" smooth="yes"/>
    </contour>
  </outline>
</glyph>
<glyph name="uniA77A" format="2">
  <advance width="981"/>
  <unicode hex="A77A"/>
  <anchor x="365" y="-10" name="bottom"/>
  <anchor x="705" y="1573" name="top"/>
  <outline>
    <contour>
      <point x="395" y="-20" type="curve" smooth="yes"/>
      <point x="791" y="-20"/>
      <point x="946" y="442"/>
      <point x="946" y="762" type="curve" smooth="yes"/>
      <point x="946" y="831"/>
      <point x="932" y="901"/>
      <point x="913" y="950" type="curve" smooth="yes"/>
      <point x="891" y="1006"/>
      <point x="836" y="1092"/>
      <point x="698" y="1282" type="curve" smooth="yes"/>
      <point x="612" y="1401"/>
      <point x="555" y="1507"/>
      <point x="535" y="1575" type="curve"/>
      <point x="242" y="1481" type="line"/>
      <point x="276" y="1352"/>
      <point x="334" y="1217"/>
      <point x="401" y="1112" type="curve"/>
      <point x="135" y="989"/>
      <point x="37" y="616"/>
      <point x="37" y="371" type="curve" smooth="yes"/>
      <point x="37" y="127"/>
      <point x="170" y="-20"/>
    </contour>
    <contour>
      <point x="434" y="256" type="curve" smooth="yes"/>
      <point x="387" y="256"/>
      <point x="367" y="297"/>
      <point x="367" y="369" type="curve" smooth="yes"/>
      <point x="367" y="535"/>
      <point x="438" y="877"/>
      <point x="551" y="877" type="curve" smooth="yes"/>
      <point x="598" y="877"/>
      <point x="616" y="838"/>
      <point x="616" y="762" type="curve" smooth="yes"/>
      <point x="616" y="598"/>
      <point x="541" y="256"/>
    </contour>
  </outline>
</glyph>
<glyph name="uniA78A" format="2">
  <advance width="952"/>
  <unicode hex="A78A"/>
  <outline>
    <contour>
      <point x="119" y="815" type="line"/>
      <point x="946" y="815" type="line"/>
      <point x="1004" y="1083" type="line"/>
      <point x="176" y="1083" type="line"/>
    </contour>
    <contour>
      <point x="20" y="358" type="line"/>
      <point x="848" y="358" type="line"/>
      <point x="905" y="629" type="line"/>
      <point x="78" y="629" type="line"/>
    </contour>
  </outline>
</glyph>
<glyph name="uniA7A8" format="2">
  <advance width="891"/>
  <unicode hex="A7A8"/>
  <anchor x="332" y="0" name="bottom"/>
  <anchor x="641" y="1462" name="top"/>
  <outline>
    <contour>
      <point x="23" y="592" type="line"/>
      <point x="918" y="776" type="line"/>
      <point x="963" y="993" type="line"/>
      <point x="68" y="809" type="line"/>
    </contour>
    <component base="S"/>
  </outline>
</glyph>
<glyph name="uniA7B3" format="2">
  <advance width="1106"/>
  <unicode hex="A7B3"/>
  <outline>
    <contour>
      <point x="-197" y="-492" type="line"/>
      <point x="170" y="-492" type="line"/>
      <point x="449" y="57" type="line"/>
      <point x="471" y="-193" type="line" smooth="yes"/>
      <point x="489" y="-391"/>
      <point x="582" y="-492"/>
      <point x="748" y="-492" type="curve" smooth="yes"/>
      <point x="801" y="-492"/>
      <point x="885" y="-483"/>
      <point x="930" y="-469" type="curve"/>
      <point x="930" y="-184" type="line"/>
      <point x="907" y="-190"/>
      <point x="889" y="-193"/>
      <point x="864" y="-193" type="curve" smooth="yes"/>
      <point x="831" y="-193"/>
      <point x="807" y="-166"/>
      <point x="799" y="-100" type="curve" smooth="yes"/>
      <point x="725" y="492" type="line"/>
      <point x="1253" y="1462" type="line"/>
      <point x="885" y="1462" type="line"/>
      <point x="639" y="965" type="line"/>
      <point x="618" y="1184" type="line" smooth="yes"/>
      <point x="600" y="1382"/>
      <point x="514" y="1483"/>
      <point x="348" y="1483" type="curve" smooth="yes"/>
      <point x="274" y="1483"/>
      <point x="201" y="1475"/>
      <point x="156" y="1460" type="curve"/>
      <point x="170" y="1163" type="line"/>
      <point x="184" y="1174"/>
      <point x="207" y="1184"/>
      <point x="231" y="1184" type="curve" smooth="yes"/>
      <point x="264" y="1184"/>
      <point x="287" y="1171"/>
      <point x="293" y="1118" type="curve" smooth="yes"/>
      <point x="369" y="532" type="line"/>
    </contour>
  </outline>
</glyph>
<glyph name="uniA7B4" format="2">
  <advance width="1059"/>
  <unicode hex="A7B4"/>
  <outline>
    <contour>
      <point x="-117" y="-492" type="line"/>
      <point x="227" y="-492" type="line"/>
      <point x="332" y="0" type="line"/>
      <point x="457" y="0" type="line" smooth="yes"/>
      <point x="754" y="0"/>
      <point x="969" y="238"/>
      <point x="969" y="524" type="curve" smooth="yes"/>
      <point x="969" y="629"/>
      <point x="920" y="727"/>
      <point x="821" y="766" type="curve"/>
      <point x="823" y="776" type="line"/>
      <point x="1001" y="842"/>
      <point x="1085" y="995"/>
      <point x="1085" y="1174" type="curve" smooth="yes"/>
      <point x="1085" y="1397"/>
      <point x="877" y="1462"/>
      <point x="696" y="1462" type="curve" smooth="yes"/>
      <point x="299" y="1462" type="line"/>
    </contour>
    <contour>
      <point x="393" y="289" type="line"/>
      <point x="463" y="621" type="line"/>
      <point x="526" y="621" type="line" smooth="yes"/>
      <point x="586" y="621"/>
      <point x="616" y="584"/>
      <point x="616" y="512" type="curve" smooth="yes"/>
      <point x="616" y="387"/>
      <point x="569" y="289"/>
      <point x="461" y="289" type="curve" smooth="yes"/>
    </contour>
    <contour>
      <point x="520" y="893" type="line"/>
      <point x="582" y="1180" type="line"/>
      <point x="631" y="1180" type="line" smooth="yes"/>
      <point x="692" y="1180"/>
      <point x="723" y="1149"/>
      <point x="723" y="1090" type="curve" smooth="yes"/>
      <point x="723" y="993"/>
      <point x="666" y="893"/>
      <point x="575" y="893" type="curve" smooth="yes"/>
    </contour>
  </outline>
</glyph>
<glyph name="uniA7FF" format="2">
  <advance width="1866"/>
  <unicode hex="A7FF"/>
  <outline>
    <contour>
      <point x="-119" y="0" type="line"/>
      <point x="225" y="0" type="line"/>
      <point x="451" y="608" type="line"/>
      <point x="489" y="715"/>
      <point x="518" y="788"/>
      <point x="539" y="858" type="curve"/>
      <point x="543" y="858" type="line"/>
      <point x="537" y="770"/>
      <point x="532" y="713"/>
      <point x="528" y="610" type="curve"/>
      <point x="504" y="0" type="line"/>
      <point x="860" y="0" type="line"/>
      <point x="1065" y="537" type="line" smooth="yes"/>
      <point x="1090" y="596"/>
      <point x="1110" y="657"/>
      <point x="1130" y="719" type="curve"/>
      <point x="1135" y="719" type="line"/>
      <point x="1126" y="647"/>
      <point x="1120" y="573"/>
      <point x="1120" y="516" type="curve" smooth="yes"/>
      <point x="1110" y="0" type="line"/>
      <point x="1499" y="0" type="line"/>
      <point x="2056" y="1462" type="line"/>
      <point x="1712" y="1462" type="line"/>
      <point x="1487" y="854" type="line"/>
      <point x="1448" y="748"/>
      <point x="1419" y="674"/>
      <point x="1399" y="604" type="curve"/>
      <point x="1395" y="604" type="line"/>
      <point x="1401" y="692"/>
      <point x="1405" y="750"/>
      <point x="1409" y="852" type="curve" smooth="yes"/>
      <point x="1432" y="1462" type="line"/>
      <point x="1153" y="1462" type="line"/>
      <point x="905" y="852" type="line" smooth="yes"/>
      <point x="870" y="764"/>
      <point x="840" y="684"/>
      <point x="809" y="602" type="curve"/>
      <point x="807" y="602" type="line"/>
      <point x="815" y="664"/>
      <point x="823" y="748"/>
      <point x="829" y="856" type="curve" smooth="yes"/>
      <point x="862" y="1462" type="line"/>
      <point x="438" y="1462" type="line"/>
    </contour>
  </outline>
</glyph>
<glyph name="uniAB31" format="2">
  <advance width="1458"/>
  <unicode hex="AB31"/>
  <outline>
    <contour>
      <point x="264" y="-20" type="curve" smooth="yes"/>
      <point x="369" y="-20"/>
      <point x="432" y="47"/>
      <point x="502" y="135" type="curve"/>
      <point x="510" y="135" type="line"/>
      <point x="518" y="0" type="line"/>
      <point x="692" y="0" type="line"/>
      <point x="719" y="82" type="line"/>
      <point x="778" y="16"/>
      <point x="862" y="-20"/>
      <point x="977" y="-20" type="curve" smooth="yes"/>
      <point x="1247" y="-20"/>
      <point x="1370" y="160"/>
      <point x="1370" y="317" type="curve" smooth="yes"/>
      <point x="1370" y="504"/>
      <point x="1292" y="621"/>
      <point x="952" y="666" type="curve"/>
      <point x="930" y="670" type="line"/>
      <point x="963" y="821"/>
      <point x="1016" y="887"/>
      <point x="1147" y="887" type="curve" smooth="yes"/>
      <point x="1251" y="887"/>
      <point x="1329" y="862"/>
      <point x="1419" y="799" type="curve"/>
      <point x="1419" y="1069" type="line"/>
      <point x="1360" y="1124"/>
      <point x="1245" y="1151"/>
      <point x="1155" y="1151" type="curve" smooth="yes"/>
      <point x="1079" y="1151"/>
      <point x="993" y="1122"/>
      <point x="930" y="1067" type="curve"/>
      <point x="934" y="1133" type="line"/>
      <point x="739" y="1133" type="line"/>
      <point x="686" y="997" type="line"/>
      <point x="680" y="997" type="line"/>
      <point x="639" y="1112"/>
      <point x="563" y="1153"/>
      <point x="477" y="1153" type="curve" smooth="yes"/>
      <point x="166" y="1153"/>
      <point x="29" y="610"/>
      <point x="29" y="319" type="curve" smooth="yes"/>
      <point x="29" y="111"/>
      <point x="119" y="-20"/>
    </contour>
    <contour>
      <point x="412" y="256" type="curve" smooth="yes"/>
      <point x="383" y="256"/>
      <point x="367" y="295"/>
      <point x="367" y="371" type="curve" smooth="yes"/>
      <point x="367" y="516"/>
      <point x="440" y="868"/>
      <point x="545" y="868" type="curve" smooth="yes"/>
      <point x="586" y="868"/>
      <point x="606" y="834"/>
      <point x="606" y="758" type="curve" smooth="yes"/>
      <point x="606" y="719"/>
      <point x="602" y="670"/>
      <point x="573" y="543" type="curve" smooth="yes"/>
      <point x="549" y="426"/>
      <point x="500" y="256"/>
    </contour>
    <contour>
      <point x="989" y="236" type="curve" smooth="yes"/>
      <point x="918" y="236"/>
      <point x="874" y="295"/>
      <point x="874" y="375" type="curve" smooth="yes"/>
      <point x="874" y="391"/>
      <point x="877" y="422"/>
      <point x="881" y="436" type="curve"/>
      <point x="905" y="434" type="line" smooth="yes"/>
      <point x="1032" y="422"/>
      <point x="1071" y="369"/>
      <point x="1071" y="328" type="curve" smooth="yes"/>
      <point x="1071" y="279"/>
      <point x="1038" y="236"/>
    </contour>
  </outline>
</glyph>
<glyph name="uniAB3B" format="2">
  <advance width="1155"/>
  <unicode hex="AB3B"/>
  <outline>
    <contour>
      <point x="-27" y="0" type="line"/>
      <point x="303" y="0" type="line"/>
      <point x="426" y="584" type="line" smooth="yes"/>
      <point x="459" y="735"/>
      <point x="518" y="858"/>
      <point x="653" y="858" type="curve" smooth="yes"/>
      <point x="723" y="858"/>
      <point x="756" y="831"/>
      <point x="764" y="786" type="curve" smooth="yes"/>
      <point x="770" y="750"/>
      <point x="762" y="690"/>
      <point x="750" y="631" type="curve" smooth="yes"/>
      <point x="713" y="449" type="line"/>
      <point x="1042" y="449" type="line"/>
      <point x="1100" y="723" type="line" smooth="yes"/>
      <point x="1114" y="795"/>
      <point x="1116" y="846"/>
      <point x="1112" y="887" type="curve" smooth="yes"/>
      <point x="1100" y="1092"/>
      <point x="932" y="1153"/>
      <point x="803" y="1153" type="curve" smooth="yes"/>
      <point x="649" y="1153"/>
      <point x="545" y="1096"/>
      <point x="479" y="1001" type="curve"/>
      <point x="473" y="1001" type="line"/>
      <point x="477" y="1133" type="line"/>
      <point x="215" y="1133" type="line"/>
    </contour>
    <contour>
      <point x="602" y="170" type="curve" smooth="yes"/>
      <point x="580" y="170"/>
      <point x="565" y="182"/>
      <point x="565" y="211" type="curve" smooth="yes"/>
      <point x="565" y="274"/>
      <point x="610" y="350"/>
      <point x="690" y="352" type="curve"/>
      <point x="678" y="289" type="line" smooth="yes"/>
      <point x="657" y="199"/>
      <point x="633" y="170"/>
    </contour>
    <contour>
      <point x="682" y="-20" type="curve" smooth="yes"/>
      <point x="823" y="-20"/>
      <point x="965" y="90"/>
      <point x="1020" y="354" type="curve"/>
      <point x="1051" y="352"/>
      <point x="1077" y="348"/>
      <point x="1114" y="342" type="curve"/>
      <point x="1182" y="528" type="line"/>
      <point x="1079" y="547"/>
      <point x="985" y="553"/>
      <point x="868" y="553" type="curve" smooth="yes"/>
      <point x="604" y="553"/>
      <point x="414" y="406"/>
      <point x="414" y="205" type="curve" smooth="yes"/>
      <point x="414" y="49"/>
      <point x="487" y="-20"/>
    </contour>
  </outline>
</glyph>
